%TF.GenerationSoftware,KiCad,Pcbnew,9.0.6*%
%TF.CreationDate,2025-12-02T16:00:41+08:00*%
%TF.ProjectId,Macropad,4d616372-6f70-4616-942e-6b696361645f,rev?*%
%TF.SameCoordinates,Original*%
%TF.FileFunction,Copper,L2,Bot*%
%TF.FilePolarity,Positive*%
%FSLAX46Y46*%
G04 Gerber Fmt 4.6, Leading zero omitted, Abs format (unit mm)*
G04 Created by KiCad (PCBNEW 9.0.6) date 2025-12-02 16:00:41*
%MOMM*%
%LPD*%
G01*
G04 APERTURE LIST*
G04 Aperture macros list*
%AMRoundRect*
0 Rectangle with rounded corners*
0 $1 Rounding radius*
0 $2 $3 $4 $5 $6 $7 $8 $9 X,Y pos of 4 corners*
0 Add a 4 corners polygon primitive as box body*
4,1,4,$2,$3,$4,$5,$6,$7,$8,$9,$2,$3,0*
0 Add four circle primitives for the rounded corners*
1,1,$1+$1,$2,$3*
1,1,$1+$1,$4,$5*
1,1,$1+$1,$6,$7*
1,1,$1+$1,$8,$9*
0 Add four rect primitives between the rounded corners*
20,1,$1+$1,$2,$3,$4,$5,0*
20,1,$1+$1,$4,$5,$6,$7,0*
20,1,$1+$1,$6,$7,$8,$9,0*
20,1,$1+$1,$8,$9,$2,$3,0*%
%AMFreePoly0*
4,1,18,-0.410000,0.593000,-0.403758,0.624380,-0.385983,0.650983,-0.359380,0.668758,-0.328000,0.675000,0.328000,0.675000,0.359380,0.668758,0.385983,0.650983,0.403758,0.624380,0.410000,0.593000,0.410000,-0.593000,0.403758,-0.624380,0.385983,-0.650983,0.359380,-0.668758,0.328000,-0.675000,0.000000,-0.675000,-0.410000,-0.265000,-0.410000,0.593000,-0.410000,0.593000,$1*%
G04 Aperture macros list end*
%TA.AperFunction,ComponentPad*%
%ADD10R,1.700000X1.700000*%
%TD*%
%TA.AperFunction,ComponentPad*%
%ADD11O,1.700000X1.700000*%
%TD*%
%TA.AperFunction,ComponentPad*%
%ADD12R,2.000000X2.000000*%
%TD*%
%TA.AperFunction,ComponentPad*%
%ADD13C,2.000000*%
%TD*%
%TA.AperFunction,ComponentPad*%
%ADD14R,3.200000X2.000000*%
%TD*%
%TA.AperFunction,ComponentPad*%
%ADD15C,2.300000*%
%TD*%
%TA.AperFunction,SMDPad,CuDef*%
%ADD16FreePoly0,180.000000*%
%TD*%
%TA.AperFunction,SMDPad,CuDef*%
%ADD17RoundRect,0.082000X0.328000X0.593000X-0.328000X0.593000X-0.328000X-0.593000X0.328000X-0.593000X0*%
%TD*%
%TA.AperFunction,ComponentPad*%
%ADD18RoundRect,0.250000X0.550000X0.550000X-0.550000X0.550000X-0.550000X-0.550000X0.550000X-0.550000X0*%
%TD*%
%TA.AperFunction,ComponentPad*%
%ADD19C,1.600000*%
%TD*%
%TA.AperFunction,ComponentPad*%
%ADD20RoundRect,0.250000X0.550000X-0.550000X0.550000X0.550000X-0.550000X0.550000X-0.550000X-0.550000X0*%
%TD*%
%TA.AperFunction,SMDPad,CuDef*%
%ADD21RoundRect,0.152400X-1.063600X-0.609600X1.063600X-0.609600X1.063600X0.609600X-1.063600X0.609600X0*%
%TD*%
%TA.AperFunction,ComponentPad*%
%ADD22C,1.524000*%
%TD*%
%TA.AperFunction,SMDPad,CuDef*%
%ADD23RoundRect,0.152400X1.063600X0.609600X-1.063600X0.609600X-1.063600X-0.609600X1.063600X-0.609600X0*%
%TD*%
%TA.AperFunction,ViaPad*%
%ADD24C,0.600000*%
%TD*%
%TA.AperFunction,Conductor*%
%ADD25C,0.200000*%
%TD*%
%TA.AperFunction,Conductor*%
%ADD26C,0.500000*%
%TD*%
%TA.AperFunction,Conductor*%
%ADD27C,0.250000*%
%TD*%
G04 APERTURE END LIST*
D10*
%TO.P,J1,1,Pin_1*%
%TO.N,/SDA*%
X86000000Y-83880000D03*
D11*
%TO.P,J1,2,Pin_2*%
%TO.N,/SCL*%
X86000000Y-86420000D03*
%TO.P,J1,3,Pin_3*%
%TO.N,+3V3*%
X86000000Y-88960000D03*
%TO.P,J1,4,Pin_4*%
%TO.N,GND*%
X86000000Y-91500000D03*
%TD*%
D12*
%TO.P,SW11,A,A*%
%TO.N,EN1*%
X89750000Y-85500000D03*
D13*
%TO.P,SW11,B,B*%
%TO.N,EN2*%
X89750000Y-90500000D03*
%TO.P,SW11,C,C*%
%TO.N,GND*%
X89750000Y-88000000D03*
D14*
%TO.P,SW11,MP*%
%TO.N,N/C*%
X97250000Y-82400000D03*
X97250000Y-93600000D03*
D13*
%TO.P,SW11,S1,S1*%
%TO.N,unconnected-(SW11-PadS1)*%
X104250000Y-90500000D03*
%TO.P,SW11,S2,S2*%
%TO.N,unconnected-(SW11-PadS2)*%
X104250000Y-85500000D03*
%TD*%
D15*
%TO.P,SW9,2,2*%
%TO.N,Column 2*%
X97790000Y-137795000D03*
%TO.P,SW9,1,1*%
%TO.N,Net-(D12-A)*%
X91440000Y-140335000D03*
%TD*%
%TO.P,SW8,2,2*%
%TO.N,Column 2*%
X97790000Y-118745000D03*
%TO.P,SW8,1,1*%
%TO.N,Net-(D11-A)*%
X91440000Y-121285000D03*
%TD*%
%TO.P,SW7,2,2*%
%TO.N,Column 2*%
X97790000Y-99695000D03*
%TO.P,SW7,1,1*%
%TO.N,Net-(D10-A)*%
X91440000Y-102235000D03*
%TD*%
%TO.P,SW6,2,2*%
%TO.N,Column 1*%
X78740000Y-137795000D03*
%TO.P,SW6,1,1*%
%TO.N,Net-(D9-A)*%
X72390000Y-140335000D03*
%TD*%
%TO.P,SW5,2,2*%
%TO.N,Column 1*%
X78740000Y-118745000D03*
%TO.P,SW5,1,1*%
%TO.N,Net-(D8-A)*%
X72390000Y-121285000D03*
%TD*%
%TO.P,SW4,2,2*%
%TO.N,Column 1*%
X78740000Y-99695000D03*
%TO.P,SW4,1,1*%
%TO.N,Net-(D7-A)*%
X72390000Y-102235000D03*
%TD*%
%TO.P,SW3,2,2*%
%TO.N,Column 0*%
X59690000Y-137795000D03*
%TO.P,SW3,1,1*%
%TO.N,Net-(D5-A)*%
X53340000Y-140335000D03*
%TD*%
%TO.P,SW2,2,2*%
%TO.N,Column 0*%
X59690000Y-118745000D03*
%TO.P,SW2,1,1*%
%TO.N,Net-(D4-A)*%
X53340000Y-121285000D03*
%TD*%
%TO.P,SW1,2,2*%
%TO.N,Column 0*%
X59690000Y-99695000D03*
%TO.P,SW1,1,1*%
%TO.N,Net-(D3-A)*%
X53340000Y-102235000D03*
%TD*%
D16*
%TO.P,LED8,4,VSS*%
%TO.N,GND*%
X46693750Y-145637500D03*
D17*
%TO.P,LED8,3,DIN*%
%TO.N,Net-(LED1-DOUT)*%
X45193750Y-145637500D03*
%TO.P,LED8,2,DOUT*%
%TO.N,unconnected-(LED8-DOUT-Pad2)*%
X46693750Y-151087500D03*
%TO.P,LED8,1,VDD*%
%TO.N,+5V*%
X45193750Y-151087500D03*
%TD*%
%TO.P,LED2,1,VDD*%
%TO.N,+5V*%
X45250000Y-87725000D03*
%TO.P,LED2,2,DOUT*%
%TO.N,Net-(LED2-DOUT)*%
X46750000Y-87725000D03*
%TO.P,LED2,3,DIN*%
%TO.N,Net-(LED2-DIN)*%
X45250000Y-82275000D03*
D16*
%TO.P,LED2,4,VSS*%
%TO.N,GND*%
X46750000Y-82275000D03*
%TD*%
D17*
%TO.P,LED3,1,VDD*%
%TO.N,+5V*%
X45250000Y-97181335D03*
%TO.P,LED3,2,DOUT*%
%TO.N,Net-(LED3-DOUT)*%
X46750000Y-97181335D03*
%TO.P,LED3,3,DIN*%
%TO.N,Net-(LED2-DOUT)*%
X45250000Y-91731335D03*
D16*
%TO.P,LED3,4,VSS*%
%TO.N,GND*%
X46750000Y-91731335D03*
%TD*%
D18*
%TO.P,D4,1,K*%
%TO.N,Row 1*%
X60960000Y-133350000D03*
D19*
%TO.P,D4,2,A*%
%TO.N,Net-(D4-A)*%
X53340000Y-133350000D03*
%TD*%
D17*
%TO.P,LED7,1,VDD*%
%TO.N,+5V*%
X45193750Y-133118778D03*
%TO.P,LED7,2,DOUT*%
%TO.N,Net-(LED1-DIN)*%
X46693750Y-133118778D03*
%TO.P,LED7,3,DIN*%
%TO.N,Net-(LED6-DOUT)*%
X45193750Y-127668778D03*
D16*
%TO.P,LED7,4,VSS*%
%TO.N,GND*%
X46693750Y-127668778D03*
%TD*%
D17*
%TO.P,LED4,1,VDD*%
%TO.N,+5V*%
X45193750Y-106165696D03*
%TO.P,LED4,2,DOUT*%
%TO.N,Net-(LED4-DOUT)*%
X46693750Y-106165696D03*
%TO.P,LED4,3,DIN*%
%TO.N,Net-(LED3-DOUT)*%
X45193750Y-100715696D03*
D16*
%TO.P,LED4,4,VSS*%
%TO.N,GND*%
X46693750Y-100715696D03*
%TD*%
D17*
%TO.P,LED5,1,VDD*%
%TO.N,+5V*%
X45193750Y-115150056D03*
%TO.P,LED5,2,DOUT*%
%TO.N,Net-(LED5-DOUT)*%
X46693750Y-115150056D03*
%TO.P,LED5,3,DIN*%
%TO.N,Net-(LED4-DOUT)*%
X45193750Y-109700056D03*
D16*
%TO.P,LED5,4,VSS*%
%TO.N,GND*%
X46693750Y-109700056D03*
%TD*%
D18*
%TO.P,D7,1,K*%
%TO.N,Row 0*%
X80010000Y-114300000D03*
D19*
%TO.P,D7,2,A*%
%TO.N,Net-(D7-A)*%
X72390000Y-114300000D03*
%TD*%
D18*
%TO.P,D8,1,K*%
%TO.N,Row 1*%
X80010000Y-133350000D03*
D19*
%TO.P,D8,2,A*%
%TO.N,Net-(D8-A)*%
X72390000Y-133350000D03*
%TD*%
D20*
%TO.P,D12,1,K*%
%TO.N,Row 2*%
X104775000Y-146685000D03*
D19*
%TO.P,D12,2,A*%
%TO.N,Net-(D12-A)*%
X104775000Y-139065000D03*
%TD*%
D21*
%TO.P,U1,1,GPIO26/ADC0/A0*%
%TO.N,Column 0*%
X72455000Y-83200000D03*
D22*
X71620000Y-83200000D03*
D21*
%TO.P,U1,2,GPIO27/ADC1/A1*%
%TO.N,Column 1*%
X72455000Y-85740000D03*
D22*
X71620000Y-85740000D03*
D21*
%TO.P,U1,3,GPIO28/ADC2/A2*%
%TO.N,Column 2*%
X72455000Y-88280000D03*
D22*
X71620000Y-88280000D03*
D21*
%TO.P,U1,4,GPIO29/ADC3/A3*%
%TO.N,EN1*%
X72455000Y-90820000D03*
D22*
X71620000Y-90820000D03*
D21*
%TO.P,U1,5,GPIO6/SDA*%
%TO.N,/SDA*%
X72455000Y-93360000D03*
D22*
X71620000Y-93360000D03*
D21*
%TO.P,U1,6,GPIO7/SCL*%
%TO.N,/SCL*%
X72455000Y-95900000D03*
D22*
X71620000Y-95900000D03*
D21*
%TO.P,U1,7,GPIO0/TX*%
%TO.N,EN2*%
X72455000Y-98440000D03*
D22*
X71620000Y-98440000D03*
%TO.P,U1,8,GPIO1/RX*%
%TO.N,Net-(LED2-DIN)*%
X56380000Y-98440000D03*
D23*
X55545000Y-98440000D03*
D22*
%TO.P,U1,9,GPIO2/SCK*%
%TO.N,Row 0*%
X56380000Y-95900000D03*
D23*
X55545000Y-95900000D03*
D22*
%TO.P,U1,10,GPIO4/MISO*%
%TO.N,Row 1*%
X56380000Y-93360000D03*
D23*
X55545000Y-93360000D03*
D22*
%TO.P,U1,11,GPIO3/MOSI*%
%TO.N,Row 2*%
X56380000Y-90820000D03*
D23*
X55545000Y-90820000D03*
D22*
%TO.P,U1,12,3V3*%
%TO.N,+3V3*%
X56380000Y-88280000D03*
D23*
X55545000Y-88280000D03*
D22*
%TO.P,U1,13,GND*%
%TO.N,GND*%
X56380000Y-85740000D03*
D23*
X55545000Y-85740000D03*
D22*
%TO.P,U1,14,VBUS*%
%TO.N,+5V*%
X56380000Y-83200000D03*
D23*
X55545000Y-83200000D03*
%TD*%
D20*
%TO.P,D9,1,K*%
%TO.N,Row 2*%
X85725000Y-146685000D03*
D19*
%TO.P,D9,2,A*%
%TO.N,Net-(D9-A)*%
X85725000Y-139065000D03*
%TD*%
D18*
%TO.P,D3,1,K*%
%TO.N,Row 0*%
X61912500Y-114300000D03*
D19*
%TO.P,D3,2,A*%
%TO.N,Net-(D3-A)*%
X54292500Y-114300000D03*
%TD*%
D17*
%TO.P,LED1,1,VDD*%
%TO.N,+5V*%
X45193750Y-142103139D03*
%TO.P,LED1,2,DOUT*%
%TO.N,Net-(LED1-DOUT)*%
X46693750Y-142103139D03*
%TO.P,LED1,3,DIN*%
%TO.N,Net-(LED1-DIN)*%
X45193750Y-136653139D03*
D16*
%TO.P,LED1,4,VSS*%
%TO.N,GND*%
X46693750Y-136653139D03*
%TD*%
D18*
%TO.P,D11,1,K*%
%TO.N,Row 1*%
X99060000Y-133350000D03*
D19*
%TO.P,D11,2,A*%
%TO.N,Net-(D11-A)*%
X91440000Y-133350000D03*
%TD*%
D18*
%TO.P,D10,1,K*%
%TO.N,Row 0*%
X99410000Y-114500000D03*
D19*
%TO.P,D10,2,A*%
%TO.N,Net-(D10-A)*%
X91790000Y-114500000D03*
%TD*%
D17*
%TO.P,LED6,1,VDD*%
%TO.N,+5V*%
X45193750Y-124134417D03*
%TO.P,LED6,2,DOUT*%
%TO.N,Net-(LED6-DOUT)*%
X46693750Y-124134417D03*
%TO.P,LED6,3,DIN*%
%TO.N,Net-(LED5-DOUT)*%
X45193750Y-118684417D03*
D16*
%TO.P,LED6,4,VSS*%
%TO.N,GND*%
X46693750Y-118684417D03*
%TD*%
D20*
%TO.P,D5,1,K*%
%TO.N,Row 2*%
X66675000Y-146685000D03*
D19*
%TO.P,D5,2,A*%
%TO.N,Net-(D5-A)*%
X66675000Y-139065000D03*
%TD*%
D24*
%TO.N,Row 0*%
X75800000Y-116800000D03*
%TO.N,/SDA*%
X76200000Y-85725000D03*
%TO.N,Column 1*%
X70200000Y-88100000D03*
%TO.N,EN1*%
X69600000Y-86700000D03*
%TO.N,EN2*%
X79700000Y-94600000D03*
%TO.N,Net-(LED2-DIN)*%
X52500000Y-84700000D03*
%TO.N,+5V*%
X45560000Y-89650000D03*
X43500000Y-90310000D03*
%TD*%
D25*
%TO.N,+3V3*%
X84200000Y-88960000D02*
X77240000Y-82000000D01*
D26*
%TO.N,GND*%
X55280000Y-85920000D02*
X55200000Y-86000000D01*
X50000000Y-99717100D02*
X50317100Y-99400000D01*
X46693750Y-145406250D02*
X48800000Y-143300000D01*
X50317100Y-116400000D02*
X50100000Y-116182900D01*
X48700000Y-137600000D02*
X47753139Y-136653139D01*
X48500000Y-89981335D02*
X46750000Y-91731335D01*
X46847669Y-118838336D02*
X47878764Y-118838336D01*
X48800000Y-143300000D02*
X48700000Y-143200000D01*
X50100000Y-136200000D02*
X48700000Y-137600000D01*
X55200000Y-86000000D02*
X48500000Y-86000000D01*
X46693750Y-145637500D02*
X46693750Y-145406250D01*
X50000000Y-107582900D02*
X50000000Y-99717100D01*
X50317100Y-116400000D02*
X50100000Y-116617100D01*
X48500000Y-82700000D02*
X48075000Y-82275000D01*
X48500000Y-86000000D02*
X48500000Y-82700000D01*
X46850268Y-127825296D02*
X49291804Y-127825296D01*
X48493806Y-107900000D02*
X50317100Y-107900000D01*
X50000000Y-91481335D02*
X48500000Y-89981335D01*
X47878764Y-118838336D02*
X50317100Y-116400000D01*
X48500000Y-86000000D02*
X48500000Y-89981335D01*
X50317100Y-99400000D02*
X50000000Y-99082900D01*
X50317100Y-107900000D02*
X50000000Y-107582900D01*
X47753139Y-136653139D02*
X46693750Y-136653139D01*
X48075000Y-82275000D02*
X46750000Y-82275000D01*
X55545000Y-85920000D02*
X55280000Y-85920000D01*
X49291804Y-127808196D02*
X50100000Y-127000000D01*
X46693750Y-118684417D02*
X46847669Y-118838336D01*
X48700000Y-143200000D02*
X48700000Y-137600000D01*
X50000000Y-99082900D02*
X50000000Y-91481335D01*
X50100000Y-116182900D02*
X50100000Y-108117100D01*
X50100000Y-116617100D02*
X50100000Y-127000000D01*
X50100000Y-108117100D02*
X50317100Y-107900000D01*
X50100000Y-127000000D02*
X50100000Y-136200000D01*
X46693750Y-100715696D02*
X48009446Y-99400000D01*
X48009446Y-99400000D02*
X50317100Y-99400000D01*
X46693750Y-127668778D02*
X46850268Y-127825296D01*
X46693750Y-109700056D02*
X48493806Y-107900000D01*
X49291804Y-127825296D02*
X49291804Y-127808196D01*
%TO.N,+5V*%
X43500000Y-107200000D02*
X43500000Y-98600000D01*
X45193750Y-133118778D02*
X44712528Y-133600000D01*
X45250000Y-97181335D02*
X43831335Y-98600000D01*
X43865583Y-124134417D02*
X43500000Y-124500000D01*
X44712528Y-133600000D02*
X43500000Y-133600000D01*
X45193750Y-142103139D02*
X45193750Y-142806250D01*
X43643806Y-116700000D02*
X43500000Y-116700000D01*
X43500000Y-144500000D02*
X43500000Y-133600000D01*
X43500000Y-133600000D02*
X43500000Y-124500000D01*
X43787500Y-151087500D02*
X45193750Y-151087500D01*
X43500000Y-124500000D02*
X43500000Y-116700000D01*
X43831335Y-98600000D02*
X43500000Y-98600000D01*
X43500000Y-144500000D02*
X43500000Y-150800000D01*
X43500000Y-89475000D02*
X45250000Y-87725000D01*
X43500000Y-150800000D02*
X43787500Y-151087500D01*
X43500000Y-116700000D02*
X43500000Y-107200000D01*
X45193750Y-106165696D02*
X44159446Y-107200000D01*
X45193750Y-115150056D02*
X43643806Y-116700000D01*
X45193750Y-142806250D02*
X43500000Y-144500000D01*
X45193750Y-124134417D02*
X43865583Y-124134417D01*
X44159446Y-107200000D02*
X43500000Y-107200000D01*
D25*
%TO.N,Row 0*%
X53941024Y-97441346D02*
X53941024Y-100784000D01*
X82510000Y-116800000D02*
X97110000Y-116800000D01*
X78200000Y-116800000D02*
X80010000Y-114990000D01*
X55302370Y-96080000D02*
X53941024Y-97441346D01*
X75800000Y-116800000D02*
X78200000Y-116800000D01*
X53941024Y-100784000D02*
X54791000Y-101633976D01*
X54791000Y-107178500D02*
X61912500Y-114300000D01*
X80010000Y-114300000D02*
X82510000Y-116800000D01*
X97110000Y-116800000D02*
X99410000Y-114500000D01*
X80010000Y-114990000D02*
X80010000Y-114300000D01*
X56380000Y-96080000D02*
X55302370Y-96080000D01*
X54791000Y-101633976D02*
X54791000Y-107178500D01*
%TO.N,Row 1*%
X60960000Y-130957024D02*
X60960000Y-133350000D01*
X50868100Y-97731900D02*
X50868100Y-120865124D01*
X56380000Y-93540000D02*
X55060000Y-93540000D01*
X50868100Y-120865124D02*
X60960000Y-130957024D01*
X55060000Y-93540000D02*
X50868100Y-97731900D01*
%TO.N,Row 2*%
X57443000Y-92063000D02*
X57443000Y-101751811D01*
X56380000Y-91000000D02*
X57443000Y-92063000D01*
X57443000Y-101751811D02*
X63900000Y-108208811D01*
X63900000Y-108208811D02*
X63900000Y-143910000D01*
X63900000Y-143910000D02*
X66675000Y-146685000D01*
%TO.N,+3V3*%
X62840000Y-82000000D02*
X56380000Y-88460000D01*
X77240000Y-82000000D02*
X62840000Y-82000000D01*
%TO.N,/SDA*%
X76200000Y-85725000D02*
X76200000Y-89795000D01*
X76200000Y-89795000D02*
X72455000Y-93540000D01*
%TO.N,Column 0*%
X59690000Y-99695000D02*
X59690000Y-95310000D01*
X59690000Y-95310000D02*
X71620000Y-83380000D01*
%TO.N,Column 1*%
X70200000Y-87340000D02*
X71620000Y-85920000D01*
X70200000Y-88100000D02*
X70200000Y-87340000D01*
%TO.N,EN1*%
X69600000Y-86700000D02*
X69600000Y-88980000D01*
X69600000Y-88980000D02*
X71620000Y-91000000D01*
%TO.N,EN2*%
X70300000Y-97300000D02*
X71620000Y-98620000D01*
X79500000Y-94800000D02*
X71200000Y-94800000D01*
X71200000Y-94800000D02*
X70300000Y-95700000D01*
X70300000Y-95700000D02*
X70300000Y-97300000D01*
X79700000Y-94600000D02*
X79500000Y-94800000D01*
D26*
%TO.N,Net-(LED1-DIN)*%
X45193750Y-136478361D02*
X45193750Y-136653139D01*
D27*
X46693750Y-133118778D02*
X46693750Y-134978361D01*
X46693750Y-134978361D02*
X45193750Y-136478361D01*
%TO.N,Net-(LED1-DOUT)*%
X46693750Y-142103139D02*
X46693750Y-143962722D01*
D26*
X45193750Y-145462722D02*
X45193750Y-145637500D01*
D27*
X46693750Y-143962722D02*
X45193750Y-145462722D01*
%TO.N,Net-(LED2-DOUT)*%
X46750000Y-90231335D02*
X45250000Y-91731335D01*
X46750000Y-87725000D02*
X46750000Y-90231335D01*
%TO.N,Net-(LED2-DIN)*%
X45250000Y-82275000D02*
X46251000Y-81274000D01*
X46251000Y-81274000D02*
X49074000Y-81274000D01*
X49074000Y-81274000D02*
X52500000Y-84700000D01*
%TO.N,Net-(LED4-DOUT)*%
X45193750Y-109700056D02*
X45193750Y-107842742D01*
X45193750Y-107842742D02*
X46693750Y-106342742D01*
D26*
X46693750Y-106342742D02*
X46693750Y-106165696D01*
D27*
%TO.N,Net-(LED5-DOUT)*%
X46693750Y-115150056D02*
X46693750Y-117009639D01*
D26*
X45193750Y-118509639D02*
X45193750Y-118684417D01*
D27*
X46693750Y-117009639D02*
X45193750Y-118509639D01*
D26*
%TO.N,Net-(LED6-DOUT)*%
X46693750Y-124311463D02*
X46693750Y-124134417D01*
D27*
X45193750Y-127668778D02*
X45193750Y-125811463D01*
X45193750Y-125811463D02*
X46693750Y-124311463D01*
D26*
%TO.N,+5V*%
X45250000Y-87725000D02*
X45250000Y-89340000D01*
X45250000Y-89340000D02*
X45560000Y-89650000D01*
D27*
%TO.N,Net-(LED3-DOUT)*%
X46750000Y-98350000D02*
X45193750Y-99906250D01*
X46750000Y-97181335D02*
X46750000Y-98350000D01*
X45193750Y-99906250D02*
X45193750Y-100715696D01*
D26*
%TO.N,+5V*%
X43500000Y-90310000D02*
X43500000Y-89475000D01*
X43500000Y-98600000D02*
X43500000Y-90310000D01*
D25*
%TO.N,+3V3*%
X84200000Y-88960000D02*
X86000000Y-88960000D01*
%TO.N,/SCL*%
X72455000Y-96080000D02*
X83920000Y-96080000D01*
X88000000Y-87000000D02*
X86580000Y-87000000D01*
X88000000Y-92000000D02*
X88000000Y-87000000D01*
X83920000Y-96080000D02*
X88000000Y-92000000D01*
X86580000Y-87000000D02*
X86000000Y-86420000D01*
%TD*%
%TA.AperFunction,NonConductor*%
G36*
X49455703Y-82540739D02*
G01*
X49462177Y-82546767D01*
X50600038Y-83684629D01*
X51674205Y-84758796D01*
X51707690Y-84820119D01*
X51708141Y-84822286D01*
X51730261Y-84933489D01*
X51730264Y-84933501D01*
X51790137Y-85078048D01*
X51797606Y-85147517D01*
X51766331Y-85209996D01*
X51706241Y-85245648D01*
X51675576Y-85249500D01*
X49374500Y-85249500D01*
X49307461Y-85229815D01*
X49261706Y-85177011D01*
X49250500Y-85125500D01*
X49250500Y-82634452D01*
X49270185Y-82567413D01*
X49322989Y-82521658D01*
X49392147Y-82511714D01*
X49455703Y-82540739D01*
G37*
%TD.AperFunction*%
%TA.AperFunction,NonConductor*%
G36*
X70276834Y-85674915D02*
G01*
X70332767Y-85716787D01*
X70357184Y-85782251D01*
X70357500Y-85791097D01*
X70357500Y-85839361D01*
X70357499Y-85839361D01*
X70389271Y-86039960D01*
X70385966Y-86065526D01*
X70386612Y-86091304D01*
X70381561Y-86099611D01*
X70380316Y-86109253D01*
X70363712Y-86128977D01*
X70350320Y-86151009D01*
X70341581Y-86155267D01*
X70335320Y-86162705D01*
X70310687Y-86170321D01*
X70287510Y-86181615D01*
X70277854Y-86180472D01*
X70268568Y-86183344D01*
X70243730Y-86176434D01*
X70218125Y-86173405D01*
X70207834Y-86166449D01*
X70201255Y-86164619D01*
X70187965Y-86155072D01*
X70183344Y-86151266D01*
X70110289Y-86078211D01*
X70027390Y-86022820D01*
X70022602Y-86018876D01*
X70006325Y-85994891D01*
X69987739Y-85972651D01*
X69986945Y-85966332D01*
X69983369Y-85961062D01*
X69982643Y-85932082D01*
X69979032Y-85903326D01*
X69981780Y-85897581D01*
X69981621Y-85891214D01*
X69996675Y-85866447D01*
X70009186Y-85840298D01*
X70013717Y-85835517D01*
X70145821Y-85703413D01*
X70207142Y-85669931D01*
X70276834Y-85674915D01*
G37*
%TD.AperFunction*%
%TA.AperFunction,NonConductor*%
G36*
X87342539Y-87620185D02*
G01*
X87388294Y-87672989D01*
X87399500Y-87724500D01*
X87399500Y-88215444D01*
X87379815Y-88282483D01*
X87327011Y-88328238D01*
X87257853Y-88338182D01*
X87194297Y-88309157D01*
X87165016Y-88271740D01*
X87155050Y-88252182D01*
X87030109Y-88080213D01*
X86879790Y-87929894D01*
X86879785Y-87929890D01*
X86735165Y-87824818D01*
X86692499Y-87769489D01*
X86686520Y-87699875D01*
X86719125Y-87638080D01*
X86779964Y-87603723D01*
X86808050Y-87600500D01*
X87275500Y-87600500D01*
X87342539Y-87620185D01*
G37*
%TD.AperFunction*%
%TA.AperFunction,NonConductor*%
G36*
X45607586Y-80820185D02*
G01*
X45653341Y-80872989D01*
X45663285Y-80942147D01*
X45634260Y-81005703D01*
X45628227Y-81012182D01*
X45577226Y-81063182D01*
X45515903Y-81096666D01*
X45489546Y-81099500D01*
X44883821Y-81099500D01*
X44769945Y-81114491D01*
X44769937Y-81114493D01*
X44628237Y-81173187D01*
X44506556Y-81266556D01*
X44413187Y-81388237D01*
X44354493Y-81529936D01*
X44354492Y-81529938D01*
X44339500Y-81643822D01*
X44339500Y-82781428D01*
X44319815Y-82848467D01*
X44289898Y-82880628D01*
X44190144Y-82955440D01*
X44190143Y-82955441D01*
X44066305Y-83089631D01*
X44066300Y-83089637D01*
X43968802Y-83244022D01*
X43968802Y-83244023D01*
X43900859Y-83413513D01*
X43900857Y-83413523D01*
X43864719Y-83592505D01*
X43861579Y-83775086D01*
X43891539Y-83955203D01*
X43891542Y-83955216D01*
X43953613Y-84126936D01*
X43953615Y-84126939D01*
X43961025Y-84139656D01*
X43962066Y-84141441D01*
X43962123Y-84141540D01*
X43966240Y-84148620D01*
X43966309Y-84148870D01*
X43982555Y-84176679D01*
X43982691Y-84176912D01*
X43983362Y-84179644D01*
X43999496Y-84239252D01*
X43999493Y-84279598D01*
X43999500Y-84279703D01*
X43999500Y-85720693D01*
X43999499Y-85728584D01*
X43999493Y-85728608D01*
X43999495Y-85758542D01*
X43999495Y-85760769D01*
X43999412Y-85761050D01*
X43982564Y-85823301D01*
X43962780Y-85857166D01*
X43961927Y-85858875D01*
X43953650Y-85873080D01*
X43953648Y-85873084D01*
X43891581Y-86044792D01*
X43891577Y-86044808D01*
X43861619Y-86224918D01*
X43864759Y-86407492D01*
X43900894Y-86586465D01*
X43900897Y-86586476D01*
X43968837Y-86755957D01*
X43968837Y-86755958D01*
X44066332Y-86910338D01*
X44066334Y-86910341D01*
X44066337Y-86910345D01*
X44190172Y-87044531D01*
X44289896Y-87119319D01*
X44331719Y-87175288D01*
X44339500Y-87218521D01*
X44339500Y-87522769D01*
X44319815Y-87589808D01*
X44303181Y-87610450D01*
X43212181Y-88701450D01*
X43150858Y-88734935D01*
X43081166Y-88729951D01*
X43025233Y-88688079D01*
X43000816Y-88622615D01*
X43000500Y-88613769D01*
X43000500Y-80924500D01*
X43020185Y-80857461D01*
X43072989Y-80811706D01*
X43124500Y-80800500D01*
X45540547Y-80800500D01*
X45607586Y-80820185D01*
G37*
%TD.AperFunction*%
%TA.AperFunction,NonConductor*%
G36*
X47627650Y-88645719D02*
G01*
X47653297Y-88644192D01*
X47661854Y-88648997D01*
X47671626Y-88649934D01*
X47691814Y-88665822D01*
X47714218Y-88678403D01*
X47718820Y-88687074D01*
X47726532Y-88693144D01*
X47734926Y-88717424D01*
X47746971Y-88740120D01*
X47748715Y-88757308D01*
X47749362Y-88759178D01*
X47749039Y-88760503D01*
X47749500Y-88765036D01*
X47749500Y-89619105D01*
X47729815Y-89686144D01*
X47713181Y-89706786D01*
X47587181Y-89832786D01*
X47525858Y-89866271D01*
X47456166Y-89861287D01*
X47400233Y-89819415D01*
X47375816Y-89753951D01*
X47375500Y-89745105D01*
X47375500Y-88885094D01*
X47384547Y-88854282D01*
X47392134Y-88823057D01*
X47394512Y-88820346D01*
X47395185Y-88818055D01*
X47413961Y-88795322D01*
X47418756Y-88790752D01*
X47493444Y-88733444D01*
X47532989Y-88681906D01*
X47539961Y-88675264D01*
X47562799Y-88663499D01*
X47583551Y-88648347D01*
X47593350Y-88647763D01*
X47602075Y-88643269D01*
X47627650Y-88645719D01*
G37*
%TD.AperFunction*%
%TA.AperFunction,NonConductor*%
G36*
X44500825Y-89624766D02*
G01*
X44513228Y-89625653D01*
X44531763Y-89639528D01*
X44552662Y-89649501D01*
X44565394Y-89664705D01*
X44569161Y-89667525D01*
X44572146Y-89672768D01*
X44575322Y-89676560D01*
X44580611Y-89685103D01*
X44584916Y-89695495D01*
X44612742Y-89737139D01*
X44613925Y-89738910D01*
X44613934Y-89738924D01*
X44667045Y-89818413D01*
X44813928Y-89965295D01*
X44840808Y-90005524D01*
X44850607Y-90029182D01*
X44938210Y-90160288D01*
X44938213Y-90160292D01*
X45049707Y-90271786D01*
X45049711Y-90271789D01*
X45134933Y-90328733D01*
X45179738Y-90382345D01*
X45188445Y-90451670D01*
X45158291Y-90514698D01*
X45098848Y-90551417D01*
X45066043Y-90555835D01*
X44883821Y-90555835D01*
X44769945Y-90570826D01*
X44769937Y-90570828D01*
X44628237Y-90629522D01*
X44506556Y-90722891D01*
X44472876Y-90766784D01*
X44448662Y-90784464D01*
X44426011Y-90804092D01*
X44420745Y-90804849D01*
X44416448Y-90807987D01*
X44386524Y-90809769D01*
X44356853Y-90814036D01*
X44352012Y-90811825D01*
X44346702Y-90812142D01*
X44320566Y-90797464D01*
X44293297Y-90785011D01*
X44290420Y-90780534D01*
X44285782Y-90777930D01*
X44271731Y-90751454D01*
X44255523Y-90726233D01*
X44254473Y-90718934D01*
X44253029Y-90716212D01*
X44250500Y-90691298D01*
X44250500Y-90614604D01*
X44259939Y-90567151D01*
X44262749Y-90560367D01*
X44269737Y-90543497D01*
X44300500Y-90388842D01*
X44300500Y-90231158D01*
X44300500Y-90231155D01*
X44300499Y-90231153D01*
X44269739Y-90076511D01*
X44269738Y-90076508D01*
X44269737Y-90076503D01*
X44259937Y-90052844D01*
X44250500Y-90005396D01*
X44250500Y-89837229D01*
X44270185Y-89770190D01*
X44286815Y-89749552D01*
X44382214Y-89654153D01*
X44402533Y-89643058D01*
X44420287Y-89628190D01*
X44432623Y-89626627D01*
X44443536Y-89620669D01*
X44466630Y-89622320D01*
X44489603Y-89619411D01*
X44500825Y-89624766D01*
G37*
%TD.AperFunction*%
%TA.AperFunction,NonConductor*%
G36*
X87346945Y-89603206D02*
G01*
X87390397Y-89657921D01*
X87399500Y-89704555D01*
X87399500Y-90755444D01*
X87379815Y-90822483D01*
X87327011Y-90868238D01*
X87257853Y-90878182D01*
X87194297Y-90849157D01*
X87165016Y-90811740D01*
X87155050Y-90792182D01*
X87030109Y-90620213D01*
X86879786Y-90469890D01*
X86707820Y-90344951D01*
X86707115Y-90344591D01*
X86699054Y-90340485D01*
X86648259Y-90292512D01*
X86631463Y-90224692D01*
X86653999Y-90158556D01*
X86699054Y-90119515D01*
X86707816Y-90115051D01*
X86793433Y-90052847D01*
X86879786Y-89990109D01*
X86879788Y-89990106D01*
X86879792Y-89990104D01*
X87030104Y-89839792D01*
X87030106Y-89839788D01*
X87030109Y-89839786D01*
X87138637Y-89690408D01*
X87155051Y-89667816D01*
X87165015Y-89648261D01*
X87212989Y-89597464D01*
X87280810Y-89580669D01*
X87346945Y-89603206D01*
G37*
%TD.AperFunction*%
%TA.AperFunction,NonConductor*%
G36*
X77006942Y-82620185D02*
G01*
X77027584Y-82636819D01*
X83715139Y-89324374D01*
X83715149Y-89324385D01*
X83719479Y-89328715D01*
X83719480Y-89328716D01*
X83831284Y-89440520D01*
X83831286Y-89440521D01*
X83831290Y-89440524D01*
X83924500Y-89494338D01*
X83968216Y-89519577D01*
X84077715Y-89548917D01*
X84120942Y-89560500D01*
X84120943Y-89560500D01*
X84714281Y-89560500D01*
X84781320Y-89580185D01*
X84824765Y-89628205D01*
X84844947Y-89667814D01*
X84844948Y-89667815D01*
X84969890Y-89839786D01*
X85120213Y-89990109D01*
X85292182Y-90115050D01*
X85300946Y-90119516D01*
X85351742Y-90167491D01*
X85368536Y-90235312D01*
X85345998Y-90301447D01*
X85300946Y-90340484D01*
X85292182Y-90344949D01*
X85120213Y-90469890D01*
X84969890Y-90620213D01*
X84844951Y-90792179D01*
X84748444Y-90981585D01*
X84682753Y-91183760D01*
X84649500Y-91393713D01*
X84649500Y-91606286D01*
X84677485Y-91782981D01*
X84682754Y-91816243D01*
X84747635Y-92015926D01*
X84748444Y-92018414D01*
X84844951Y-92207820D01*
X84969890Y-92379786D01*
X85120213Y-92530109D01*
X85292179Y-92655048D01*
X85292181Y-92655049D01*
X85292184Y-92655051D01*
X85481588Y-92751557D01*
X85683757Y-92817246D01*
X85893713Y-92850500D01*
X85893714Y-92850500D01*
X86000902Y-92850500D01*
X86067941Y-92870185D01*
X86113696Y-92922989D01*
X86123640Y-92992147D01*
X86094615Y-93055703D01*
X86088583Y-93062181D01*
X83707584Y-95443181D01*
X83646261Y-95476666D01*
X83619903Y-95479500D01*
X80233371Y-95479500D01*
X80166332Y-95459815D01*
X80120577Y-95407011D01*
X80110633Y-95337853D01*
X80139658Y-95274297D01*
X80164480Y-95252398D01*
X80196589Y-95230943D01*
X80210289Y-95221789D01*
X80321789Y-95110289D01*
X80409394Y-94979179D01*
X80469737Y-94833497D01*
X80500500Y-94678842D01*
X80500500Y-94521158D01*
X80500500Y-94521155D01*
X80500499Y-94521153D01*
X80474506Y-94390480D01*
X80469737Y-94366503D01*
X80451710Y-94322981D01*
X80409397Y-94220827D01*
X80409390Y-94220814D01*
X80321789Y-94089711D01*
X80321786Y-94089707D01*
X80210292Y-93978213D01*
X80210288Y-93978210D01*
X80079185Y-93890609D01*
X80079172Y-93890602D01*
X79933501Y-93830264D01*
X79933489Y-93830261D01*
X79778845Y-93799500D01*
X79778842Y-93799500D01*
X79621158Y-93799500D01*
X79621155Y-93799500D01*
X79466510Y-93830261D01*
X79466498Y-93830264D01*
X79320827Y-93890602D01*
X79320814Y-93890609D01*
X79189711Y-93978210D01*
X79189707Y-93978213D01*
X79078213Y-94089707D01*
X79078207Y-94089715D01*
X79041675Y-94144390D01*
X78988063Y-94189196D01*
X78938573Y-94199500D01*
X74292738Y-94199500D01*
X74225699Y-94179815D01*
X74179944Y-94127011D01*
X74169120Y-94065770D01*
X74171500Y-94035534D01*
X74171500Y-92724097D01*
X74191185Y-92657058D01*
X74207819Y-92636416D01*
X75373584Y-91470651D01*
X76680520Y-90163716D01*
X76759577Y-90026785D01*
X76800501Y-89874057D01*
X76800501Y-89715942D01*
X76800501Y-89708347D01*
X76800500Y-89708329D01*
X76800500Y-86304765D01*
X76820185Y-86237726D01*
X76821398Y-86235874D01*
X76839980Y-86208065D01*
X76909394Y-86104179D01*
X76969737Y-85958497D01*
X77000500Y-85803842D01*
X77000500Y-85646158D01*
X77000500Y-85646155D01*
X77000499Y-85646153D01*
X76969738Y-85491510D01*
X76969737Y-85491503D01*
X76942884Y-85426673D01*
X76909397Y-85345827D01*
X76909390Y-85345814D01*
X76821789Y-85214711D01*
X76821786Y-85214707D01*
X76710292Y-85103213D01*
X76710288Y-85103210D01*
X76579185Y-85015609D01*
X76579172Y-85015602D01*
X76433501Y-84955264D01*
X76433489Y-84955261D01*
X76278845Y-84924500D01*
X76278842Y-84924500D01*
X76121158Y-84924500D01*
X76121155Y-84924500D01*
X75966510Y-84955261D01*
X75966498Y-84955264D01*
X75820827Y-85015602D01*
X75820814Y-85015609D01*
X75689711Y-85103210D01*
X75689707Y-85103213D01*
X75578213Y-85214707D01*
X75578210Y-85214711D01*
X75490609Y-85345814D01*
X75490602Y-85345827D01*
X75430264Y-85491498D01*
X75430261Y-85491510D01*
X75399500Y-85646153D01*
X75399500Y-85803846D01*
X75430261Y-85958489D01*
X75430264Y-85958501D01*
X75490602Y-86104172D01*
X75490609Y-86104185D01*
X75578602Y-86235874D01*
X75599480Y-86302551D01*
X75599500Y-86304765D01*
X75599500Y-89494902D01*
X75579815Y-89561941D01*
X75563181Y-89582583D01*
X74383181Y-90762583D01*
X74321858Y-90796068D01*
X74252166Y-90791084D01*
X74196233Y-90749212D01*
X74171816Y-90683748D01*
X74171500Y-90674902D01*
X74171500Y-90144473D01*
X74171499Y-90144458D01*
X74168587Y-90107453D01*
X74168586Y-90107447D01*
X74122565Y-89949045D01*
X74122564Y-89949042D01*
X74122564Y-89949041D01*
X74038592Y-89807053D01*
X74038590Y-89807051D01*
X74038587Y-89807047D01*
X73921952Y-89690412D01*
X73921944Y-89690406D01*
X73883746Y-89667816D01*
X73865003Y-89656731D01*
X73817321Y-89605663D01*
X73804817Y-89536921D01*
X73831462Y-89472332D01*
X73865004Y-89443268D01*
X73869651Y-89440520D01*
X73921947Y-89409592D01*
X74038592Y-89292947D01*
X74122564Y-89150959D01*
X74168587Y-88992548D01*
X74171500Y-88955534D01*
X74171500Y-87604466D01*
X74168587Y-87567452D01*
X74155605Y-87522769D01*
X74122565Y-87409045D01*
X74122564Y-87409042D01*
X74122564Y-87409041D01*
X74038592Y-87267053D01*
X74038590Y-87267051D01*
X74038587Y-87267047D01*
X73921952Y-87150412D01*
X73921944Y-87150406D01*
X73865004Y-87116732D01*
X73817321Y-87065663D01*
X73804817Y-86996921D01*
X73831462Y-86932332D01*
X73865004Y-86903268D01*
X73921947Y-86869592D01*
X74038592Y-86752947D01*
X74122564Y-86610959D01*
X74168587Y-86452548D01*
X74171500Y-86415534D01*
X74171500Y-85064466D01*
X74168587Y-85027452D01*
X74165146Y-85015609D01*
X74122565Y-84869045D01*
X74122564Y-84869042D01*
X74122564Y-84869041D01*
X74038592Y-84727053D01*
X74038590Y-84727051D01*
X74038587Y-84727047D01*
X73921952Y-84610412D01*
X73921944Y-84610406D01*
X73865004Y-84576732D01*
X73817321Y-84525663D01*
X73804817Y-84456921D01*
X73831462Y-84392332D01*
X73865004Y-84363268D01*
X73921947Y-84329592D01*
X74038592Y-84212947D01*
X74122564Y-84070959D01*
X74168587Y-83912548D01*
X74171500Y-83875534D01*
X74171500Y-82724500D01*
X74191185Y-82657461D01*
X74243989Y-82611706D01*
X74295500Y-82600500D01*
X76939903Y-82600500D01*
X77006942Y-82620185D01*
G37*
%TD.AperFunction*%
%TA.AperFunction,NonConductor*%
G36*
X53931554Y-86757534D02*
G01*
X53956354Y-86760487D01*
X53970088Y-86768849D01*
X53974637Y-86770185D01*
X53981917Y-86776051D01*
X53986500Y-86778842D01*
X53991084Y-86782623D01*
X54078053Y-86869592D01*
X54143315Y-86908188D01*
X54150776Y-86914342D01*
X54189967Y-86972185D01*
X54191665Y-87042034D01*
X54155330Y-87101712D01*
X54134996Y-87116732D01*
X54078053Y-87150408D01*
X54078047Y-87150412D01*
X53961412Y-87267047D01*
X53961405Y-87267056D01*
X53877435Y-87409042D01*
X53877434Y-87409045D01*
X53831413Y-87567447D01*
X53831412Y-87567453D01*
X53828500Y-87604458D01*
X53828500Y-88955541D01*
X53831412Y-88992546D01*
X53831413Y-88992552D01*
X53877434Y-89150954D01*
X53877435Y-89150957D01*
X53961405Y-89292943D01*
X53961412Y-89292952D01*
X54078047Y-89409587D01*
X54078050Y-89409589D01*
X54078053Y-89409592D01*
X54130351Y-89440521D01*
X54134996Y-89443268D01*
X54182679Y-89494338D01*
X54195182Y-89563079D01*
X54168536Y-89627669D01*
X54134996Y-89656731D01*
X54101469Y-89676560D01*
X54078053Y-89690408D01*
X54078047Y-89690412D01*
X53961412Y-89807047D01*
X53961405Y-89807056D01*
X53877435Y-89949042D01*
X53877434Y-89949045D01*
X53831413Y-90107447D01*
X53831412Y-90107453D01*
X53828500Y-90144458D01*
X53828500Y-91495541D01*
X53831412Y-91532546D01*
X53831413Y-91532552D01*
X53877434Y-91690954D01*
X53877435Y-91690957D01*
X53877436Y-91690959D01*
X53879404Y-91694286D01*
X53961405Y-91832943D01*
X53961412Y-91832952D01*
X54078047Y-91949587D01*
X54078050Y-91949589D01*
X54078053Y-91949592D01*
X54134996Y-91983268D01*
X54182679Y-92034338D01*
X54195182Y-92103079D01*
X54168536Y-92167669D01*
X54134996Y-92196732D01*
X54078053Y-92230408D01*
X54078047Y-92230412D01*
X53961412Y-92347047D01*
X53961405Y-92347056D01*
X53877435Y-92489042D01*
X53877434Y-92489045D01*
X53831413Y-92647447D01*
X53831412Y-92647453D01*
X53828500Y-92684458D01*
X53828500Y-93870903D01*
X53808815Y-93937942D01*
X53792181Y-93958584D01*
X50962181Y-96788584D01*
X50900858Y-96822069D01*
X50831166Y-96817085D01*
X50775233Y-96775213D01*
X50750816Y-96709749D01*
X50750500Y-96700903D01*
X50750500Y-91407414D01*
X50721659Y-91262427D01*
X50721658Y-91262426D01*
X50721658Y-91262422D01*
X50714252Y-91244543D01*
X50665087Y-91125846D01*
X50665080Y-91125833D01*
X50582952Y-91002920D01*
X50554296Y-90974264D01*
X50478416Y-90898384D01*
X49908765Y-90328733D01*
X49286819Y-89706786D01*
X49253334Y-89645463D01*
X49250500Y-89619105D01*
X49250500Y-86874500D01*
X49270185Y-86807461D01*
X49322989Y-86761706D01*
X49374500Y-86750500D01*
X53907598Y-86750500D01*
X53931554Y-86757534D01*
G37*
%TD.AperFunction*%
%TA.AperFunction,NonConductor*%
G36*
X70343633Y-82608424D02*
G01*
X70371357Y-82613222D01*
X70376713Y-82618137D01*
X70383685Y-82620185D01*
X70402102Y-82641439D01*
X70422833Y-82660466D01*
X70424681Y-82667496D01*
X70429440Y-82672989D01*
X70433443Y-82700833D01*
X70440595Y-82728040D01*
X70438825Y-82738264D01*
X70439384Y-82742147D01*
X70434577Y-82762818D01*
X70388587Y-82904362D01*
X70357500Y-83100639D01*
X70357500Y-83299360D01*
X70388587Y-83495639D01*
X70430470Y-83624544D01*
X70432465Y-83694385D01*
X70400220Y-83750542D01*
X59321286Y-94829478D01*
X59209481Y-94941282D01*
X59209479Y-94941285D01*
X59173910Y-95002894D01*
X59173909Y-95002896D01*
X59130423Y-95078214D01*
X59130423Y-95078215D01*
X59089499Y-95230943D01*
X59089499Y-95230945D01*
X59089499Y-95399046D01*
X59089500Y-95399059D01*
X59089500Y-98072583D01*
X59069815Y-98139622D01*
X59021796Y-98183066D01*
X58842565Y-98274390D01*
X58824945Y-98283368D01*
X58614774Y-98436066D01*
X58614768Y-98436071D01*
X58431071Y-98619768D01*
X58431066Y-98619774D01*
X58278368Y-98829945D01*
X58277985Y-98830697D01*
X58277762Y-98830932D01*
X58275821Y-98834101D01*
X58275155Y-98833693D01*
X58230010Y-98881493D01*
X58162189Y-98898288D01*
X58096054Y-98875750D01*
X58052603Y-98821035D01*
X58043500Y-98774402D01*
X58043500Y-92152059D01*
X58043501Y-92152046D01*
X58043501Y-91983945D01*
X58043501Y-91983943D01*
X58002577Y-91831215D01*
X57966204Y-91768216D01*
X57966204Y-91768215D01*
X57923522Y-91694287D01*
X57923521Y-91694286D01*
X57923520Y-91694284D01*
X57811716Y-91582480D01*
X57811715Y-91582479D01*
X57807385Y-91578149D01*
X57807374Y-91578139D01*
X57599778Y-91370543D01*
X57566293Y-91309220D01*
X57569527Y-91244546D01*
X57611413Y-91115636D01*
X57642500Y-90919361D01*
X57642500Y-90720639D01*
X57611413Y-90524364D01*
X57565125Y-90381902D01*
X57550006Y-90335370D01*
X57550005Y-90335367D01*
X57496906Y-90231155D01*
X57459787Y-90158306D01*
X57342981Y-89997536D01*
X57202464Y-89857019D01*
X57150706Y-89819415D01*
X57122938Y-89799240D01*
X57116175Y-89793960D01*
X57112000Y-89790461D01*
X57011947Y-89690408D01*
X56946259Y-89651560D01*
X56938477Y-89645038D01*
X56924510Y-89624073D01*
X56907321Y-89605663D01*
X56905471Y-89595492D01*
X56899740Y-89586890D01*
X56899324Y-89561702D01*
X56894817Y-89536921D01*
X56898758Y-89527366D01*
X56898588Y-89517030D01*
X56911856Y-89495616D01*
X56921462Y-89472332D01*
X56931874Y-89463309D01*
X56935389Y-89457638D01*
X56942127Y-89454425D01*
X56955004Y-89443268D01*
X56959651Y-89440520D01*
X57011947Y-89409592D01*
X57108148Y-89313389D01*
X57122939Y-89300758D01*
X57130881Y-89294988D01*
X57202464Y-89242981D01*
X57342981Y-89102464D01*
X57459787Y-88941694D01*
X57550005Y-88764632D01*
X57611413Y-88575636D01*
X57642500Y-88379361D01*
X57642500Y-88180639D01*
X57634074Y-88127443D01*
X57643028Y-88058154D01*
X57668863Y-88020370D01*
X63052417Y-82636819D01*
X63113740Y-82603334D01*
X63140098Y-82600500D01*
X70316646Y-82600500D01*
X70343633Y-82608424D01*
G37*
%TD.AperFunction*%
%TA.AperFunction,NonConductor*%
G36*
X48543334Y-91101882D02*
G01*
X48587681Y-91130383D01*
X49213181Y-91755883D01*
X49246666Y-91817206D01*
X49249500Y-91843564D01*
X49249500Y-98525500D01*
X49229815Y-98592539D01*
X49177011Y-98638294D01*
X49125500Y-98649500D01*
X47935526Y-98649500D01*
X47790538Y-98678340D01*
X47790528Y-98678343D01*
X47653957Y-98734912D01*
X47653944Y-98734919D01*
X47531030Y-98817048D01*
X47531026Y-98817051D01*
X46842634Y-99505443D01*
X46840493Y-99506612D01*
X46839243Y-99508708D01*
X46809988Y-99523268D01*
X46781311Y-99538928D01*
X46778199Y-99539091D01*
X46776693Y-99539841D01*
X46751652Y-99540484D01*
X46741418Y-99541021D01*
X46740443Y-99540913D01*
X46734727Y-99540196D01*
X46733905Y-99540196D01*
X46729916Y-99539758D01*
X46700237Y-99527385D01*
X46670011Y-99516412D01*
X46668193Y-99514027D01*
X46665426Y-99512874D01*
X46647146Y-99486418D01*
X46627653Y-99460847D01*
X46627412Y-99457858D01*
X46625708Y-99455391D01*
X46624633Y-99423251D01*
X46622059Y-99391201D01*
X46623473Y-99388556D01*
X46623373Y-99385560D01*
X46639840Y-99357947D01*
X46655006Y-99329588D01*
X46655642Y-99328946D01*
X47148729Y-98835860D01*
X47148733Y-98835858D01*
X47235858Y-98748733D01*
X47266584Y-98702746D01*
X47287254Y-98671813D01*
X47287256Y-98671810D01*
X47304310Y-98646288D01*
X47304310Y-98646287D01*
X47304312Y-98646285D01*
X47351463Y-98532451D01*
X47375500Y-98411607D01*
X47375500Y-98341429D01*
X47395185Y-98274390D01*
X47424012Y-98243054D01*
X47493444Y-98189779D01*
X47586812Y-98068098D01*
X47645507Y-97926398D01*
X47660500Y-97812512D01*
X47660499Y-96674847D01*
X47680184Y-96607809D01*
X47710102Y-96575645D01*
X47809834Y-96500854D01*
X47857952Y-96448716D01*
X47933663Y-96366679D01*
X47933664Y-96366677D01*
X47933670Y-96366671D01*
X48031170Y-96212289D01*
X48099114Y-96042808D01*
X48135257Y-95863828D01*
X48138405Y-95681262D01*
X48108453Y-95501142D01*
X48108451Y-95501138D01*
X48108451Y-95501135D01*
X48046390Y-95329417D01*
X48037998Y-95315014D01*
X48037932Y-95314901D01*
X48033754Y-95307713D01*
X48033679Y-95307437D01*
X48017374Y-95279533D01*
X48017293Y-95279392D01*
X48016545Y-95276350D01*
X48000500Y-95217077D01*
X48000501Y-95184908D01*
X48000499Y-95184903D01*
X48000500Y-95177324D01*
X48000499Y-95177290D01*
X48000499Y-93695606D01*
X48004720Y-93679966D01*
X48004104Y-93665923D01*
X48011060Y-93648738D01*
X48011157Y-93647395D01*
X48014210Y-93640959D01*
X48017332Y-93633247D01*
X48017343Y-93633207D01*
X48020188Y-93628324D01*
X48020200Y-93628305D01*
X48020205Y-93628308D01*
X48020216Y-93628298D01*
X48020274Y-93628175D01*
X48033669Y-93605257D01*
X48033670Y-93605251D01*
X48037589Y-93598547D01*
X48037896Y-93597928D01*
X48046449Y-93583250D01*
X48108502Y-93411523D01*
X48138447Y-93231401D01*
X48135292Y-93048833D01*
X48099143Y-92869853D01*
X48099141Y-92869849D01*
X48099140Y-92869844D01*
X48031196Y-92700376D01*
X48031193Y-92700371D01*
X48029889Y-92698306D01*
X47933689Y-92545991D01*
X47809851Y-92411809D01*
X47752388Y-92368716D01*
X47710104Y-92337006D01*
X47668281Y-92281037D01*
X47660500Y-92237803D01*
X47660500Y-91933564D01*
X47680185Y-91866525D01*
X47696819Y-91845883D01*
X48412319Y-91130383D01*
X48473642Y-91096898D01*
X48543334Y-91101882D01*
G37*
%TD.AperFunction*%
%TA.AperFunction,NonConductor*%
G36*
X45626252Y-98376519D02*
G01*
X45672007Y-98429323D01*
X45681951Y-98498481D01*
X45652926Y-98562037D01*
X45646894Y-98568515D01*
X44795020Y-99420389D01*
X44795017Y-99420392D01*
X44762466Y-99452943D01*
X44707892Y-99507516D01*
X44686059Y-99540193D01*
X44686044Y-99540215D01*
X44682513Y-99545497D01*
X44628891Y-99590291D01*
X44626882Y-99591144D01*
X44571992Y-99613882D01*
X44571985Y-99613885D01*
X44449985Y-99707498D01*
X44384816Y-99732691D01*
X44316371Y-99718652D01*
X44266382Y-99669837D01*
X44250500Y-99609121D01*
X44250500Y-99288821D01*
X44270185Y-99221782D01*
X44305616Y-99185714D01*
X44309751Y-99182952D01*
X45099548Y-98393152D01*
X45160871Y-98359668D01*
X45187229Y-98356834D01*
X45559213Y-98356834D01*
X45626252Y-98376519D01*
G37*
%TD.AperFunction*%
%TA.AperFunction,NonConductor*%
G36*
X53747834Y-95803915D02*
G01*
X53803767Y-95845787D01*
X53828184Y-95911251D01*
X53828500Y-95920097D01*
X53828500Y-96575541D01*
X53831412Y-96612546D01*
X53832551Y-96618778D01*
X53831005Y-96619060D01*
X53830829Y-96681091D01*
X53799633Y-96733500D01*
X53572310Y-96960824D01*
X53460505Y-97072628D01*
X53460503Y-97072630D01*
X53449129Y-97092332D01*
X53426566Y-97131413D01*
X53381447Y-97209561D01*
X53340523Y-97362289D01*
X53340523Y-97362291D01*
X53340523Y-97530392D01*
X53340524Y-97530405D01*
X53340524Y-100460500D01*
X53320839Y-100527539D01*
X53268035Y-100573294D01*
X53216524Y-100584500D01*
X53210098Y-100584500D01*
X52953506Y-100625140D01*
X52706423Y-100705422D01*
X52474945Y-100823368D01*
X52264774Y-100976066D01*
X52264768Y-100976071D01*
X52081071Y-101159768D01*
X52081066Y-101159774D01*
X51928368Y-101369945D01*
X51810422Y-101601423D01*
X51730139Y-101848506D01*
X51715073Y-101943635D01*
X51685144Y-102006770D01*
X51625832Y-102043701D01*
X51555970Y-102042703D01*
X51497737Y-102004093D01*
X51469623Y-101940130D01*
X51468600Y-101924237D01*
X51468600Y-98031997D01*
X51488285Y-97964958D01*
X51504919Y-97944316D01*
X53616819Y-95832416D01*
X53678142Y-95798931D01*
X53747834Y-95803915D01*
G37*
%TD.AperFunction*%
%TA.AperFunction,NonConductor*%
G36*
X56777147Y-99714169D02*
G01*
X56826904Y-99763219D01*
X56842500Y-99823423D01*
X56842500Y-101665141D01*
X56842499Y-101665159D01*
X56842499Y-101830865D01*
X56842498Y-101830865D01*
X56842499Y-101830868D01*
X56883423Y-101983596D01*
X56908860Y-102027654D01*
X56908860Y-102027655D01*
X56962475Y-102120520D01*
X56962481Y-102120528D01*
X57081349Y-102239396D01*
X57081355Y-102239401D01*
X57160873Y-102318919D01*
X57194358Y-102380242D01*
X57189374Y-102449934D01*
X57147502Y-102505867D01*
X57082038Y-102530284D01*
X57073192Y-102530600D01*
X57002894Y-102530600D01*
X57002888Y-102530600D01*
X57002883Y-102530601D01*
X56711203Y-102569001D01*
X56427005Y-102645152D01*
X56155205Y-102757734D01*
X56155189Y-102757742D01*
X55900410Y-102904840D01*
X55900394Y-102904851D01*
X55666990Y-103083948D01*
X55666983Y-103083954D01*
X55603181Y-103147757D01*
X55541858Y-103181242D01*
X55472166Y-103176258D01*
X55416233Y-103134386D01*
X55391816Y-103068922D01*
X55391500Y-103060076D01*
X55391500Y-101723036D01*
X55391501Y-101723023D01*
X55391501Y-101554920D01*
X55387341Y-101539395D01*
X55350577Y-101402192D01*
X55331962Y-101369949D01*
X55271524Y-101265266D01*
X55271518Y-101265258D01*
X54577843Y-100571583D01*
X54544358Y-100510260D01*
X54541524Y-100483902D01*
X54541524Y-99826500D01*
X54561209Y-99759461D01*
X54614013Y-99713706D01*
X54665524Y-99702500D01*
X56674526Y-99702500D01*
X56674534Y-99702500D01*
X56708772Y-99699805D01*
X56777147Y-99714169D01*
G37*
%TD.AperFunction*%
%TA.AperFunction,NonConductor*%
G36*
X51600405Y-102424439D02*
G01*
X51610247Y-102423024D01*
X51633509Y-102433647D01*
X51658143Y-102440500D01*
X51664759Y-102447918D01*
X51673803Y-102452049D01*
X51687628Y-102473562D01*
X51704647Y-102492645D01*
X51709055Y-102506904D01*
X51711577Y-102510827D01*
X51715073Y-102526364D01*
X51730140Y-102621493D01*
X51810422Y-102868576D01*
X51928368Y-103100054D01*
X52081066Y-103310225D01*
X52081071Y-103310231D01*
X52232759Y-103461919D01*
X52266244Y-103523242D01*
X52261260Y-103592934D01*
X52219388Y-103648867D01*
X52153924Y-103673284D01*
X52145078Y-103673600D01*
X51983313Y-103673600D01*
X51812086Y-103700720D01*
X51647211Y-103754290D01*
X51642706Y-103756157D01*
X51642107Y-103754713D01*
X51580196Y-103766325D01*
X51515462Y-103740033D01*
X51475219Y-103682917D01*
X51468600Y-103642947D01*
X51468600Y-102545762D01*
X51475804Y-102521225D01*
X51479082Y-102495866D01*
X51485484Y-102488260D01*
X51488285Y-102478723D01*
X51507606Y-102461980D01*
X51524078Y-102442414D01*
X51533577Y-102439476D01*
X51541089Y-102432968D01*
X51566398Y-102429328D01*
X51590829Y-102421775D01*
X51600405Y-102424439D01*
G37*
%TD.AperFunction*%
%TA.AperFunction,NonConductor*%
G36*
X49192539Y-100170185D02*
G01*
X49238294Y-100222989D01*
X49249500Y-100274500D01*
X49249500Y-107025500D01*
X49229815Y-107092539D01*
X49177011Y-107138294D01*
X49125500Y-107149500D01*
X48419882Y-107149500D01*
X48391048Y-107155234D01*
X48391049Y-107155235D01*
X48274899Y-107178339D01*
X48274889Y-107178342D01*
X48194887Y-107211479D01*
X48194888Y-107211480D01*
X48138312Y-107234915D01*
X48058220Y-107288431D01*
X48015388Y-107317049D01*
X46842634Y-108489803D01*
X46781311Y-108523288D01*
X46739504Y-108525156D01*
X46734727Y-108524556D01*
X46734725Y-108524556D01*
X46327570Y-108524556D01*
X46213695Y-108539546D01*
X46213687Y-108539549D01*
X46071987Y-108598243D01*
X46019235Y-108638721D01*
X45993238Y-108648770D01*
X45968613Y-108661826D01*
X45961098Y-108661195D01*
X45954066Y-108663914D01*
X45926764Y-108658313D01*
X45898988Y-108655983D01*
X45889559Y-108650682D01*
X45885621Y-108649875D01*
X45868222Y-108638688D01*
X45867722Y-108638304D01*
X45826543Y-108581859D01*
X45819250Y-108539960D01*
X45819250Y-108153193D01*
X45838935Y-108086154D01*
X45855565Y-108065516D01*
X46543567Y-107377513D01*
X46604890Y-107344029D01*
X46631248Y-107341195D01*
X47059928Y-107341195D01*
X47126845Y-107332385D01*
X47173813Y-107326203D01*
X47315513Y-107267508D01*
X47437194Y-107174140D01*
X47530562Y-107052459D01*
X47589257Y-106910759D01*
X47604250Y-106796873D01*
X47604249Y-105659290D01*
X47623934Y-105592252D01*
X47653846Y-105560093D01*
X47753605Y-105485275D01*
X47877441Y-105351081D01*
X47974941Y-105196689D01*
X48042883Y-105027197D01*
X48064104Y-104922099D01*
X48079022Y-104848214D01*
X48079022Y-104848212D01*
X48079023Y-104848208D01*
X48082166Y-104665633D01*
X48052209Y-104485506D01*
X47990141Y-104313776D01*
X47981657Y-104299215D01*
X47977495Y-104292054D01*
X47977418Y-104291772D01*
X47961342Y-104264262D01*
X47961042Y-104263746D01*
X47960280Y-104260646D01*
X47944249Y-104201436D01*
X47944249Y-102720402D01*
X47944255Y-102720297D01*
X47944254Y-102712094D01*
X47944255Y-102712092D01*
X47944252Y-102679949D01*
X47961184Y-102617389D01*
X47981335Y-102582895D01*
X47981646Y-102582268D01*
X47990156Y-102567668D01*
X48052238Y-102395935D01*
X48082205Y-102215801D01*
X48079067Y-102033218D01*
X48042928Y-101854220D01*
X48040637Y-101848506D01*
X47974982Y-101684725D01*
X47974981Y-101684722D01*
X47974977Y-101684715D01*
X47974974Y-101684710D01*
X47877478Y-101530332D01*
X47877475Y-101530328D01*
X47877474Y-101530327D01*
X47877473Y-101530325D01*
X47753625Y-101396131D01*
X47653856Y-101321315D01*
X47612032Y-101265346D01*
X47604250Y-101222110D01*
X47604250Y-100917925D01*
X47623935Y-100850886D01*
X47640569Y-100830244D01*
X48283994Y-100186819D01*
X48345317Y-100153334D01*
X48371675Y-100150500D01*
X49125500Y-100150500D01*
X49192539Y-100170185D01*
G37*
%TD.AperFunction*%
%TA.AperFunction,NonConductor*%
G36*
X44528744Y-107937824D02*
G01*
X44564398Y-107997913D01*
X44568250Y-108028581D01*
X44568250Y-108539960D01*
X44567176Y-108543617D01*
X44568031Y-108547334D01*
X44557407Y-108576884D01*
X44548565Y-108606999D01*
X44545309Y-108610537D01*
X44544394Y-108613084D01*
X44519736Y-108638336D01*
X44449986Y-108691857D01*
X44384817Y-108717051D01*
X44316372Y-108703013D01*
X44266383Y-108654199D01*
X44250500Y-108593481D01*
X44250500Y-108048854D01*
X44270185Y-107981815D01*
X44322989Y-107936060D01*
X44350304Y-107927238D01*
X44378359Y-107921658D01*
X44396796Y-107914020D01*
X44466264Y-107906551D01*
X44528744Y-107937824D01*
G37*
%TD.AperFunction*%
%TA.AperFunction,NonConductor*%
G36*
X59599603Y-104758095D02*
G01*
X59606081Y-104764127D01*
X63263181Y-108421227D01*
X63296666Y-108482550D01*
X63299500Y-108508908D01*
X63299500Y-113240159D01*
X63279815Y-113307198D01*
X63227011Y-113352953D01*
X63157853Y-113362897D01*
X63094297Y-113333872D01*
X63069962Y-113305257D01*
X63055212Y-113281344D01*
X62931157Y-113157289D01*
X62931156Y-113157288D01*
X62781834Y-113065186D01*
X62615297Y-113010001D01*
X62615295Y-113010000D01*
X62512516Y-112999500D01*
X62512509Y-112999500D01*
X61512597Y-112999500D01*
X61445558Y-112979815D01*
X61424916Y-112963181D01*
X55427819Y-106966084D01*
X55394334Y-106904761D01*
X55391500Y-106878403D01*
X55391500Y-106489924D01*
X55411185Y-106422885D01*
X55463989Y-106377130D01*
X55533147Y-106367186D01*
X55596703Y-106396211D01*
X55603181Y-106402243D01*
X55666983Y-106466045D01*
X55666989Y-106466050D01*
X55900403Y-106645155D01*
X55900410Y-106645159D01*
X56155189Y-106792257D01*
X56155205Y-106792265D01*
X56427005Y-106904847D01*
X56427007Y-106904847D01*
X56427013Y-106904850D01*
X56711200Y-106980998D01*
X57002894Y-107019400D01*
X57002901Y-107019400D01*
X57297099Y-107019400D01*
X57297106Y-107019400D01*
X57588800Y-106980998D01*
X57872987Y-106904850D01*
X58133669Y-106796873D01*
X58144794Y-106792265D01*
X58144797Y-106792263D01*
X58144803Y-106792261D01*
X58399597Y-106645155D01*
X58633011Y-106466050D01*
X58841050Y-106258011D01*
X59020155Y-106024597D01*
X59167261Y-105769803D01*
X59279850Y-105497987D01*
X59355998Y-105213800D01*
X59394400Y-104922106D01*
X59394400Y-104851808D01*
X59414085Y-104784769D01*
X59466889Y-104739014D01*
X59536047Y-104729070D01*
X59599603Y-104758095D01*
G37*
%TD.AperFunction*%
%TA.AperFunction,NonConductor*%
G36*
X46001878Y-116200235D02*
G01*
X46019154Y-116211328D01*
X46019655Y-116211712D01*
X46060904Y-116268105D01*
X46068250Y-116310150D01*
X46068250Y-116699186D01*
X46048565Y-116766225D01*
X46031931Y-116786867D01*
X45346199Y-117472598D01*
X45284876Y-117506083D01*
X45258518Y-117508917D01*
X44827571Y-117508917D01*
X44713695Y-117523908D01*
X44713687Y-117523910D01*
X44571986Y-117582604D01*
X44449986Y-117676218D01*
X44384816Y-117701412D01*
X44316372Y-117687373D01*
X44266382Y-117638559D01*
X44250500Y-117577842D01*
X44250500Y-117206035D01*
X44270185Y-117138996D01*
X44286815Y-117118358D01*
X45043299Y-116361873D01*
X45104622Y-116328389D01*
X45130980Y-116325555D01*
X45559928Y-116325555D01*
X45626845Y-116316745D01*
X45673813Y-116310563D01*
X45815513Y-116251868D01*
X45868264Y-116211390D01*
X45933433Y-116186197D01*
X46001878Y-116200235D01*
G37*
%TD.AperFunction*%
%TA.AperFunction,NonConductor*%
G36*
X49292539Y-108670185D02*
G01*
X49338294Y-108722989D01*
X49349500Y-108774500D01*
X49349500Y-116254869D01*
X49329815Y-116321908D01*
X49313181Y-116342550D01*
X47611620Y-118044111D01*
X47550297Y-118077596D01*
X47480605Y-118072612D01*
X47436258Y-118044111D01*
X47077743Y-117685597D01*
X47044258Y-117624274D01*
X47049242Y-117554583D01*
X47077741Y-117510238D01*
X47179607Y-117408373D01*
X47200928Y-117376465D01*
X47212214Y-117359575D01*
X47245145Y-117310289D01*
X47248061Y-117305925D01*
X47295213Y-117192091D01*
X47306541Y-117135139D01*
X47314423Y-117095515D01*
X47314423Y-117095510D01*
X47319250Y-117071246D01*
X47319250Y-116948033D01*
X47319250Y-116310150D01*
X47338935Y-116243111D01*
X47367762Y-116211775D01*
X47437194Y-116158500D01*
X47530562Y-116036819D01*
X47589257Y-115895119D01*
X47604250Y-115781233D01*
X47604249Y-114643553D01*
X47623934Y-114576515D01*
X47653851Y-114544353D01*
X47753562Y-114469572D01*
X47753562Y-114469571D01*
X47753570Y-114469566D01*
X47877398Y-114335388D01*
X47974895Y-114181013D01*
X48042839Y-114011540D01*
X48078986Y-113832569D01*
X48082142Y-113650011D01*
X48052202Y-113469898D01*
X47990155Y-113298178D01*
X47981707Y-113283677D01*
X47977511Y-113276455D01*
X47977432Y-113276164D01*
X47961156Y-113248308D01*
X47961034Y-113248098D01*
X47960248Y-113244899D01*
X47944249Y-113185801D01*
X47944249Y-111696495D01*
X47944250Y-111696492D01*
X47944249Y-111664402D01*
X47961110Y-111601973D01*
X47990216Y-111552024D01*
X48052288Y-111380288D01*
X48082245Y-111200153D01*
X48079098Y-111017571D01*
X48042952Y-110838575D01*
X47975000Y-110669080D01*
X47877489Y-110514686D01*
X47753639Y-110380495D01*
X47653856Y-110305670D01*
X47612032Y-110249702D01*
X47604250Y-110206465D01*
X47604250Y-109902285D01*
X47623935Y-109835246D01*
X47640569Y-109814604D01*
X48768354Y-108686819D01*
X48829677Y-108653334D01*
X48856035Y-108650500D01*
X49225500Y-108650500D01*
X49292539Y-108670185D01*
G37*
%TD.AperFunction*%
%TA.AperFunction,NonConductor*%
G36*
X51055703Y-121902408D02*
G01*
X51062181Y-121908440D01*
X51738724Y-122584983D01*
X51772209Y-122646306D01*
X51767225Y-122715998D01*
X51725353Y-122771931D01*
X51689363Y-122790595D01*
X51647206Y-122804292D01*
X51492739Y-122882998D01*
X51412719Y-122941136D01*
X51352486Y-122984899D01*
X51352484Y-122984901D01*
X51352483Y-122984901D01*
X51229901Y-123107483D01*
X51229901Y-123107484D01*
X51229899Y-123107486D01*
X51229066Y-123108633D01*
X51127998Y-123247739D01*
X51084985Y-123332157D01*
X51037010Y-123382953D01*
X50969189Y-123399748D01*
X50903054Y-123377210D01*
X50859603Y-123322495D01*
X50850500Y-123275862D01*
X50850500Y-121996121D01*
X50870185Y-121929082D01*
X50922989Y-121883327D01*
X50992147Y-121873383D01*
X51055703Y-121902408D01*
G37*
%TD.AperFunction*%
%TA.AperFunction,NonConductor*%
G36*
X44449986Y-125142615D02*
G01*
X44450305Y-125142859D01*
X44450306Y-125142861D01*
X44490825Y-125173952D01*
X44571987Y-125236229D01*
X44631207Y-125260759D01*
X44647611Y-125273979D01*
X44666616Y-125283071D01*
X44674270Y-125295461D01*
X44685610Y-125304600D01*
X44692262Y-125324588D01*
X44703336Y-125342514D01*
X44703076Y-125357076D01*
X44707675Y-125370894D01*
X44702465Y-125391306D01*
X44702089Y-125412372D01*
X44691369Y-125434776D01*
X44690396Y-125438593D01*
X44686857Y-125444210D01*
X44673666Y-125463952D01*
X44673664Y-125463954D01*
X44639442Y-125515168D01*
X44639434Y-125515182D01*
X44606097Y-125595670D01*
X44600573Y-125609006D01*
X44592287Y-125629008D01*
X44592285Y-125629016D01*
X44568250Y-125749852D01*
X44568250Y-126508682D01*
X44567176Y-126512339D01*
X44568031Y-126516056D01*
X44557407Y-126545606D01*
X44548565Y-126575721D01*
X44545309Y-126579259D01*
X44544394Y-126581806D01*
X44519736Y-126607058D01*
X44449986Y-126660579D01*
X44384817Y-126685773D01*
X44316372Y-126671735D01*
X44266383Y-126622921D01*
X44250500Y-126562203D01*
X44250500Y-125240991D01*
X44270185Y-125173952D01*
X44322989Y-125128197D01*
X44392147Y-125118253D01*
X44449986Y-125142615D01*
G37*
%TD.AperFunction*%
%TA.AperFunction,NonConductor*%
G36*
X49268834Y-118612148D02*
G01*
X49324767Y-118654020D01*
X49349184Y-118719484D01*
X49349500Y-118728330D01*
X49349500Y-126637770D01*
X49329815Y-126704809D01*
X49313181Y-126725451D01*
X49000155Y-127038477D01*
X48938832Y-127071962D01*
X48912474Y-127074796D01*
X47533944Y-127074796D01*
X47466905Y-127055111D01*
X47446263Y-127038477D01*
X47018692Y-126610906D01*
X47018673Y-126610889D01*
X46951768Y-126558914D01*
X46951767Y-126558913D01*
X46818803Y-126503839D01*
X46818801Y-126503838D01*
X46818800Y-126503838D01*
X46818799Y-126503837D01*
X46818796Y-126503837D01*
X46734727Y-126493278D01*
X46327570Y-126493278D01*
X46213695Y-126508268D01*
X46213687Y-126508271D01*
X46071987Y-126566965D01*
X46019235Y-126607443D01*
X45993238Y-126617492D01*
X45968613Y-126630548D01*
X45961098Y-126629917D01*
X45954066Y-126632636D01*
X45926764Y-126627035D01*
X45898988Y-126624705D01*
X45889559Y-126619404D01*
X45885621Y-126618597D01*
X45868222Y-126607410D01*
X45867722Y-126607026D01*
X45826543Y-126550581D01*
X45819250Y-126508682D01*
X45819250Y-126121914D01*
X45838935Y-126054875D01*
X45855565Y-126034237D01*
X46543567Y-125346234D01*
X46604890Y-125312750D01*
X46631248Y-125309916D01*
X47059928Y-125309916D01*
X47126845Y-125301106D01*
X47173813Y-125294924D01*
X47315513Y-125236229D01*
X47437194Y-125142861D01*
X47530562Y-125021180D01*
X47589257Y-124879480D01*
X47604250Y-124765594D01*
X47604249Y-123627977D01*
X47623934Y-123560939D01*
X47653850Y-123528778D01*
X47753584Y-123453978D01*
X47753589Y-123453973D01*
X47753588Y-123453973D01*
X47753592Y-123453971D01*
X47866007Y-123332157D01*
X47877420Y-123319790D01*
X47877421Y-123319787D01*
X47877426Y-123319783D01*
X47974924Y-123165397D01*
X48042867Y-122995912D01*
X48079009Y-122816929D01*
X48082157Y-122634360D01*
X48064674Y-122529222D01*
X48052207Y-122454244D01*
X48052206Y-122454243D01*
X48052206Y-122454238D01*
X47990145Y-122282512D01*
X47981588Y-122267826D01*
X47977517Y-122260822D01*
X47977445Y-122260557D01*
X47961045Y-122232485D01*
X47960327Y-122229562D01*
X47944251Y-122170164D01*
X47944253Y-122138008D01*
X47944251Y-122138002D01*
X47944252Y-122129955D01*
X47944249Y-122129893D01*
X47944249Y-120648673D01*
X47948460Y-120633056D01*
X47947838Y-120619055D01*
X47960981Y-120586623D01*
X47961060Y-120586331D01*
X47961075Y-120586303D01*
X47977423Y-120558330D01*
X47977490Y-120558081D01*
X47980963Y-120552109D01*
X47981680Y-120550879D01*
X47981693Y-120550867D01*
X47981726Y-120550800D01*
X47990125Y-120536392D01*
X48052213Y-120364660D01*
X48082185Y-120184526D01*
X48079052Y-120001943D01*
X48042916Y-119822943D01*
X48004904Y-119728116D01*
X47998232Y-119658569D01*
X48030221Y-119596452D01*
X48090714Y-119561490D01*
X48095812Y-119560364D01*
X48097677Y-119559994D01*
X48234259Y-119503420D01*
X48283493Y-119470522D01*
X48357180Y-119421288D01*
X49137819Y-118640649D01*
X49199142Y-118607164D01*
X49268834Y-118612148D01*
G37*
%TD.AperFunction*%
%TA.AperFunction,NonConductor*%
G36*
X46001878Y-134168957D02*
G01*
X46019154Y-134180050D01*
X46019655Y-134180434D01*
X46060904Y-134236827D01*
X46068250Y-134278872D01*
X46068250Y-134667908D01*
X46048565Y-134734947D01*
X46031931Y-134755589D01*
X45346199Y-135441320D01*
X45284876Y-135474805D01*
X45258518Y-135477639D01*
X44827571Y-135477639D01*
X44713695Y-135492630D01*
X44713687Y-135492632D01*
X44571986Y-135551326D01*
X44449986Y-135644940D01*
X44384816Y-135670134D01*
X44316372Y-135656095D01*
X44266382Y-135607281D01*
X44250500Y-135546564D01*
X44250500Y-134474500D01*
X44270185Y-134407461D01*
X44322989Y-134361706D01*
X44374500Y-134350500D01*
X44786448Y-134350500D01*
X44931436Y-134321659D01*
X44931436Y-134321658D01*
X44931441Y-134321658D01*
X44974754Y-134303716D01*
X45022207Y-134294277D01*
X45559928Y-134294277D01*
X45626845Y-134285467D01*
X45673813Y-134279285D01*
X45815513Y-134220590D01*
X45868264Y-134180112D01*
X45933433Y-134154919D01*
X46001878Y-134168957D01*
G37*
%TD.AperFunction*%
%TA.AperFunction,NonConductor*%
G36*
X49292539Y-128595481D02*
G01*
X49338294Y-128648285D01*
X49349500Y-128699796D01*
X49349500Y-135837769D01*
X49329815Y-135904808D01*
X49313181Y-135925450D01*
X48787680Y-136450950D01*
X48726357Y-136484435D01*
X48656665Y-136479451D01*
X48612318Y-136450950D01*
X48231560Y-136070191D01*
X48231553Y-136070185D01*
X48157868Y-136020951D01*
X48157868Y-136020952D01*
X48108630Y-135988052D01*
X47972056Y-135931482D01*
X47972046Y-135931479D01*
X47827059Y-135902639D01*
X47827057Y-135902639D01*
X47377426Y-135902639D01*
X47310387Y-135882954D01*
X47289745Y-135866320D01*
X47077744Y-135654319D01*
X47044259Y-135592996D01*
X47049243Y-135523304D01*
X47077745Y-135478956D01*
X47115382Y-135441320D01*
X47179607Y-135377095D01*
X47248061Y-135274647D01*
X47295213Y-135160812D01*
X47319250Y-135039968D01*
X47319250Y-134916755D01*
X47319250Y-134278872D01*
X47338935Y-134211833D01*
X47367762Y-134180497D01*
X47437194Y-134127222D01*
X47530562Y-134005541D01*
X47589257Y-133863841D01*
X47604250Y-133749955D01*
X47604249Y-132612237D01*
X47623934Y-132545199D01*
X47653847Y-132513039D01*
X47753556Y-132438262D01*
X47753561Y-132438255D01*
X47753565Y-132438253D01*
X47796475Y-132391756D01*
X47877382Y-132304090D01*
X47974877Y-132149721D01*
X48042822Y-131980256D01*
X48078971Y-131801291D01*
X48081421Y-131659780D01*
X48082132Y-131618745D01*
X48082131Y-131618735D01*
X48081611Y-131615605D01*
X48052198Y-131438632D01*
X48052196Y-131438626D01*
X48052196Y-131438625D01*
X47990161Y-131266919D01*
X47990160Y-131266916D01*
X47981656Y-131252317D01*
X47977509Y-131245179D01*
X47977425Y-131244869D01*
X47961189Y-131217085D01*
X47961027Y-131216805D01*
X47960204Y-131213455D01*
X47944249Y-131154520D01*
X47944249Y-129673863D01*
X47944253Y-129673792D01*
X47944251Y-129633071D01*
X47948479Y-129617415D01*
X47947866Y-129603340D01*
X47961114Y-129570630D01*
X47970342Y-129554796D01*
X47977443Y-129542642D01*
X47977443Y-129542640D01*
X47981603Y-129535521D01*
X47981765Y-129535192D01*
X47990184Y-129520748D01*
X48052261Y-129349014D01*
X48082224Y-129168879D01*
X48079082Y-128986297D01*
X48042940Y-128807300D01*
X48018339Y-128745935D01*
X48011666Y-128676386D01*
X48043653Y-128614268D01*
X48104145Y-128579305D01*
X48133436Y-128575796D01*
X49217886Y-128575796D01*
X49225500Y-128575796D01*
X49292539Y-128595481D01*
G37*
%TD.AperFunction*%
%TA.AperFunction,NonConductor*%
G36*
X47884830Y-141414842D02*
G01*
X47934279Y-141464204D01*
X47949500Y-141523727D01*
X47949500Y-143037770D01*
X47929815Y-143104809D01*
X47913181Y-143125451D01*
X47530931Y-143507701D01*
X47469608Y-143541186D01*
X47399916Y-143536202D01*
X47343983Y-143494330D01*
X47319566Y-143428866D01*
X47319250Y-143420020D01*
X47319250Y-143263233D01*
X47338935Y-143196194D01*
X47367762Y-143164858D01*
X47437194Y-143111583D01*
X47530562Y-142989902D01*
X47589257Y-142848202D01*
X47604250Y-142734316D01*
X47604249Y-141596662D01*
X47605519Y-141592334D01*
X47604557Y-141587927D01*
X47615274Y-141559113D01*
X47623934Y-141529624D01*
X47627783Y-141525485D01*
X47628916Y-141522441D01*
X47653846Y-141497465D01*
X47751102Y-141424525D01*
X47816544Y-141400051D01*
X47884830Y-141414842D01*
G37*
%TD.AperFunction*%
%TA.AperFunction,NonConductor*%
G36*
X46001876Y-143153318D02*
G01*
X46019058Y-143164338D01*
X46019236Y-143164474D01*
X46019560Y-143164722D01*
X46034676Y-143185346D01*
X46051866Y-143202132D01*
X46054101Y-143211849D01*
X46060863Y-143221075D01*
X46068250Y-143263233D01*
X46068250Y-143652269D01*
X46048565Y-143719308D01*
X46031931Y-143739950D01*
X45346199Y-144425681D01*
X45284876Y-144459166D01*
X45258518Y-144462000D01*
X44898728Y-144462000D01*
X44831689Y-144442315D01*
X44785934Y-144389511D01*
X44775990Y-144320353D01*
X44805015Y-144256797D01*
X44811033Y-144250333D01*
X45776701Y-143284666D01*
X45833797Y-143199214D01*
X45836125Y-143196728D01*
X45836753Y-143194983D01*
X45861406Y-143169735D01*
X45868265Y-143164472D01*
X45933431Y-143139280D01*
X46001876Y-143153318D01*
G37*
%TD.AperFunction*%
%TA.AperFunction,NonConductor*%
G36*
X95310145Y-80820185D02*
G01*
X95355900Y-80872989D01*
X95365844Y-80942147D01*
X95336819Y-81005703D01*
X95317418Y-81023766D01*
X95292452Y-81042455D01*
X95206206Y-81157664D01*
X95206202Y-81157671D01*
X95155908Y-81292517D01*
X95149501Y-81352116D01*
X95149501Y-81352123D01*
X95149500Y-81352135D01*
X95149500Y-83447870D01*
X95149501Y-83447876D01*
X95155908Y-83507483D01*
X95206202Y-83642328D01*
X95206206Y-83642335D01*
X95292452Y-83757544D01*
X95292455Y-83757547D01*
X95407664Y-83843793D01*
X95407671Y-83843797D01*
X95542517Y-83894091D01*
X95542516Y-83894091D01*
X95549444Y-83894835D01*
X95602127Y-83900500D01*
X98897872Y-83900499D01*
X98957483Y-83894091D01*
X99092331Y-83843796D01*
X99207546Y-83757546D01*
X99293796Y-83642331D01*
X99344091Y-83507483D01*
X99350500Y-83447873D01*
X99350499Y-81352128D01*
X99344091Y-81292517D01*
X99334408Y-81266556D01*
X99293797Y-81157671D01*
X99293793Y-81157664D01*
X99207547Y-81042455D01*
X99182582Y-81023766D01*
X99140712Y-80967832D01*
X99135728Y-80898140D01*
X99169214Y-80836818D01*
X99230538Y-80803333D01*
X99256894Y-80800500D01*
X105875500Y-80800500D01*
X105942539Y-80820185D01*
X105988294Y-80872989D01*
X105999500Y-80924500D01*
X105999500Y-138156203D01*
X105979815Y-138223242D01*
X105927011Y-138268997D01*
X105857853Y-138278941D01*
X105794297Y-138249916D01*
X105775182Y-138229088D01*
X105766971Y-138217787D01*
X105766967Y-138217782D01*
X105622213Y-138073028D01*
X105456613Y-137952715D01*
X105456612Y-137952714D01*
X105456610Y-137952713D01*
X105374485Y-137910868D01*
X105274223Y-137859781D01*
X105079534Y-137796522D01*
X104904995Y-137768878D01*
X104877352Y-137764500D01*
X104672648Y-137764500D01*
X104648329Y-137768351D01*
X104470465Y-137796522D01*
X104275776Y-137859781D01*
X104093386Y-137952715D01*
X103927786Y-138073028D01*
X103783028Y-138217786D01*
X103662715Y-138383386D01*
X103569781Y-138565776D01*
X103506522Y-138760465D01*
X103474500Y-138962648D01*
X103474500Y-139167351D01*
X103506522Y-139369534D01*
X103569781Y-139564223D01*
X103662715Y-139746613D01*
X103783028Y-139912213D01*
X103927786Y-140056971D01*
X104082749Y-140169556D01*
X104093390Y-140177287D01*
X104209607Y-140236503D01*
X104275776Y-140270218D01*
X104275778Y-140270218D01*
X104275781Y-140270220D01*
X104380137Y-140304127D01*
X104470465Y-140333477D01*
X104571557Y-140349488D01*
X104672648Y-140365500D01*
X104672649Y-140365500D01*
X104877351Y-140365500D01*
X104877352Y-140365500D01*
X105079534Y-140333477D01*
X105274219Y-140270220D01*
X105456610Y-140177287D01*
X105549590Y-140109732D01*
X105622213Y-140056971D01*
X105622215Y-140056968D01*
X105622219Y-140056966D01*
X105766966Y-139912219D01*
X105775180Y-139900913D01*
X105830508Y-139858246D01*
X105900121Y-139852265D01*
X105961917Y-139884869D01*
X105996277Y-139945706D01*
X105999500Y-139973796D01*
X105999500Y-145448922D01*
X105979815Y-145515961D01*
X105927011Y-145561716D01*
X105857853Y-145571660D01*
X105798593Y-145546191D01*
X105793661Y-145542292D01*
X105793658Y-145542290D01*
X105793656Y-145542288D01*
X105644334Y-145450186D01*
X105477797Y-145395001D01*
X105477795Y-145395000D01*
X105375010Y-145384500D01*
X104174998Y-145384500D01*
X104174981Y-145384501D01*
X104072203Y-145395000D01*
X104072200Y-145395001D01*
X103905668Y-145450185D01*
X103905663Y-145450187D01*
X103756342Y-145542289D01*
X103632289Y-145666342D01*
X103540187Y-145815663D01*
X103540186Y-145815666D01*
X103485001Y-145982203D01*
X103485001Y-145982204D01*
X103485000Y-145982204D01*
X103474500Y-146084983D01*
X103474500Y-147285001D01*
X103474501Y-147285018D01*
X103485000Y-147387796D01*
X103485001Y-147387799D01*
X103540185Y-147554331D01*
X103540187Y-147554336D01*
X103569435Y-147601754D01*
X103632288Y-147703656D01*
X103756344Y-147827712D01*
X103905666Y-147919814D01*
X104072203Y-147974999D01*
X104174991Y-147985500D01*
X105375008Y-147985499D01*
X105477797Y-147974999D01*
X105644334Y-147919814D01*
X105793656Y-147827712D01*
X105793663Y-147827704D01*
X105798587Y-147823812D01*
X105863382Y-147797671D01*
X105932025Y-147810710D01*
X105982721Y-147858789D01*
X105999500Y-147921077D01*
X105999500Y-152675500D01*
X105979815Y-152742539D01*
X105927011Y-152788294D01*
X105875500Y-152799500D01*
X43124500Y-152799500D01*
X43057461Y-152779815D01*
X43011706Y-152727011D01*
X43000500Y-152675500D01*
X43000500Y-151661229D01*
X43020185Y-151594190D01*
X43072989Y-151548435D01*
X43142147Y-151538491D01*
X43205703Y-151567516D01*
X43212167Y-151573534D01*
X43299862Y-151661229D01*
X43309085Y-151670452D01*
X43431998Y-151752580D01*
X43432011Y-151752587D01*
X43568582Y-151809156D01*
X43568587Y-151809158D01*
X43568591Y-151809158D01*
X43568592Y-151809159D01*
X43713579Y-151838000D01*
X43713582Y-151838000D01*
X43861417Y-151838000D01*
X44217641Y-151838000D01*
X44284680Y-151857685D01*
X44330435Y-151910489D01*
X44332202Y-151914547D01*
X44356937Y-151974262D01*
X44356938Y-151974263D01*
X44450306Y-152095944D01*
X44571987Y-152189312D01*
X44713687Y-152248007D01*
X44827573Y-152263000D01*
X45559926Y-152262999D01*
X45559928Y-152262999D01*
X45626845Y-152254189D01*
X45673813Y-152248007D01*
X45815513Y-152189312D01*
X45868264Y-152148834D01*
X45933433Y-152123641D01*
X46001878Y-152137679D01*
X46019234Y-152148833D01*
X46071987Y-152189312D01*
X46213687Y-152248007D01*
X46327573Y-152263000D01*
X47059926Y-152262999D01*
X47059928Y-152262999D01*
X47126845Y-152254189D01*
X47173813Y-152248007D01*
X47315513Y-152189312D01*
X47437194Y-152095944D01*
X47530562Y-151974263D01*
X47589257Y-151832563D01*
X47604250Y-151718677D01*
X47604249Y-150581087D01*
X47623934Y-150514049D01*
X47653846Y-150481890D01*
X47753602Y-150407074D01*
X47877438Y-150272882D01*
X47974938Y-150118490D01*
X48042880Y-149949000D01*
X48079020Y-149770012D01*
X48082164Y-149587438D01*
X48052208Y-149407312D01*
X47990142Y-149235583D01*
X47981591Y-149220909D01*
X47977495Y-149213861D01*
X47977417Y-149213573D01*
X47961041Y-149185550D01*
X47960259Y-149182368D01*
X47944249Y-149123241D01*
X47944249Y-147642107D01*
X47944256Y-147641986D01*
X47944255Y-147633894D01*
X47944256Y-147633892D01*
X47944252Y-147601751D01*
X47961183Y-147539191D01*
X47977451Y-147511346D01*
X47977451Y-147511343D01*
X47981386Y-147504609D01*
X47981718Y-147503939D01*
X47990150Y-147489473D01*
X48052234Y-147317740D01*
X48082202Y-147137606D01*
X48079065Y-146955023D01*
X48042926Y-146776024D01*
X47974980Y-146606526D01*
X47877472Y-146452128D01*
X47753624Y-146317934D01*
X47674686Y-146258739D01*
X47653857Y-146243119D01*
X47612032Y-146187150D01*
X47604250Y-146143914D01*
X47604250Y-145608479D01*
X47623935Y-145541440D01*
X47640569Y-145520798D01*
X49382948Y-143778419D01*
X49382951Y-143778416D01*
X49465084Y-143655495D01*
X49521658Y-143518913D01*
X49531096Y-143471462D01*
X49550500Y-143373920D01*
X49550500Y-143226083D01*
X49550499Y-143226080D01*
X49546297Y-143204948D01*
X49546297Y-143204947D01*
X49521659Y-143081092D01*
X49521658Y-143081091D01*
X49521658Y-143081087D01*
X49465084Y-142944505D01*
X49465083Y-142944504D01*
X49462753Y-142938878D01*
X49463614Y-142938520D01*
X49461630Y-142930598D01*
X49455523Y-142921095D01*
X49450500Y-142886160D01*
X49450500Y-142788312D01*
X50968600Y-142788312D01*
X50968600Y-142961687D01*
X50995720Y-143132913D01*
X51049290Y-143297788D01*
X51049291Y-143297791D01*
X51111571Y-143420020D01*
X51127998Y-143452260D01*
X51229899Y-143592514D01*
X51352486Y-143715101D01*
X51492740Y-143817002D01*
X51520093Y-143830939D01*
X51647208Y-143895708D01*
X51647211Y-143895709D01*
X51729648Y-143922494D01*
X51812088Y-143949280D01*
X51891391Y-143961840D01*
X51983313Y-143976400D01*
X51983318Y-143976400D01*
X52156687Y-143976400D01*
X52239695Y-143963252D01*
X52327912Y-143949280D01*
X52492791Y-143895708D01*
X52647260Y-143817002D01*
X52787514Y-143715101D01*
X52910101Y-143592514D01*
X53012002Y-143452260D01*
X53090708Y-143297791D01*
X53144280Y-143132912D01*
X53161831Y-143022099D01*
X53171400Y-142961687D01*
X53171400Y-142788312D01*
X53164260Y-142743233D01*
X53161831Y-142727900D01*
X54905600Y-142727900D01*
X54905600Y-143022099D01*
X54905601Y-143022116D01*
X54937344Y-143263233D01*
X54944002Y-143313800D01*
X54998960Y-143518907D01*
X55020152Y-143597994D01*
X55132734Y-143869794D01*
X55132742Y-143869810D01*
X55279840Y-144124589D01*
X55279851Y-144124605D01*
X55458948Y-144358009D01*
X55458954Y-144358016D01*
X55666983Y-144566045D01*
X55666989Y-144566050D01*
X55900403Y-144745155D01*
X55900410Y-144745159D01*
X56155189Y-144892257D01*
X56155205Y-144892265D01*
X56427005Y-145004847D01*
X56427007Y-145004847D01*
X56427013Y-145004850D01*
X56711200Y-145080998D01*
X57002894Y-145119400D01*
X57002901Y-145119400D01*
X57297099Y-145119400D01*
X57297106Y-145119400D01*
X57588800Y-145080998D01*
X57872987Y-145004850D01*
X57946318Y-144974475D01*
X58144794Y-144892265D01*
X58144797Y-144892263D01*
X58144803Y-144892261D01*
X58399597Y-144745155D01*
X58633011Y-144566050D01*
X58841050Y-144358011D01*
X59020155Y-144124597D01*
X59167261Y-143869803D01*
X59205115Y-143778416D01*
X59279847Y-143597994D01*
X59279846Y-143597994D01*
X59279850Y-143597987D01*
X59355998Y-143313800D01*
X59394400Y-143022106D01*
X59394400Y-142727894D01*
X59355998Y-142436200D01*
X59279850Y-142152013D01*
X59279847Y-142152005D01*
X59167265Y-141880205D01*
X59167257Y-141880189D01*
X59020159Y-141625410D01*
X59020155Y-141625403D01*
X58841050Y-141391989D01*
X58841045Y-141391983D01*
X58633016Y-141183954D01*
X58633009Y-141183948D01*
X58399605Y-141004851D01*
X58399603Y-141004849D01*
X58399597Y-141004845D01*
X58399592Y-141004842D01*
X58399589Y-141004840D01*
X58144810Y-140857742D01*
X58144794Y-140857734D01*
X57872994Y-140745152D01*
X57614711Y-140675945D01*
X57588800Y-140669002D01*
X57588799Y-140669001D01*
X57588796Y-140669001D01*
X57297116Y-140630601D01*
X57297111Y-140630600D01*
X57297106Y-140630600D01*
X57002894Y-140630600D01*
X57002888Y-140630600D01*
X57002883Y-140630601D01*
X56711203Y-140669001D01*
X56427005Y-140745152D01*
X56155205Y-140857734D01*
X56155189Y-140857742D01*
X55900410Y-141004840D01*
X55900394Y-141004851D01*
X55666990Y-141183948D01*
X55666983Y-141183954D01*
X55458954Y-141391983D01*
X55458948Y-141391990D01*
X55279851Y-141625394D01*
X55279840Y-141625410D01*
X55132742Y-141880189D01*
X55132734Y-141880205D01*
X55020152Y-142152005D01*
X54944001Y-142436203D01*
X54905601Y-142727883D01*
X54905600Y-142727900D01*
X53161831Y-142727900D01*
X53150345Y-142655381D01*
X53144280Y-142617088D01*
X53090708Y-142452209D01*
X53090708Y-142452208D01*
X53012001Y-142297739D01*
X52910934Y-142158633D01*
X52910101Y-142157486D01*
X52910098Y-142157483D01*
X52907237Y-142153545D01*
X52908598Y-142152555D01*
X52883021Y-142095465D01*
X52893461Y-142026380D01*
X52939594Y-141973906D01*
X53006773Y-141954703D01*
X53025273Y-141956226D01*
X53096703Y-141967539D01*
X53210098Y-141985500D01*
X53210103Y-141985500D01*
X53469902Y-141985500D01*
X53583298Y-141967539D01*
X53726493Y-141944860D01*
X53973572Y-141864579D01*
X54205051Y-141746634D01*
X54415229Y-141593931D01*
X54598931Y-141410229D01*
X54751634Y-141200051D01*
X54869579Y-140968572D01*
X54949860Y-140721493D01*
X54972644Y-140577636D01*
X54990500Y-140464902D01*
X54990500Y-140205097D01*
X54953865Y-139973796D01*
X54949860Y-139948507D01*
X54869579Y-139701428D01*
X54869577Y-139701425D01*
X54869577Y-139701423D01*
X54799667Y-139564219D01*
X54751634Y-139469949D01*
X54598931Y-139259771D01*
X54415229Y-139076069D01*
X54415225Y-139076066D01*
X54205054Y-138923368D01*
X54205053Y-138923367D01*
X54205051Y-138923366D01*
X54132764Y-138886534D01*
X53973576Y-138805422D01*
X53726493Y-138725140D01*
X53469902Y-138684500D01*
X53469897Y-138684500D01*
X53210103Y-138684500D01*
X53210098Y-138684500D01*
X52953506Y-138725140D01*
X52706423Y-138805422D01*
X52474945Y-138923368D01*
X52264774Y-139076066D01*
X52264768Y-139076071D01*
X52081071Y-139259768D01*
X52081066Y-139259774D01*
X51928368Y-139469945D01*
X51810422Y-139701423D01*
X51730140Y-139948506D01*
X51689500Y-140205097D01*
X51689500Y-140464902D01*
X51730140Y-140721493D01*
X51810422Y-140968576D01*
X51928368Y-141200054D01*
X52081066Y-141410225D01*
X52081071Y-141410231D01*
X52232759Y-141561919D01*
X52266244Y-141623242D01*
X52261260Y-141692934D01*
X52219388Y-141748867D01*
X52153924Y-141773284D01*
X52145078Y-141773600D01*
X51983313Y-141773600D01*
X51812086Y-141800720D01*
X51647211Y-141854290D01*
X51647208Y-141854291D01*
X51492739Y-141932998D01*
X51412719Y-141991136D01*
X51352486Y-142034899D01*
X51352484Y-142034901D01*
X51352483Y-142034901D01*
X51229901Y-142157483D01*
X51229901Y-142157484D01*
X51229899Y-142157486D01*
X51229066Y-142158633D01*
X51127998Y-142297739D01*
X51049291Y-142452208D01*
X51049290Y-142452211D01*
X50995720Y-142617086D01*
X50968600Y-142788312D01*
X49450500Y-142788312D01*
X49450500Y-137962230D01*
X49470185Y-137895191D01*
X49486819Y-137874549D01*
X49696271Y-137665097D01*
X58039500Y-137665097D01*
X58039500Y-137924902D01*
X58080140Y-138181493D01*
X58160422Y-138428576D01*
X58228949Y-138563066D01*
X58278366Y-138660051D01*
X58431069Y-138870229D01*
X58614771Y-139053931D01*
X58824949Y-139206634D01*
X58929230Y-139259768D01*
X59056423Y-139324577D01*
X59056425Y-139324577D01*
X59056428Y-139324579D01*
X59303507Y-139404860D01*
X59435706Y-139425797D01*
X59560098Y-139445500D01*
X59560103Y-139445500D01*
X59819902Y-139445500D01*
X59933298Y-139427539D01*
X60076493Y-139404860D01*
X60323572Y-139324579D01*
X60555051Y-139206634D01*
X60765229Y-139053931D01*
X60948931Y-138870229D01*
X61101634Y-138660051D01*
X61219579Y-138428572D01*
X61299860Y-138181493D01*
X61322539Y-138038298D01*
X61340500Y-137924902D01*
X61340500Y-137665097D01*
X61318947Y-137529021D01*
X61299860Y-137408507D01*
X61219579Y-137161428D01*
X61219577Y-137161425D01*
X61219577Y-137161423D01*
X61176787Y-137077445D01*
X61101634Y-136929949D01*
X60948931Y-136719771D01*
X60765229Y-136536069D01*
X60603983Y-136418917D01*
X60555054Y-136383368D01*
X60555053Y-136383367D01*
X60555051Y-136383366D01*
X60482764Y-136346534D01*
X60323576Y-136265422D01*
X60076493Y-136185140D01*
X59819902Y-136144500D01*
X59819897Y-136144500D01*
X59560103Y-136144500D01*
X59560098Y-136144500D01*
X59303506Y-136185140D01*
X59056423Y-136265422D01*
X58824945Y-136383368D01*
X58614774Y-136536066D01*
X58614768Y-136536071D01*
X58431071Y-136719768D01*
X58431066Y-136719774D01*
X58278368Y-136929945D01*
X58160422Y-137161423D01*
X58080140Y-137408506D01*
X58039500Y-137665097D01*
X49696271Y-137665097D01*
X50682948Y-136678420D01*
X50682952Y-136678416D01*
X50749230Y-136579222D01*
X50765084Y-136555495D01*
X50821658Y-136418913D01*
X50850500Y-136273918D01*
X50850500Y-133247648D01*
X52039500Y-133247648D01*
X52039500Y-133452351D01*
X52071522Y-133654534D01*
X52134781Y-133849223D01*
X52227715Y-134031613D01*
X52348028Y-134197213D01*
X52492786Y-134341971D01*
X52647749Y-134454556D01*
X52658390Y-134462287D01*
X52774607Y-134521503D01*
X52840776Y-134555218D01*
X52840778Y-134555218D01*
X52840781Y-134555220D01*
X52931856Y-134584812D01*
X53035465Y-134618477D01*
X53136557Y-134634488D01*
X53237648Y-134650500D01*
X53237649Y-134650500D01*
X53442351Y-134650500D01*
X53442352Y-134650500D01*
X53644534Y-134618477D01*
X53839219Y-134555220D01*
X54021610Y-134462287D01*
X54150482Y-134368657D01*
X54187213Y-134341971D01*
X54187215Y-134341968D01*
X54187219Y-134341966D01*
X54331966Y-134197219D01*
X54331968Y-134197215D01*
X54331971Y-134197213D01*
X54436892Y-134052799D01*
X54452287Y-134031610D01*
X54545220Y-133849219D01*
X54608477Y-133654534D01*
X54640500Y-133452352D01*
X54640500Y-133247648D01*
X54608477Y-133045466D01*
X54545220Y-132850781D01*
X54545218Y-132850778D01*
X54545218Y-132850776D01*
X54493865Y-132749991D01*
X54452287Y-132668390D01*
X54411491Y-132612238D01*
X54331971Y-132502786D01*
X54187213Y-132358028D01*
X54021613Y-132237715D01*
X54021612Y-132237714D01*
X54021610Y-132237713D01*
X53961898Y-132207288D01*
X53839223Y-132144781D01*
X53644534Y-132081522D01*
X53469995Y-132053878D01*
X53442352Y-132049500D01*
X53237648Y-132049500D01*
X53213329Y-132053351D01*
X53035465Y-132081522D01*
X52840776Y-132144781D01*
X52658386Y-132237715D01*
X52492786Y-132358028D01*
X52348028Y-132502786D01*
X52227715Y-132668386D01*
X52134781Y-132850776D01*
X52071522Y-133045465D01*
X52039500Y-133247648D01*
X50850500Y-133247648D01*
X50850500Y-126926082D01*
X50850500Y-124374137D01*
X50870185Y-124307098D01*
X50922989Y-124261343D01*
X50992147Y-124251399D01*
X51055703Y-124280424D01*
X51084984Y-124317841D01*
X51127998Y-124402260D01*
X51229899Y-124542514D01*
X51352486Y-124665101D01*
X51492740Y-124767002D01*
X51568502Y-124805604D01*
X51647208Y-124845708D01*
X51647211Y-124845709D01*
X51729648Y-124872494D01*
X51812088Y-124899280D01*
X51891391Y-124911840D01*
X51983313Y-124926400D01*
X51983318Y-124926400D01*
X52156687Y-124926400D01*
X52239695Y-124913252D01*
X52327912Y-124899280D01*
X52492791Y-124845708D01*
X52647260Y-124767002D01*
X52787514Y-124665101D01*
X52910101Y-124542514D01*
X53012002Y-124402260D01*
X53090708Y-124247791D01*
X53104404Y-124205636D01*
X53143840Y-124147963D01*
X53208198Y-124120764D01*
X53277045Y-124132678D01*
X53310016Y-124156275D01*
X60323181Y-131169440D01*
X60356666Y-131230763D01*
X60359500Y-131257121D01*
X60359500Y-131937837D01*
X60339815Y-132004876D01*
X60287011Y-132050631D01*
X60261459Y-132059089D01*
X60257207Y-132059999D01*
X60090668Y-132115185D01*
X60090663Y-132115187D01*
X59941342Y-132207289D01*
X59817289Y-132331342D01*
X59725187Y-132480663D01*
X59725185Y-132480668D01*
X59710269Y-132525682D01*
X59670001Y-132647203D01*
X59670001Y-132647204D01*
X59670000Y-132647204D01*
X59659500Y-132749983D01*
X59659500Y-133950001D01*
X59659501Y-133950018D01*
X59670000Y-134052796D01*
X59670001Y-134052799D01*
X59725185Y-134219331D01*
X59725187Y-134219336D01*
X59735976Y-134236827D01*
X59817288Y-134368656D01*
X59941344Y-134492712D01*
X60090666Y-134584814D01*
X60257203Y-134639999D01*
X60359991Y-134650500D01*
X61560008Y-134650499D01*
X61662797Y-134639999D01*
X61829334Y-134584814D01*
X61978656Y-134492712D01*
X62102712Y-134368656D01*
X62194814Y-134219334D01*
X62249999Y-134052797D01*
X62260500Y-133950009D01*
X62260499Y-132749992D01*
X62249999Y-132647203D01*
X62194814Y-132480666D01*
X62102712Y-132331344D01*
X61978656Y-132207288D01*
X61829334Y-132115186D01*
X61829331Y-132115185D01*
X61662795Y-132060000D01*
X61658533Y-132059088D01*
X61597102Y-132025801D01*
X61563419Y-131964586D01*
X61560500Y-131937837D01*
X61560500Y-131046083D01*
X61560501Y-131046070D01*
X61560501Y-130877969D01*
X61560501Y-130877967D01*
X61519577Y-130725239D01*
X61490639Y-130675119D01*
X61440520Y-130588308D01*
X61328716Y-130476504D01*
X61328715Y-130476503D01*
X61324385Y-130472173D01*
X61324374Y-130472163D01*
X57133292Y-126281081D01*
X57099807Y-126219758D01*
X57104791Y-126150066D01*
X57146663Y-126094133D01*
X57212127Y-126069716D01*
X57220973Y-126069400D01*
X57297099Y-126069400D01*
X57297106Y-126069400D01*
X57588800Y-126030998D01*
X57872987Y-125954850D01*
X57946318Y-125924475D01*
X58144794Y-125842265D01*
X58144797Y-125842263D01*
X58144803Y-125842261D01*
X58399597Y-125695155D01*
X58633011Y-125516050D01*
X58841050Y-125308011D01*
X59020155Y-125074597D01*
X59167261Y-124819803D01*
X59279850Y-124547987D01*
X59355998Y-124263800D01*
X59394400Y-123972106D01*
X59394400Y-123677894D01*
X59355998Y-123386200D01*
X59279850Y-123102013D01*
X59279847Y-123102005D01*
X59167265Y-122830205D01*
X59167257Y-122830189D01*
X59020159Y-122575410D01*
X59020155Y-122575403D01*
X58841050Y-122341989D01*
X58841045Y-122341983D01*
X58633016Y-122133954D01*
X58633009Y-122133948D01*
X58399605Y-121954851D01*
X58399603Y-121954849D01*
X58399597Y-121954845D01*
X58399592Y-121954842D01*
X58399589Y-121954840D01*
X58144810Y-121807742D01*
X58144794Y-121807734D01*
X57872994Y-121695152D01*
X57588796Y-121619001D01*
X57297116Y-121580601D01*
X57297111Y-121580600D01*
X57297106Y-121580600D01*
X57002894Y-121580600D01*
X57002888Y-121580600D01*
X57002883Y-121580601D01*
X56711203Y-121619001D01*
X56427005Y-121695152D01*
X56155205Y-121807734D01*
X56155189Y-121807742D01*
X55900410Y-121954840D01*
X55900394Y-121954851D01*
X55666990Y-122133948D01*
X55666983Y-122133954D01*
X55458954Y-122341983D01*
X55458948Y-122341990D01*
X55279851Y-122575394D01*
X55279840Y-122575410D01*
X55132742Y-122830189D01*
X55132734Y-122830205D01*
X55020152Y-123102005D01*
X54944001Y-123386203D01*
X54905601Y-123677883D01*
X54905600Y-123677900D01*
X54905600Y-123754027D01*
X54885915Y-123821066D01*
X54833111Y-123866821D01*
X54763953Y-123876765D01*
X54700397Y-123847740D01*
X54693919Y-123841708D01*
X53885107Y-123032896D01*
X53851622Y-122971573D01*
X53856606Y-122901881D01*
X53898478Y-122845948D01*
X53934470Y-122827283D01*
X53973572Y-122814579D01*
X54205051Y-122696634D01*
X54415229Y-122543931D01*
X54598931Y-122360229D01*
X54751634Y-122150051D01*
X54869579Y-121918572D01*
X54949860Y-121671493D01*
X54972539Y-121528298D01*
X54990500Y-121414902D01*
X54990500Y-121155097D01*
X54968947Y-121019021D01*
X54949860Y-120898507D01*
X54869579Y-120651428D01*
X54869577Y-120651425D01*
X54869577Y-120651423D01*
X54822004Y-120558057D01*
X54751634Y-120419949D01*
X54598931Y-120209771D01*
X54415229Y-120026069D01*
X54415225Y-120026066D01*
X54205054Y-119873368D01*
X54205053Y-119873367D01*
X54205051Y-119873366D01*
X54106087Y-119822941D01*
X53973576Y-119755422D01*
X53726493Y-119675140D01*
X53469902Y-119634500D01*
X53469897Y-119634500D01*
X53210103Y-119634500D01*
X53210098Y-119634500D01*
X52953506Y-119675140D01*
X52706423Y-119755422D01*
X52474945Y-119873368D01*
X52264774Y-120026066D01*
X52264768Y-120026071D01*
X52081071Y-120209768D01*
X52081066Y-120209774D01*
X51928368Y-120419945D01*
X51810422Y-120651423D01*
X51810005Y-120652708D01*
X51800865Y-120680840D01*
X51797716Y-120690531D01*
X51796163Y-120692801D01*
X51795967Y-120695546D01*
X51776559Y-120721470D01*
X51758278Y-120748206D01*
X51755743Y-120749277D01*
X51754095Y-120751479D01*
X51723755Y-120762795D01*
X51693919Y-120775404D01*
X51691208Y-120774934D01*
X51688631Y-120775896D01*
X51656988Y-120769012D01*
X51625073Y-120763489D01*
X51622223Y-120761449D01*
X51620358Y-120761044D01*
X51592104Y-120739893D01*
X51504919Y-120652708D01*
X51471434Y-120591385D01*
X51468600Y-120565027D01*
X51468600Y-118615097D01*
X58039500Y-118615097D01*
X58039500Y-118874902D01*
X58080140Y-119131493D01*
X58160422Y-119378576D01*
X58241534Y-119537764D01*
X58278366Y-119610051D01*
X58431069Y-119820229D01*
X58614771Y-120003931D01*
X58824949Y-120156634D01*
X58929550Y-120209931D01*
X59056423Y-120274577D01*
X59056425Y-120274577D01*
X59056428Y-120274579D01*
X59303507Y-120354860D01*
X59435706Y-120375797D01*
X59560098Y-120395500D01*
X59560103Y-120395500D01*
X59819902Y-120395500D01*
X59933298Y-120377539D01*
X60076493Y-120354860D01*
X60323572Y-120274579D01*
X60555051Y-120156634D01*
X60765229Y-120003931D01*
X60948931Y-119820229D01*
X61101634Y-119610051D01*
X61219579Y-119378572D01*
X61299860Y-119131493D01*
X61322539Y-118988298D01*
X61340500Y-118874902D01*
X61340500Y-118615097D01*
X61318947Y-118479021D01*
X61299860Y-118358507D01*
X61219579Y-118111428D01*
X61219577Y-118111425D01*
X61219577Y-118111423D01*
X61176787Y-118027445D01*
X61101634Y-117879949D01*
X60948931Y-117669771D01*
X60765229Y-117486069D01*
X60658291Y-117408374D01*
X60555054Y-117333368D01*
X60555053Y-117333367D01*
X60555051Y-117333366D01*
X60482764Y-117296534D01*
X60323576Y-117215422D01*
X60076493Y-117135140D01*
X59819902Y-117094500D01*
X59819897Y-117094500D01*
X59560103Y-117094500D01*
X59560098Y-117094500D01*
X59303506Y-117135140D01*
X59056423Y-117215422D01*
X58824945Y-117333368D01*
X58614774Y-117486066D01*
X58614768Y-117486071D01*
X58431071Y-117669768D01*
X58431066Y-117669774D01*
X58278368Y-117879945D01*
X58160422Y-118111423D01*
X58080140Y-118358506D01*
X58039500Y-118615097D01*
X51468600Y-118615097D01*
X51468600Y-114197648D01*
X52992000Y-114197648D01*
X52992000Y-114402351D01*
X53024022Y-114604534D01*
X53087281Y-114799223D01*
X53180215Y-114981613D01*
X53300528Y-115147213D01*
X53445286Y-115291971D01*
X53600249Y-115404556D01*
X53610890Y-115412287D01*
X53727107Y-115471503D01*
X53793276Y-115505218D01*
X53793278Y-115505218D01*
X53793281Y-115505220D01*
X53884356Y-115534812D01*
X53987965Y-115568477D01*
X54089057Y-115584488D01*
X54190148Y-115600500D01*
X54190149Y-115600500D01*
X54394851Y-115600500D01*
X54394852Y-115600500D01*
X54597034Y-115568477D01*
X54791719Y-115505220D01*
X54974110Y-115412287D01*
X55102982Y-115318657D01*
X55139713Y-115291971D01*
X55139715Y-115291968D01*
X55139719Y-115291966D01*
X55284466Y-115147219D01*
X55284468Y-115147215D01*
X55284471Y-115147213D01*
X55337232Y-115074590D01*
X55404787Y-114981610D01*
X55497720Y-114799219D01*
X55560977Y-114604534D01*
X55593000Y-114402352D01*
X55593000Y-114197648D01*
X55590364Y-114181006D01*
X55560977Y-113995465D01*
X55513301Y-113848735D01*
X55497720Y-113800781D01*
X55497718Y-113800778D01*
X55497718Y-113800776D01*
X55456956Y-113720778D01*
X55404787Y-113618390D01*
X55351384Y-113544886D01*
X55284471Y-113452786D01*
X55139713Y-113308028D01*
X54974113Y-113187715D01*
X54974112Y-113187714D01*
X54974110Y-113187713D01*
X54907199Y-113153620D01*
X54791723Y-113094781D01*
X54597034Y-113031522D01*
X54422495Y-113003878D01*
X54394852Y-112999500D01*
X54190148Y-112999500D01*
X54165829Y-113003351D01*
X53987965Y-113031522D01*
X53793276Y-113094781D01*
X53610886Y-113187715D01*
X53445286Y-113308028D01*
X53300528Y-113452786D01*
X53180215Y-113618386D01*
X53087281Y-113800776D01*
X53024022Y-113995465D01*
X52992000Y-114197648D01*
X51468600Y-114197648D01*
X51468600Y-105907052D01*
X51488285Y-105840013D01*
X51541089Y-105794258D01*
X51610247Y-105784314D01*
X51642426Y-105794517D01*
X51642706Y-105793843D01*
X51647211Y-105795709D01*
X51693765Y-105810835D01*
X51812088Y-105849280D01*
X51891391Y-105861840D01*
X51983313Y-105876400D01*
X51983318Y-105876400D01*
X52156687Y-105876400D01*
X52243137Y-105862707D01*
X52327912Y-105849280D01*
X52492791Y-105795708D01*
X52647260Y-105717002D01*
X52787514Y-105615101D01*
X52910101Y-105492514D01*
X53012002Y-105352260D01*
X53090708Y-105197791D01*
X53144280Y-105032912D01*
X53161831Y-104922099D01*
X53171400Y-104861687D01*
X53171400Y-104688312D01*
X53155622Y-104588702D01*
X53144280Y-104517088D01*
X53116866Y-104432715D01*
X53090709Y-104352211D01*
X53090708Y-104352208D01*
X53012001Y-104197739D01*
X52991342Y-104169304D01*
X52910101Y-104057486D01*
X52910098Y-104057483D01*
X52907237Y-104053545D01*
X52908598Y-104052555D01*
X52883021Y-103995465D01*
X52893461Y-103926380D01*
X52939594Y-103873906D01*
X53006773Y-103854703D01*
X53025273Y-103856226D01*
X53096703Y-103867539D01*
X53210098Y-103885500D01*
X53210103Y-103885500D01*
X53469902Y-103885500D01*
X53583298Y-103867539D01*
X53726493Y-103844860D01*
X53973572Y-103764579D01*
X54010204Y-103745914D01*
X54078873Y-103733017D01*
X54143613Y-103759292D01*
X54183871Y-103816398D01*
X54190500Y-103856398D01*
X54190500Y-107091830D01*
X54190499Y-107091848D01*
X54190499Y-107257554D01*
X54190498Y-107257554D01*
X54190499Y-107257557D01*
X54231423Y-107410285D01*
X54231425Y-107410288D01*
X54237949Y-107421588D01*
X54310477Y-107547212D01*
X54310481Y-107547217D01*
X54429349Y-107666085D01*
X54429355Y-107666090D01*
X60575681Y-113812416D01*
X60609166Y-113873739D01*
X60612000Y-113900097D01*
X60612000Y-114900001D01*
X60612001Y-114900019D01*
X60622500Y-115002796D01*
X60622501Y-115002799D01*
X60632157Y-115031938D01*
X60677686Y-115169334D01*
X60769788Y-115318656D01*
X60893844Y-115442712D01*
X61043166Y-115534814D01*
X61209703Y-115589999D01*
X61312491Y-115600500D01*
X62512508Y-115600499D01*
X62615297Y-115589999D01*
X62781834Y-115534814D01*
X62931156Y-115442712D01*
X63055212Y-115318656D01*
X63069961Y-115294744D01*
X63121909Y-115248019D01*
X63190871Y-115236796D01*
X63254954Y-115264640D01*
X63293810Y-115322708D01*
X63299500Y-115359840D01*
X63299500Y-123041594D01*
X63279815Y-123108633D01*
X63227011Y-123154388D01*
X63157853Y-123164332D01*
X63094297Y-123135307D01*
X63075183Y-123114481D01*
X63070101Y-123107486D01*
X62947516Y-122984901D01*
X62947514Y-122984899D01*
X62807260Y-122882998D01*
X62652791Y-122804291D01*
X62652788Y-122804290D01*
X62487913Y-122750720D01*
X62316687Y-122723600D01*
X62316682Y-122723600D01*
X62143318Y-122723600D01*
X62143313Y-122723600D01*
X61972086Y-122750720D01*
X61807211Y-122804290D01*
X61807208Y-122804291D01*
X61652739Y-122882998D01*
X61572719Y-122941136D01*
X61512486Y-122984899D01*
X61512484Y-122984901D01*
X61512483Y-122984901D01*
X61389901Y-123107483D01*
X61389901Y-123107484D01*
X61389899Y-123107486D01*
X61389066Y-123108633D01*
X61287998Y-123247739D01*
X61209291Y-123402208D01*
X61209290Y-123402211D01*
X61155720Y-123567086D01*
X61128600Y-123738312D01*
X61128600Y-123911687D01*
X61155720Y-124082913D01*
X61209290Y-124247788D01*
X61209291Y-124247791D01*
X61287998Y-124402260D01*
X61389899Y-124542514D01*
X61512486Y-124665101D01*
X61652740Y-124767002D01*
X61728502Y-124805604D01*
X61807208Y-124845708D01*
X61807211Y-124845709D01*
X61889648Y-124872494D01*
X61972088Y-124899280D01*
X62051391Y-124911840D01*
X62143313Y-124926400D01*
X62143318Y-124926400D01*
X62316687Y-124926400D01*
X62399695Y-124913252D01*
X62487912Y-124899280D01*
X62652791Y-124845708D01*
X62807260Y-124767002D01*
X62947514Y-124665101D01*
X63070101Y-124542514D01*
X63075182Y-124535520D01*
X63130509Y-124492855D01*
X63200122Y-124486874D01*
X63261918Y-124519478D01*
X63296277Y-124580316D01*
X63299500Y-124608405D01*
X63299500Y-142091594D01*
X63279815Y-142158633D01*
X63227011Y-142204388D01*
X63157853Y-142214332D01*
X63094297Y-142185307D01*
X63075183Y-142164481D01*
X63070101Y-142157486D01*
X62947516Y-142034901D01*
X62947514Y-142034899D01*
X62807260Y-141932998D01*
X62652791Y-141854291D01*
X62652788Y-141854290D01*
X62487913Y-141800720D01*
X62316687Y-141773600D01*
X62316682Y-141773600D01*
X62143318Y-141773600D01*
X62143313Y-141773600D01*
X61972086Y-141800720D01*
X61807211Y-141854290D01*
X61807208Y-141854291D01*
X61652739Y-141932998D01*
X61572719Y-141991136D01*
X61512486Y-142034899D01*
X61512484Y-142034901D01*
X61512483Y-142034901D01*
X61389901Y-142157483D01*
X61389901Y-142157484D01*
X61389899Y-142157486D01*
X61389066Y-142158633D01*
X61287998Y-142297739D01*
X61209291Y-142452208D01*
X61209290Y-142452211D01*
X61155720Y-142617086D01*
X61128600Y-142788312D01*
X61128600Y-142961687D01*
X61155720Y-143132913D01*
X61209290Y-143297788D01*
X61209291Y-143297791D01*
X61271571Y-143420020D01*
X61287998Y-143452260D01*
X61389899Y-143592514D01*
X61512486Y-143715101D01*
X61652740Y-143817002D01*
X61680093Y-143830939D01*
X61807208Y-143895708D01*
X61807211Y-143895709D01*
X61889648Y-143922494D01*
X61972088Y-143949280D01*
X62051391Y-143961840D01*
X62143313Y-143976400D01*
X62143318Y-143976400D01*
X62316687Y-143976400D01*
X62399695Y-143963252D01*
X62487912Y-143949280D01*
X62652791Y-143895708D01*
X62807260Y-143817002D01*
X62947514Y-143715101D01*
X63070101Y-143592514D01*
X63075182Y-143585520D01*
X63100163Y-143566256D01*
X63123989Y-143545611D01*
X63127610Y-143545090D01*
X63130509Y-143542855D01*
X63161933Y-143540155D01*
X63193147Y-143535667D01*
X63196475Y-143537187D01*
X63200122Y-143536874D01*
X63228016Y-143551591D01*
X63256703Y-143564692D01*
X63258681Y-143567770D01*
X63261918Y-143569478D01*
X63277428Y-143596941D01*
X63294477Y-143623470D01*
X63295182Y-143628378D01*
X63296277Y-143630316D01*
X63299500Y-143658405D01*
X63299500Y-143823330D01*
X63299499Y-143823348D01*
X63299499Y-143989056D01*
X63340421Y-144141781D01*
X63340422Y-144141783D01*
X63340423Y-144141785D01*
X63342380Y-144145174D01*
X63342383Y-144145180D01*
X63342385Y-144145183D01*
X63419477Y-144278712D01*
X63419481Y-144278717D01*
X63538349Y-144397585D01*
X63538355Y-144397590D01*
X65338181Y-146197416D01*
X65371666Y-146258739D01*
X65374500Y-146285097D01*
X65374500Y-147285001D01*
X65374501Y-147285019D01*
X65385000Y-147387796D01*
X65385001Y-147387799D01*
X65440185Y-147554331D01*
X65440187Y-147554336D01*
X65469435Y-147601754D01*
X65532288Y-147703656D01*
X65656344Y-147827712D01*
X65805666Y-147919814D01*
X65972203Y-147974999D01*
X66074991Y-147985500D01*
X67275008Y-147985499D01*
X67377797Y-147974999D01*
X67544334Y-147919814D01*
X67693656Y-147827712D01*
X67817712Y-147703656D01*
X67909814Y-147554334D01*
X67964999Y-147387797D01*
X67975500Y-147285009D01*
X67975499Y-146084992D01*
X67975498Y-146084983D01*
X84424500Y-146084983D01*
X84424500Y-147285001D01*
X84424501Y-147285018D01*
X84435000Y-147387796D01*
X84435001Y-147387799D01*
X84490185Y-147554331D01*
X84490187Y-147554336D01*
X84519435Y-147601754D01*
X84582288Y-147703656D01*
X84706344Y-147827712D01*
X84855666Y-147919814D01*
X85022203Y-147974999D01*
X85124991Y-147985500D01*
X86325008Y-147985499D01*
X86427797Y-147974999D01*
X86594334Y-147919814D01*
X86743656Y-147827712D01*
X86867712Y-147703656D01*
X86959814Y-147554334D01*
X87014999Y-147387797D01*
X87025500Y-147285009D01*
X87025499Y-146084992D01*
X87014999Y-145982203D01*
X86959814Y-145815666D01*
X86867712Y-145666344D01*
X86743656Y-145542288D01*
X86594334Y-145450186D01*
X86427797Y-145395001D01*
X86427795Y-145395000D01*
X86325010Y-145384500D01*
X85124998Y-145384500D01*
X85124981Y-145384501D01*
X85022203Y-145395000D01*
X85022200Y-145395001D01*
X84855668Y-145450185D01*
X84855663Y-145450187D01*
X84706342Y-145542289D01*
X84582289Y-145666342D01*
X84490187Y-145815663D01*
X84490186Y-145815666D01*
X84435001Y-145982203D01*
X84435001Y-145982204D01*
X84435000Y-145982204D01*
X84424500Y-146084983D01*
X67975498Y-146084983D01*
X67964999Y-145982203D01*
X67909814Y-145815666D01*
X67817712Y-145666344D01*
X67693656Y-145542288D01*
X67544334Y-145450186D01*
X67377797Y-145395001D01*
X67377795Y-145395000D01*
X67275016Y-145384500D01*
X67275009Y-145384500D01*
X66275098Y-145384500D01*
X66208059Y-145364815D01*
X66187417Y-145348181D01*
X64536819Y-143697583D01*
X64503334Y-143636260D01*
X64500500Y-143609902D01*
X64500500Y-142788312D01*
X70018600Y-142788312D01*
X70018600Y-142961687D01*
X70045720Y-143132913D01*
X70099290Y-143297788D01*
X70099291Y-143297791D01*
X70161571Y-143420020D01*
X70177998Y-143452260D01*
X70279899Y-143592514D01*
X70402486Y-143715101D01*
X70542740Y-143817002D01*
X70570093Y-143830939D01*
X70697208Y-143895708D01*
X70697211Y-143895709D01*
X70779648Y-143922494D01*
X70862088Y-143949280D01*
X70941391Y-143961840D01*
X71033313Y-143976400D01*
X71033318Y-143976400D01*
X71206687Y-143976400D01*
X71289695Y-143963252D01*
X71377912Y-143949280D01*
X71542791Y-143895708D01*
X71697260Y-143817002D01*
X71837514Y-143715101D01*
X71960101Y-143592514D01*
X72062002Y-143452260D01*
X72140708Y-143297791D01*
X72194280Y-143132912D01*
X72211831Y-143022099D01*
X72221400Y-142961687D01*
X72221400Y-142788312D01*
X72214260Y-142743233D01*
X72211831Y-142727900D01*
X73955600Y-142727900D01*
X73955600Y-143022099D01*
X73955601Y-143022116D01*
X73987344Y-143263233D01*
X73994002Y-143313800D01*
X74048960Y-143518907D01*
X74070152Y-143597994D01*
X74182734Y-143869794D01*
X74182742Y-143869810D01*
X74329840Y-144124589D01*
X74329851Y-144124605D01*
X74508948Y-144358009D01*
X74508954Y-144358016D01*
X74716983Y-144566045D01*
X74716989Y-144566050D01*
X74950403Y-144745155D01*
X74950410Y-144745159D01*
X75205189Y-144892257D01*
X75205205Y-144892265D01*
X75477005Y-145004847D01*
X75477007Y-145004847D01*
X75477013Y-145004850D01*
X75761200Y-145080998D01*
X76052894Y-145119400D01*
X76052901Y-145119400D01*
X76347099Y-145119400D01*
X76347106Y-145119400D01*
X76638800Y-145080998D01*
X76922987Y-145004850D01*
X76996318Y-144974475D01*
X77194794Y-144892265D01*
X77194797Y-144892263D01*
X77194803Y-144892261D01*
X77449597Y-144745155D01*
X77683011Y-144566050D01*
X77891050Y-144358011D01*
X78070155Y-144124597D01*
X78217261Y-143869803D01*
X78255115Y-143778416D01*
X78329847Y-143597994D01*
X78329846Y-143597994D01*
X78329850Y-143597987D01*
X78405998Y-143313800D01*
X78444400Y-143022106D01*
X78444400Y-142788312D01*
X80178600Y-142788312D01*
X80178600Y-142961687D01*
X80205720Y-143132913D01*
X80259290Y-143297788D01*
X80259291Y-143297791D01*
X80321571Y-143420020D01*
X80337998Y-143452260D01*
X80439899Y-143592514D01*
X80562486Y-143715101D01*
X80702740Y-143817002D01*
X80730093Y-143830939D01*
X80857208Y-143895708D01*
X80857211Y-143895709D01*
X80939648Y-143922494D01*
X81022088Y-143949280D01*
X81101391Y-143961840D01*
X81193313Y-143976400D01*
X81193318Y-143976400D01*
X81366687Y-143976400D01*
X81449695Y-143963252D01*
X81537912Y-143949280D01*
X81702791Y-143895708D01*
X81857260Y-143817002D01*
X81997514Y-143715101D01*
X82120101Y-143592514D01*
X82222002Y-143452260D01*
X82300708Y-143297791D01*
X82354280Y-143132912D01*
X82371831Y-143022099D01*
X82381400Y-142961687D01*
X82381400Y-142788312D01*
X89068600Y-142788312D01*
X89068600Y-142961687D01*
X89095720Y-143132913D01*
X89149290Y-143297788D01*
X89149291Y-143297791D01*
X89211571Y-143420020D01*
X89227998Y-143452260D01*
X89329899Y-143592514D01*
X89452486Y-143715101D01*
X89592740Y-143817002D01*
X89620093Y-143830939D01*
X89747208Y-143895708D01*
X89747211Y-143895709D01*
X89829648Y-143922494D01*
X89912088Y-143949280D01*
X89991391Y-143961840D01*
X90083313Y-143976400D01*
X90083318Y-143976400D01*
X90256687Y-143976400D01*
X90339695Y-143963252D01*
X90427912Y-143949280D01*
X90592791Y-143895708D01*
X90747260Y-143817002D01*
X90887514Y-143715101D01*
X91010101Y-143592514D01*
X91112002Y-143452260D01*
X91190708Y-143297791D01*
X91244280Y-143132912D01*
X91261831Y-143022099D01*
X91271400Y-142961687D01*
X91271400Y-142788312D01*
X91264260Y-142743233D01*
X91261831Y-142727900D01*
X93005600Y-142727900D01*
X93005600Y-143022099D01*
X93005601Y-143022116D01*
X93037344Y-143263233D01*
X93044002Y-143313800D01*
X93098960Y-143518907D01*
X93120152Y-143597994D01*
X93232734Y-143869794D01*
X93232742Y-143869810D01*
X93379840Y-144124589D01*
X93379851Y-144124605D01*
X93558948Y-144358009D01*
X93558954Y-144358016D01*
X93766983Y-144566045D01*
X93766989Y-144566050D01*
X94000403Y-144745155D01*
X94000410Y-144745159D01*
X94255189Y-144892257D01*
X94255205Y-144892265D01*
X94527005Y-145004847D01*
X94527007Y-145004847D01*
X94527013Y-145004850D01*
X94811200Y-145080998D01*
X95102894Y-145119400D01*
X95102901Y-145119400D01*
X95397099Y-145119400D01*
X95397106Y-145119400D01*
X95688800Y-145080998D01*
X95972987Y-145004850D01*
X96046318Y-144974475D01*
X96244794Y-144892265D01*
X96244797Y-144892263D01*
X96244803Y-144892261D01*
X96499597Y-144745155D01*
X96733011Y-144566050D01*
X96941050Y-144358011D01*
X97120155Y-144124597D01*
X97267261Y-143869803D01*
X97305115Y-143778416D01*
X97379847Y-143597994D01*
X97379846Y-143597994D01*
X97379850Y-143597987D01*
X97455998Y-143313800D01*
X97494400Y-143022106D01*
X97494400Y-142788312D01*
X99228600Y-142788312D01*
X99228600Y-142961687D01*
X99255720Y-143132913D01*
X99309290Y-143297788D01*
X99309291Y-143297791D01*
X99371571Y-143420020D01*
X99387998Y-143452260D01*
X99489899Y-143592514D01*
X99612486Y-143715101D01*
X99752740Y-143817002D01*
X99780093Y-143830939D01*
X99907208Y-143895708D01*
X99907211Y-143895709D01*
X99989648Y-143922494D01*
X100072088Y-143949280D01*
X100151391Y-143961840D01*
X100243313Y-143976400D01*
X100243318Y-143976400D01*
X100416687Y-143976400D01*
X100499695Y-143963252D01*
X100587912Y-143949280D01*
X100752791Y-143895708D01*
X100907260Y-143817002D01*
X101047514Y-143715101D01*
X101170101Y-143592514D01*
X101272002Y-143452260D01*
X101350708Y-143297791D01*
X101404280Y-143132912D01*
X101421831Y-143022099D01*
X101431400Y-142961687D01*
X101431400Y-142788312D01*
X101410345Y-142655381D01*
X101404280Y-142617088D01*
X101350708Y-142452209D01*
X101350708Y-142452208D01*
X101272001Y-142297739D01*
X101170101Y-142157486D01*
X101047514Y-142034899D01*
X100907260Y-141932998D01*
X100752791Y-141854291D01*
X100752788Y-141854290D01*
X100587913Y-141800720D01*
X100416687Y-141773600D01*
X100416682Y-141773600D01*
X100243318Y-141773600D01*
X100243313Y-141773600D01*
X100072086Y-141800720D01*
X99907211Y-141854290D01*
X99907208Y-141854291D01*
X99752739Y-141932998D01*
X99672719Y-141991136D01*
X99612486Y-142034899D01*
X99612484Y-142034901D01*
X99612483Y-142034901D01*
X99489901Y-142157483D01*
X99489901Y-142157484D01*
X99489899Y-142157486D01*
X99489066Y-142158633D01*
X99387998Y-142297739D01*
X99309291Y-142452208D01*
X99309290Y-142452211D01*
X99255720Y-142617086D01*
X99228600Y-142788312D01*
X97494400Y-142788312D01*
X97494400Y-142727894D01*
X97455998Y-142436200D01*
X97379850Y-142152013D01*
X97379847Y-142152005D01*
X97267265Y-141880205D01*
X97267257Y-141880189D01*
X97120159Y-141625410D01*
X97120155Y-141625403D01*
X96941050Y-141391989D01*
X96941045Y-141391983D01*
X96733016Y-141183954D01*
X96733009Y-141183948D01*
X96499605Y-141004851D01*
X96499603Y-141004849D01*
X96499597Y-141004845D01*
X96499592Y-141004842D01*
X96499589Y-141004840D01*
X96244810Y-140857742D01*
X96244794Y-140857734D01*
X95972994Y-140745152D01*
X95714711Y-140675945D01*
X95688800Y-140669002D01*
X95688799Y-140669001D01*
X95688796Y-140669001D01*
X95397116Y-140630601D01*
X95397111Y-140630600D01*
X95397106Y-140630600D01*
X95102894Y-140630600D01*
X95102888Y-140630600D01*
X95102883Y-140630601D01*
X94811203Y-140669001D01*
X94527005Y-140745152D01*
X94255205Y-140857734D01*
X94255189Y-140857742D01*
X94000410Y-141004840D01*
X94000394Y-141004851D01*
X93766990Y-141183948D01*
X93766983Y-141183954D01*
X93558954Y-141391983D01*
X93558948Y-141391990D01*
X93379851Y-141625394D01*
X93379840Y-141625410D01*
X93232742Y-141880189D01*
X93232734Y-141880205D01*
X93120152Y-142152005D01*
X93044001Y-142436203D01*
X93005601Y-142727883D01*
X93005600Y-142727900D01*
X91261831Y-142727900D01*
X91250345Y-142655381D01*
X91244280Y-142617088D01*
X91190708Y-142452209D01*
X91190708Y-142452208D01*
X91112001Y-142297739D01*
X91010934Y-142158633D01*
X91010101Y-142157486D01*
X91010098Y-142157483D01*
X91007237Y-142153545D01*
X91008598Y-142152555D01*
X90983021Y-142095465D01*
X90993461Y-142026380D01*
X91039594Y-141973906D01*
X91106773Y-141954703D01*
X91125273Y-141956226D01*
X91196703Y-141967539D01*
X91310098Y-141985500D01*
X91310103Y-141985500D01*
X91569902Y-141985500D01*
X91683298Y-141967539D01*
X91826493Y-141944860D01*
X92073572Y-141864579D01*
X92305051Y-141746634D01*
X92515229Y-141593931D01*
X92698931Y-141410229D01*
X92851634Y-141200051D01*
X92969579Y-140968572D01*
X93049860Y-140721493D01*
X93072644Y-140577636D01*
X93090500Y-140464902D01*
X93090500Y-140205097D01*
X93053865Y-139973796D01*
X93049860Y-139948507D01*
X92969579Y-139701428D01*
X92969577Y-139701425D01*
X92969577Y-139701423D01*
X92899667Y-139564219D01*
X92851634Y-139469949D01*
X92698931Y-139259771D01*
X92515229Y-139076069D01*
X92515225Y-139076066D01*
X92305054Y-138923368D01*
X92305053Y-138923367D01*
X92305051Y-138923366D01*
X92232764Y-138886534D01*
X92073576Y-138805422D01*
X91826493Y-138725140D01*
X91569902Y-138684500D01*
X91569897Y-138684500D01*
X91310103Y-138684500D01*
X91310098Y-138684500D01*
X91053506Y-138725140D01*
X90806423Y-138805422D01*
X90574945Y-138923368D01*
X90364774Y-139076066D01*
X90364768Y-139076071D01*
X90181071Y-139259768D01*
X90181066Y-139259774D01*
X90028368Y-139469945D01*
X89910422Y-139701423D01*
X89830140Y-139948506D01*
X89789500Y-140205097D01*
X89789500Y-140464902D01*
X89830140Y-140721493D01*
X89910422Y-140968576D01*
X90028368Y-141200054D01*
X90181066Y-141410225D01*
X90181071Y-141410231D01*
X90332759Y-141561919D01*
X90366244Y-141623242D01*
X90361260Y-141692934D01*
X90319388Y-141748867D01*
X90253924Y-141773284D01*
X90245078Y-141773600D01*
X90083313Y-141773600D01*
X89912086Y-141800720D01*
X89747211Y-141854290D01*
X89747208Y-141854291D01*
X89592739Y-141932998D01*
X89512719Y-141991136D01*
X89452486Y-142034899D01*
X89452484Y-142034901D01*
X89452483Y-142034901D01*
X89329901Y-142157483D01*
X89329901Y-142157484D01*
X89329899Y-142157486D01*
X89329066Y-142158633D01*
X89227998Y-142297739D01*
X89149291Y-142452208D01*
X89149290Y-142452211D01*
X89095720Y-142617086D01*
X89068600Y-142788312D01*
X82381400Y-142788312D01*
X82360345Y-142655381D01*
X82354280Y-142617088D01*
X82300708Y-142452209D01*
X82300708Y-142452208D01*
X82222001Y-142297739D01*
X82120101Y-142157486D01*
X81997514Y-142034899D01*
X81857260Y-141932998D01*
X81702791Y-141854291D01*
X81702788Y-141854290D01*
X81537913Y-141800720D01*
X81366687Y-141773600D01*
X81366682Y-141773600D01*
X81193318Y-141773600D01*
X81193313Y-141773600D01*
X81022086Y-141800720D01*
X80857211Y-141854290D01*
X80857208Y-141854291D01*
X80702739Y-141932998D01*
X80622719Y-141991136D01*
X80562486Y-142034899D01*
X80562484Y-142034901D01*
X80562483Y-142034901D01*
X80439901Y-142157483D01*
X80439901Y-142157484D01*
X80439899Y-142157486D01*
X80439066Y-142158633D01*
X80337998Y-142297739D01*
X80259291Y-142452208D01*
X80259290Y-142452211D01*
X80205720Y-142617086D01*
X80178600Y-142788312D01*
X78444400Y-142788312D01*
X78444400Y-142727894D01*
X78405998Y-142436200D01*
X78329850Y-142152013D01*
X78329847Y-142152005D01*
X78217265Y-141880205D01*
X78217257Y-141880189D01*
X78070159Y-141625410D01*
X78070155Y-141625403D01*
X77891050Y-141391989D01*
X77891045Y-141391983D01*
X77683016Y-141183954D01*
X77683009Y-141183948D01*
X77449605Y-141004851D01*
X77449603Y-141004849D01*
X77449597Y-141004845D01*
X77449592Y-141004842D01*
X77449589Y-141004840D01*
X77194810Y-140857742D01*
X77194794Y-140857734D01*
X76922994Y-140745152D01*
X76664711Y-140675945D01*
X76638800Y-140669002D01*
X76638799Y-140669001D01*
X76638796Y-140669001D01*
X76347116Y-140630601D01*
X76347111Y-140630600D01*
X76347106Y-140630600D01*
X76052894Y-140630600D01*
X76052888Y-140630600D01*
X76052883Y-140630601D01*
X75761203Y-140669001D01*
X75477005Y-140745152D01*
X75205205Y-140857734D01*
X75205189Y-140857742D01*
X74950410Y-141004840D01*
X74950394Y-141004851D01*
X74716990Y-141183948D01*
X74716983Y-141183954D01*
X74508954Y-141391983D01*
X74508948Y-141391990D01*
X74329851Y-141625394D01*
X74329840Y-141625410D01*
X74182742Y-141880189D01*
X74182734Y-141880205D01*
X74070152Y-142152005D01*
X73994001Y-142436203D01*
X73955601Y-142727883D01*
X73955600Y-142727900D01*
X72211831Y-142727900D01*
X72200345Y-142655381D01*
X72194280Y-142617088D01*
X72140708Y-142452209D01*
X72140708Y-142452208D01*
X72062001Y-142297739D01*
X71960934Y-142158633D01*
X71960101Y-142157486D01*
X71960098Y-142157483D01*
X71957237Y-142153545D01*
X71958598Y-142152555D01*
X71933021Y-142095465D01*
X71943461Y-142026380D01*
X71989594Y-141973906D01*
X72056773Y-141954703D01*
X72075273Y-141956226D01*
X72146703Y-141967539D01*
X72260098Y-141985500D01*
X72260103Y-141985500D01*
X72519902Y-141985500D01*
X72633298Y-141967539D01*
X72776493Y-141944860D01*
X73023572Y-141864579D01*
X73255051Y-141746634D01*
X73465229Y-141593931D01*
X73648931Y-141410229D01*
X73801634Y-141200051D01*
X73919579Y-140968572D01*
X73999860Y-140721493D01*
X74022644Y-140577636D01*
X74040500Y-140464902D01*
X74040500Y-140205097D01*
X74003865Y-139973796D01*
X73999860Y-139948507D01*
X73919579Y-139701428D01*
X73919577Y-139701425D01*
X73919577Y-139701423D01*
X73849667Y-139564219D01*
X73801634Y-139469949D01*
X73648931Y-139259771D01*
X73465229Y-139076069D01*
X73465225Y-139076066D01*
X73255054Y-138923368D01*
X73255053Y-138923367D01*
X73255051Y-138923366D01*
X73182764Y-138886534D01*
X73023576Y-138805422D01*
X72776493Y-138725140D01*
X72519902Y-138684500D01*
X72519897Y-138684500D01*
X72260103Y-138684500D01*
X72260098Y-138684500D01*
X72003506Y-138725140D01*
X71756423Y-138805422D01*
X71524945Y-138923368D01*
X71314774Y-139076066D01*
X71314768Y-139076071D01*
X71131071Y-139259768D01*
X71131066Y-139259774D01*
X70978368Y-139469945D01*
X70860422Y-139701423D01*
X70780140Y-139948506D01*
X70739500Y-140205097D01*
X70739500Y-140464902D01*
X70780140Y-140721493D01*
X70860422Y-140968576D01*
X70978368Y-141200054D01*
X71131066Y-141410225D01*
X71131071Y-141410231D01*
X71282759Y-141561919D01*
X71316244Y-141623242D01*
X71311260Y-141692934D01*
X71269388Y-141748867D01*
X71203924Y-141773284D01*
X71195078Y-141773600D01*
X71033313Y-141773600D01*
X70862086Y-141800720D01*
X70697211Y-141854290D01*
X70697208Y-141854291D01*
X70542739Y-141932998D01*
X70462719Y-141991136D01*
X70402486Y-142034899D01*
X70402484Y-142034901D01*
X70402483Y-142034901D01*
X70279901Y-142157483D01*
X70279901Y-142157484D01*
X70279899Y-142157486D01*
X70279066Y-142158633D01*
X70177998Y-142297739D01*
X70099291Y-142452208D01*
X70099290Y-142452211D01*
X70045720Y-142617086D01*
X70018600Y-142788312D01*
X64500500Y-142788312D01*
X64500500Y-138962648D01*
X65374500Y-138962648D01*
X65374500Y-139167351D01*
X65406522Y-139369534D01*
X65469781Y-139564223D01*
X65562715Y-139746613D01*
X65683028Y-139912213D01*
X65827786Y-140056971D01*
X65982749Y-140169556D01*
X65993390Y-140177287D01*
X66109607Y-140236503D01*
X66175776Y-140270218D01*
X66175778Y-140270218D01*
X66175781Y-140270220D01*
X66280137Y-140304127D01*
X66370465Y-140333477D01*
X66471557Y-140349488D01*
X66572648Y-140365500D01*
X66572649Y-140365500D01*
X66777351Y-140365500D01*
X66777352Y-140365500D01*
X66979534Y-140333477D01*
X67174219Y-140270220D01*
X67356610Y-140177287D01*
X67449590Y-140109732D01*
X67522213Y-140056971D01*
X67522215Y-140056968D01*
X67522219Y-140056966D01*
X67666966Y-139912219D01*
X67666968Y-139912215D01*
X67666971Y-139912213D01*
X67719732Y-139839590D01*
X67787287Y-139746610D01*
X67880220Y-139564219D01*
X67943477Y-139369534D01*
X67975500Y-139167352D01*
X67975500Y-138962648D01*
X67960861Y-138870225D01*
X67943477Y-138760465D01*
X67886133Y-138583979D01*
X67880220Y-138565781D01*
X67880218Y-138565778D01*
X67880218Y-138565776D01*
X67810308Y-138428572D01*
X67787287Y-138383390D01*
X67779556Y-138372749D01*
X67666971Y-138217786D01*
X67522213Y-138073028D01*
X67356613Y-137952715D01*
X67356612Y-137952714D01*
X67356610Y-137952713D01*
X67274485Y-137910868D01*
X67174223Y-137859781D01*
X66979534Y-137796522D01*
X66892286Y-137782704D01*
X66864203Y-137778256D01*
X66777352Y-137764500D01*
X66572648Y-137764500D01*
X66548329Y-137768351D01*
X66370465Y-137796522D01*
X66175776Y-137859781D01*
X65993386Y-137952715D01*
X65827786Y-138073028D01*
X65683028Y-138217786D01*
X65562715Y-138383386D01*
X65469781Y-138565776D01*
X65406522Y-138760465D01*
X65374500Y-138962648D01*
X64500500Y-138962648D01*
X64500500Y-137665097D01*
X77089500Y-137665097D01*
X77089500Y-137924902D01*
X77130140Y-138181493D01*
X77210422Y-138428576D01*
X77278949Y-138563066D01*
X77328366Y-138660051D01*
X77481069Y-138870229D01*
X77664771Y-139053931D01*
X77874949Y-139206634D01*
X77979230Y-139259768D01*
X78106423Y-139324577D01*
X78106425Y-139324577D01*
X78106428Y-139324579D01*
X78353507Y-139404860D01*
X78485706Y-139425797D01*
X78610098Y-139445500D01*
X78610103Y-139445500D01*
X78869902Y-139445500D01*
X78983298Y-139427539D01*
X79126493Y-139404860D01*
X79373572Y-139324579D01*
X79605051Y-139206634D01*
X79815229Y-139053931D01*
X79906512Y-138962648D01*
X84424500Y-138962648D01*
X84424500Y-139167351D01*
X84456522Y-139369534D01*
X84519781Y-139564223D01*
X84612715Y-139746613D01*
X84733028Y-139912213D01*
X84877786Y-140056971D01*
X85032749Y-140169556D01*
X85043390Y-140177287D01*
X85159607Y-140236503D01*
X85225776Y-140270218D01*
X85225778Y-140270218D01*
X85225781Y-140270220D01*
X85330137Y-140304127D01*
X85420465Y-140333477D01*
X85521557Y-140349488D01*
X85622648Y-140365500D01*
X85622649Y-140365500D01*
X85827351Y-140365500D01*
X85827352Y-140365500D01*
X86029534Y-140333477D01*
X86224219Y-140270220D01*
X86406610Y-140177287D01*
X86499590Y-140109732D01*
X86572213Y-140056971D01*
X86572215Y-140056968D01*
X86572219Y-140056966D01*
X86716966Y-139912219D01*
X86716968Y-139912215D01*
X86716971Y-139912213D01*
X86769732Y-139839590D01*
X86837287Y-139746610D01*
X86930220Y-139564219D01*
X86993477Y-139369534D01*
X87025500Y-139167352D01*
X87025500Y-138962648D01*
X87010861Y-138870225D01*
X86993477Y-138760465D01*
X86936133Y-138583979D01*
X86930220Y-138565781D01*
X86930218Y-138565778D01*
X86930218Y-138565776D01*
X86860308Y-138428572D01*
X86837287Y-138383390D01*
X86829556Y-138372749D01*
X86716971Y-138217786D01*
X86572213Y-138073028D01*
X86406613Y-137952715D01*
X86406612Y-137952714D01*
X86406610Y-137952713D01*
X86324485Y-137910868D01*
X86224223Y-137859781D01*
X86029534Y-137796522D01*
X85942286Y-137782704D01*
X85914203Y-137778256D01*
X85827352Y-137764500D01*
X85622648Y-137764500D01*
X85598329Y-137768351D01*
X85420465Y-137796522D01*
X85225776Y-137859781D01*
X85043386Y-137952715D01*
X84877786Y-138073028D01*
X84733028Y-138217786D01*
X84612715Y-138383386D01*
X84519781Y-138565776D01*
X84456522Y-138760465D01*
X84424500Y-138962648D01*
X79906512Y-138962648D01*
X79998931Y-138870229D01*
X80151634Y-138660051D01*
X80269579Y-138428572D01*
X80349860Y-138181493D01*
X80372539Y-138038298D01*
X80390500Y-137924902D01*
X80390500Y-137665097D01*
X96139500Y-137665097D01*
X96139500Y-137924902D01*
X96180140Y-138181493D01*
X96260422Y-138428576D01*
X96328949Y-138563066D01*
X96378366Y-138660051D01*
X96531069Y-138870229D01*
X96714771Y-139053931D01*
X96924949Y-139206634D01*
X97029230Y-139259768D01*
X97156423Y-139324577D01*
X97156425Y-139324577D01*
X97156428Y-139324579D01*
X97403507Y-139404860D01*
X97535706Y-139425797D01*
X97660098Y-139445500D01*
X97660103Y-139445500D01*
X97919902Y-139445500D01*
X98033298Y-139427539D01*
X98176493Y-139404860D01*
X98423572Y-139324579D01*
X98655051Y-139206634D01*
X98865229Y-139053931D01*
X99048931Y-138870229D01*
X99201634Y-138660051D01*
X99319579Y-138428572D01*
X99399860Y-138181493D01*
X99422539Y-138038298D01*
X99440500Y-137924902D01*
X99440500Y-137665097D01*
X99418947Y-137529021D01*
X99399860Y-137408507D01*
X99319579Y-137161428D01*
X99319577Y-137161425D01*
X99319577Y-137161423D01*
X99276787Y-137077445D01*
X99201634Y-136929949D01*
X99048931Y-136719771D01*
X98865229Y-136536069D01*
X98703983Y-136418917D01*
X98655054Y-136383368D01*
X98655053Y-136383367D01*
X98655051Y-136383366D01*
X98582764Y-136346534D01*
X98423576Y-136265422D01*
X98176493Y-136185140D01*
X97919902Y-136144500D01*
X97919897Y-136144500D01*
X97660103Y-136144500D01*
X97660098Y-136144500D01*
X97403506Y-136185140D01*
X97156423Y-136265422D01*
X96924945Y-136383368D01*
X96714774Y-136536066D01*
X96714768Y-136536071D01*
X96531071Y-136719768D01*
X96531066Y-136719774D01*
X96378368Y-136929945D01*
X96260422Y-137161423D01*
X96180140Y-137408506D01*
X96139500Y-137665097D01*
X80390500Y-137665097D01*
X80368947Y-137529021D01*
X80349860Y-137408507D01*
X80269579Y-137161428D01*
X80269577Y-137161425D01*
X80269577Y-137161423D01*
X80226787Y-137077445D01*
X80151634Y-136929949D01*
X79998931Y-136719771D01*
X79815229Y-136536069D01*
X79653983Y-136418917D01*
X79605054Y-136383368D01*
X79605053Y-136383367D01*
X79605051Y-136383366D01*
X79532764Y-136346534D01*
X79373576Y-136265422D01*
X79126493Y-136185140D01*
X78869902Y-136144500D01*
X78869897Y-136144500D01*
X78610103Y-136144500D01*
X78610098Y-136144500D01*
X78353506Y-136185140D01*
X78106423Y-136265422D01*
X77874945Y-136383368D01*
X77664774Y-136536066D01*
X77664768Y-136536071D01*
X77481071Y-136719768D01*
X77481066Y-136719774D01*
X77328368Y-136929945D01*
X77210422Y-137161423D01*
X77130140Y-137408506D01*
X77089500Y-137665097D01*
X64500500Y-137665097D01*
X64500500Y-133247648D01*
X71089500Y-133247648D01*
X71089500Y-133452351D01*
X71121522Y-133654534D01*
X71184781Y-133849223D01*
X71277715Y-134031613D01*
X71398028Y-134197213D01*
X71542786Y-134341971D01*
X71697749Y-134454556D01*
X71708390Y-134462287D01*
X71824607Y-134521503D01*
X71890776Y-134555218D01*
X71890778Y-134555218D01*
X71890781Y-134555220D01*
X71981856Y-134584812D01*
X72085465Y-134618477D01*
X72186557Y-134634488D01*
X72287648Y-134650500D01*
X72287649Y-134650500D01*
X72492351Y-134650500D01*
X72492352Y-134650500D01*
X72694534Y-134618477D01*
X72889219Y-134555220D01*
X73071610Y-134462287D01*
X73200482Y-134368657D01*
X73237213Y-134341971D01*
X73237215Y-134341968D01*
X73237219Y-134341966D01*
X73381966Y-134197219D01*
X73381968Y-134197215D01*
X73381971Y-134197213D01*
X73486892Y-134052799D01*
X73502287Y-134031610D01*
X73595220Y-133849219D01*
X73658477Y-133654534D01*
X73690500Y-133452352D01*
X73690500Y-133247648D01*
X73658477Y-133045466D01*
X73595220Y-132850781D01*
X73595218Y-132850778D01*
X73595218Y-132850776D01*
X73570940Y-132803129D01*
X73543861Y-132749983D01*
X78709500Y-132749983D01*
X78709500Y-133950001D01*
X78709501Y-133950018D01*
X78720000Y-134052796D01*
X78720001Y-134052799D01*
X78775185Y-134219331D01*
X78775187Y-134219336D01*
X78785976Y-134236827D01*
X78867288Y-134368656D01*
X78991344Y-134492712D01*
X79140666Y-134584814D01*
X79307203Y-134639999D01*
X79409991Y-134650500D01*
X80610008Y-134650499D01*
X80712797Y-134639999D01*
X80879334Y-134584814D01*
X81028656Y-134492712D01*
X81152712Y-134368656D01*
X81244814Y-134219334D01*
X81299999Y-134052797D01*
X81310500Y-133950009D01*
X81310499Y-133247648D01*
X90139500Y-133247648D01*
X90139500Y-133452351D01*
X90171522Y-133654534D01*
X90234781Y-133849223D01*
X90327715Y-134031613D01*
X90448028Y-134197213D01*
X90592786Y-134341971D01*
X90747749Y-134454556D01*
X90758390Y-134462287D01*
X90874607Y-134521503D01*
X90940776Y-134555218D01*
X90940778Y-134555218D01*
X90940781Y-134555220D01*
X91031856Y-134584812D01*
X91135465Y-134618477D01*
X91236557Y-134634488D01*
X91337648Y-134650500D01*
X91337649Y-134650500D01*
X91542351Y-134650500D01*
X91542352Y-134650500D01*
X91744534Y-134618477D01*
X91939219Y-134555220D01*
X92121610Y-134462287D01*
X92250482Y-134368657D01*
X92287213Y-134341971D01*
X92287215Y-134341968D01*
X92287219Y-134341966D01*
X92431966Y-134197219D01*
X92431968Y-134197215D01*
X92431971Y-134197213D01*
X92536892Y-134052799D01*
X92552287Y-134031610D01*
X92645220Y-133849219D01*
X92708477Y-133654534D01*
X92740500Y-133452352D01*
X92740500Y-133247648D01*
X92708477Y-133045466D01*
X92645220Y-132850781D01*
X92645218Y-132850778D01*
X92645218Y-132850776D01*
X92620940Y-132803129D01*
X92593861Y-132749983D01*
X97759500Y-132749983D01*
X97759500Y-133950001D01*
X97759501Y-133950018D01*
X97770000Y-134052796D01*
X97770001Y-134052799D01*
X97825185Y-134219331D01*
X97825187Y-134219336D01*
X97835976Y-134236827D01*
X97917288Y-134368656D01*
X98041344Y-134492712D01*
X98190666Y-134584814D01*
X98357203Y-134639999D01*
X98459991Y-134650500D01*
X99660008Y-134650499D01*
X99762797Y-134639999D01*
X99929334Y-134584814D01*
X100078656Y-134492712D01*
X100202712Y-134368656D01*
X100294814Y-134219334D01*
X100349999Y-134052797D01*
X100360500Y-133950009D01*
X100360499Y-132749992D01*
X100349999Y-132647203D01*
X100294814Y-132480666D01*
X100202712Y-132331344D01*
X100078656Y-132207288D01*
X99929334Y-132115186D01*
X99762797Y-132060001D01*
X99762795Y-132060000D01*
X99660010Y-132049500D01*
X98459998Y-132049500D01*
X98459981Y-132049501D01*
X98357203Y-132060000D01*
X98357200Y-132060001D01*
X98190668Y-132115185D01*
X98190663Y-132115187D01*
X98041342Y-132207289D01*
X97917289Y-132331342D01*
X97825187Y-132480663D01*
X97825185Y-132480668D01*
X97810269Y-132525682D01*
X97770001Y-132647203D01*
X97770001Y-132647204D01*
X97770000Y-132647204D01*
X97759500Y-132749983D01*
X92593861Y-132749983D01*
X92552284Y-132668385D01*
X92431971Y-132502786D01*
X92287213Y-132358028D01*
X92121613Y-132237715D01*
X92121612Y-132237714D01*
X92121610Y-132237713D01*
X92061898Y-132207288D01*
X91939223Y-132144781D01*
X91744534Y-132081522D01*
X91569995Y-132053878D01*
X91542352Y-132049500D01*
X91337648Y-132049500D01*
X91313329Y-132053351D01*
X91135465Y-132081522D01*
X90940776Y-132144781D01*
X90758386Y-132237715D01*
X90592786Y-132358028D01*
X90448028Y-132502786D01*
X90327715Y-132668386D01*
X90234781Y-132850776D01*
X90171522Y-133045465D01*
X90139500Y-133247648D01*
X81310499Y-133247648D01*
X81310499Y-132749992D01*
X81299999Y-132647203D01*
X81244814Y-132480666D01*
X81152712Y-132331344D01*
X81028656Y-132207288D01*
X80879334Y-132115186D01*
X80712797Y-132060001D01*
X80712795Y-132060000D01*
X80610010Y-132049500D01*
X79409998Y-132049500D01*
X79409981Y-132049501D01*
X79307203Y-132060000D01*
X79307200Y-132060001D01*
X79140668Y-132115185D01*
X79140663Y-132115187D01*
X78991342Y-132207289D01*
X78867289Y-132331342D01*
X78775187Y-132480663D01*
X78775185Y-132480668D01*
X78760269Y-132525682D01*
X78720001Y-132647203D01*
X78720001Y-132647204D01*
X78720000Y-132647204D01*
X78709500Y-132749983D01*
X73543861Y-132749983D01*
X73502284Y-132668385D01*
X73381971Y-132502786D01*
X73237213Y-132358028D01*
X73071613Y-132237715D01*
X73071612Y-132237714D01*
X73071610Y-132237713D01*
X73011898Y-132207288D01*
X72889223Y-132144781D01*
X72694534Y-132081522D01*
X72519995Y-132053878D01*
X72492352Y-132049500D01*
X72287648Y-132049500D01*
X72263329Y-132053351D01*
X72085465Y-132081522D01*
X71890776Y-132144781D01*
X71708386Y-132237715D01*
X71542786Y-132358028D01*
X71398028Y-132502786D01*
X71277715Y-132668386D01*
X71184781Y-132850776D01*
X71121522Y-133045465D01*
X71089500Y-133247648D01*
X64500500Y-133247648D01*
X64500500Y-123738312D01*
X70018600Y-123738312D01*
X70018600Y-123911687D01*
X70045720Y-124082913D01*
X70099290Y-124247788D01*
X70099291Y-124247791D01*
X70177998Y-124402260D01*
X70279899Y-124542514D01*
X70402486Y-124665101D01*
X70542740Y-124767002D01*
X70618502Y-124805604D01*
X70697208Y-124845708D01*
X70697211Y-124845709D01*
X70779648Y-124872494D01*
X70862088Y-124899280D01*
X70941391Y-124911840D01*
X71033313Y-124926400D01*
X71033318Y-124926400D01*
X71206687Y-124926400D01*
X71289695Y-124913252D01*
X71377912Y-124899280D01*
X71542791Y-124845708D01*
X71697260Y-124767002D01*
X71837514Y-124665101D01*
X71960101Y-124542514D01*
X72062002Y-124402260D01*
X72140708Y-124247791D01*
X72194280Y-124082912D01*
X72211831Y-123972099D01*
X72221400Y-123911687D01*
X72221400Y-123738312D01*
X72214260Y-123693233D01*
X72211831Y-123677900D01*
X73955600Y-123677900D01*
X73955600Y-123972099D01*
X73955601Y-123972116D01*
X73994001Y-124263796D01*
X74070152Y-124547994D01*
X74182734Y-124819794D01*
X74182742Y-124819810D01*
X74329840Y-125074589D01*
X74329851Y-125074605D01*
X74508948Y-125308009D01*
X74508954Y-125308016D01*
X74716983Y-125516045D01*
X74716990Y-125516051D01*
X74864209Y-125629016D01*
X74950403Y-125695155D01*
X74950410Y-125695159D01*
X75205189Y-125842257D01*
X75205205Y-125842265D01*
X75477005Y-125954847D01*
X75477007Y-125954847D01*
X75477013Y-125954850D01*
X75761200Y-126030998D01*
X76052894Y-126069400D01*
X76052901Y-126069400D01*
X76347099Y-126069400D01*
X76347106Y-126069400D01*
X76638800Y-126030998D01*
X76922987Y-125954850D01*
X76996318Y-125924475D01*
X77194794Y-125842265D01*
X77194797Y-125842263D01*
X77194803Y-125842261D01*
X77449597Y-125695155D01*
X77683011Y-125516050D01*
X77891050Y-125308011D01*
X78070155Y-125074597D01*
X78217261Y-124819803D01*
X78329850Y-124547987D01*
X78405998Y-124263800D01*
X78444400Y-123972106D01*
X78444400Y-123738312D01*
X80178600Y-123738312D01*
X80178600Y-123911687D01*
X80205720Y-124082913D01*
X80259290Y-124247788D01*
X80259291Y-124247791D01*
X80337998Y-124402260D01*
X80439899Y-124542514D01*
X80562486Y-124665101D01*
X80702740Y-124767002D01*
X80778502Y-124805604D01*
X80857208Y-124845708D01*
X80857211Y-124845709D01*
X80939648Y-124872494D01*
X81022088Y-124899280D01*
X81101391Y-124911840D01*
X81193313Y-124926400D01*
X81193318Y-124926400D01*
X81366687Y-124926400D01*
X81449695Y-124913252D01*
X81537912Y-124899280D01*
X81702791Y-124845708D01*
X81857260Y-124767002D01*
X81997514Y-124665101D01*
X82120101Y-124542514D01*
X82222002Y-124402260D01*
X82300708Y-124247791D01*
X82354280Y-124082912D01*
X82371831Y-123972099D01*
X82381400Y-123911687D01*
X82381400Y-123738312D01*
X89068600Y-123738312D01*
X89068600Y-123911687D01*
X89095720Y-124082913D01*
X89149290Y-124247788D01*
X89149291Y-124247791D01*
X89227998Y-124402260D01*
X89329899Y-124542514D01*
X89452486Y-124665101D01*
X89592740Y-124767002D01*
X89668502Y-124805604D01*
X89747208Y-124845708D01*
X89747211Y-124845709D01*
X89829648Y-124872494D01*
X89912088Y-124899280D01*
X89991391Y-124911840D01*
X90083313Y-124926400D01*
X90083318Y-124926400D01*
X90256687Y-124926400D01*
X90339695Y-124913252D01*
X90427912Y-124899280D01*
X90592791Y-124845708D01*
X90747260Y-124767002D01*
X90887514Y-124665101D01*
X91010101Y-124542514D01*
X91112002Y-124402260D01*
X91190708Y-124247791D01*
X91244280Y-124082912D01*
X91261831Y-123972099D01*
X91271400Y-123911687D01*
X91271400Y-123738312D01*
X91264260Y-123693233D01*
X91261831Y-123677900D01*
X93005600Y-123677900D01*
X93005600Y-123972099D01*
X93005601Y-123972116D01*
X93044001Y-124263796D01*
X93120152Y-124547994D01*
X93232734Y-124819794D01*
X93232742Y-124819810D01*
X93379840Y-125074589D01*
X93379851Y-125074605D01*
X93558948Y-125308009D01*
X93558954Y-125308016D01*
X93766983Y-125516045D01*
X93766990Y-125516051D01*
X93914209Y-125629016D01*
X94000403Y-125695155D01*
X94000410Y-125695159D01*
X94255189Y-125842257D01*
X94255205Y-125842265D01*
X94527005Y-125954847D01*
X94527007Y-125954847D01*
X94527013Y-125954850D01*
X94811200Y-126030998D01*
X95102894Y-126069400D01*
X95102901Y-126069400D01*
X95397099Y-126069400D01*
X95397106Y-126069400D01*
X95688800Y-126030998D01*
X95972987Y-125954850D01*
X96046318Y-125924475D01*
X96244794Y-125842265D01*
X96244797Y-125842263D01*
X96244803Y-125842261D01*
X96499597Y-125695155D01*
X96733011Y-125516050D01*
X96941050Y-125308011D01*
X97120155Y-125074597D01*
X97267261Y-124819803D01*
X97379850Y-124547987D01*
X97455998Y-124263800D01*
X97494400Y-123972106D01*
X97494400Y-123738312D01*
X99228600Y-123738312D01*
X99228600Y-123911687D01*
X99255720Y-124082913D01*
X99309290Y-124247788D01*
X99309291Y-124247791D01*
X99387998Y-124402260D01*
X99489899Y-124542514D01*
X99612486Y-124665101D01*
X99752740Y-124767002D01*
X99828502Y-124805604D01*
X99907208Y-124845708D01*
X99907211Y-124845709D01*
X99989648Y-124872494D01*
X100072088Y-124899280D01*
X100151391Y-124911840D01*
X100243313Y-124926400D01*
X100243318Y-124926400D01*
X100416687Y-124926400D01*
X100499695Y-124913252D01*
X100587912Y-124899280D01*
X100752791Y-124845708D01*
X100907260Y-124767002D01*
X101047514Y-124665101D01*
X101170101Y-124542514D01*
X101272002Y-124402260D01*
X101350708Y-124247791D01*
X101404280Y-124082912D01*
X101421831Y-123972099D01*
X101431400Y-123911687D01*
X101431400Y-123738312D01*
X101413924Y-123627978D01*
X101404280Y-123567088D01*
X101350708Y-123402209D01*
X101350708Y-123402208D01*
X101272001Y-123247739D01*
X101170101Y-123107486D01*
X101047514Y-122984899D01*
X100907260Y-122882998D01*
X100752791Y-122804291D01*
X100752788Y-122804290D01*
X100587913Y-122750720D01*
X100416687Y-122723600D01*
X100416682Y-122723600D01*
X100243318Y-122723600D01*
X100243313Y-122723600D01*
X100072086Y-122750720D01*
X99907211Y-122804290D01*
X99907208Y-122804291D01*
X99752739Y-122882998D01*
X99672719Y-122941136D01*
X99612486Y-122984899D01*
X99612484Y-122984901D01*
X99612483Y-122984901D01*
X99489901Y-123107483D01*
X99489901Y-123107484D01*
X99489899Y-123107486D01*
X99489066Y-123108633D01*
X99387998Y-123247739D01*
X99309291Y-123402208D01*
X99309290Y-123402211D01*
X99255720Y-123567086D01*
X99228600Y-123738312D01*
X97494400Y-123738312D01*
X97494400Y-123677894D01*
X97455998Y-123386200D01*
X97379850Y-123102013D01*
X97379847Y-123102005D01*
X97267265Y-122830205D01*
X97267257Y-122830189D01*
X97120159Y-122575410D01*
X97120155Y-122575403D01*
X96941050Y-122341989D01*
X96941045Y-122341983D01*
X96733016Y-122133954D01*
X96733009Y-122133948D01*
X96499605Y-121954851D01*
X96499603Y-121954849D01*
X96499597Y-121954845D01*
X96499592Y-121954842D01*
X96499589Y-121954840D01*
X96244810Y-121807742D01*
X96244794Y-121807734D01*
X95972994Y-121695152D01*
X95688796Y-121619001D01*
X95397116Y-121580601D01*
X95397111Y-121580600D01*
X95397106Y-121580600D01*
X95102894Y-121580600D01*
X95102888Y-121580600D01*
X95102883Y-121580601D01*
X94811203Y-121619001D01*
X94527005Y-121695152D01*
X94255205Y-121807734D01*
X94255189Y-121807742D01*
X94000410Y-121954840D01*
X94000394Y-121954851D01*
X93766990Y-122133948D01*
X93766983Y-122133954D01*
X93558954Y-122341983D01*
X93558948Y-122341990D01*
X93379851Y-122575394D01*
X93379840Y-122575410D01*
X93232742Y-122830189D01*
X93232734Y-122830205D01*
X93120152Y-123102005D01*
X93044001Y-123386203D01*
X93005601Y-123677883D01*
X93005600Y-123677900D01*
X91261831Y-123677900D01*
X91253924Y-123627978D01*
X91244280Y-123567088D01*
X91190708Y-123402209D01*
X91190708Y-123402208D01*
X91112001Y-123247739D01*
X91052177Y-123165399D01*
X91010101Y-123107486D01*
X91010098Y-123107483D01*
X91007237Y-123103545D01*
X91008598Y-123102555D01*
X90983021Y-123045465D01*
X90993461Y-122976380D01*
X91039594Y-122923906D01*
X91106773Y-122904703D01*
X91125273Y-122906226D01*
X91196703Y-122917539D01*
X91310098Y-122935500D01*
X91310103Y-122935500D01*
X91569902Y-122935500D01*
X91683298Y-122917539D01*
X91826493Y-122894860D01*
X92073572Y-122814579D01*
X92305051Y-122696634D01*
X92515229Y-122543931D01*
X92698931Y-122360229D01*
X92851634Y-122150051D01*
X92969579Y-121918572D01*
X93049860Y-121671493D01*
X93072539Y-121528298D01*
X93090500Y-121414902D01*
X93090500Y-121155097D01*
X93068947Y-121019021D01*
X93049860Y-120898507D01*
X92969579Y-120651428D01*
X92969577Y-120651425D01*
X92969577Y-120651423D01*
X92922004Y-120558057D01*
X92851634Y-120419949D01*
X92698931Y-120209771D01*
X92515229Y-120026069D01*
X92515225Y-120026066D01*
X92305054Y-119873368D01*
X92305053Y-119873367D01*
X92305051Y-119873366D01*
X92206087Y-119822941D01*
X92073576Y-119755422D01*
X91826493Y-119675140D01*
X91569902Y-119634500D01*
X91569897Y-119634500D01*
X91310103Y-119634500D01*
X91310098Y-119634500D01*
X91053506Y-119675140D01*
X90806423Y-119755422D01*
X90574945Y-119873368D01*
X90364774Y-120026066D01*
X90364768Y-120026071D01*
X90181071Y-120209768D01*
X90181066Y-120209774D01*
X90028368Y-120419945D01*
X89910422Y-120651423D01*
X89830140Y-120898506D01*
X89789500Y-121155097D01*
X89789500Y-121414902D01*
X89830140Y-121671493D01*
X89910422Y-121918576D01*
X89949934Y-121996121D01*
X90022222Y-122137993D01*
X90028368Y-122150054D01*
X90181066Y-122360225D01*
X90181071Y-122360231D01*
X90332759Y-122511919D01*
X90366244Y-122573242D01*
X90361260Y-122642934D01*
X90319388Y-122698867D01*
X90253924Y-122723284D01*
X90245078Y-122723600D01*
X90083313Y-122723600D01*
X89912086Y-122750720D01*
X89747211Y-122804290D01*
X89747208Y-122804291D01*
X89592739Y-122882998D01*
X89512719Y-122941136D01*
X89452486Y-122984899D01*
X89452484Y-122984901D01*
X89452483Y-122984901D01*
X89329901Y-123107483D01*
X89329901Y-123107484D01*
X89329899Y-123107486D01*
X89329066Y-123108633D01*
X89227998Y-123247739D01*
X89149291Y-123402208D01*
X89149290Y-123402211D01*
X89095720Y-123567086D01*
X89068600Y-123738312D01*
X82381400Y-123738312D01*
X82363924Y-123627978D01*
X82354280Y-123567088D01*
X82300708Y-123402209D01*
X82300708Y-123402208D01*
X82222001Y-123247739D01*
X82120101Y-123107486D01*
X81997514Y-122984899D01*
X81857260Y-122882998D01*
X81702791Y-122804291D01*
X81702788Y-122804290D01*
X81537913Y-122750720D01*
X81366687Y-122723600D01*
X81366682Y-122723600D01*
X81193318Y-122723600D01*
X81193313Y-122723600D01*
X81022086Y-122750720D01*
X80857211Y-122804290D01*
X80857208Y-122804291D01*
X80702739Y-122882998D01*
X80622719Y-122941136D01*
X80562486Y-122984899D01*
X80562484Y-122984901D01*
X80562483Y-122984901D01*
X80439901Y-123107483D01*
X80439901Y-123107484D01*
X80439899Y-123107486D01*
X80439066Y-123108633D01*
X80337998Y-123247739D01*
X80259291Y-123402208D01*
X80259290Y-123402211D01*
X80205720Y-123567086D01*
X80178600Y-123738312D01*
X78444400Y-123738312D01*
X78444400Y-123677894D01*
X78405998Y-123386200D01*
X78329850Y-123102013D01*
X78329847Y-123102005D01*
X78217265Y-122830205D01*
X78217257Y-122830189D01*
X78070159Y-122575410D01*
X78070155Y-122575403D01*
X77891050Y-122341989D01*
X77891045Y-122341983D01*
X77683016Y-122133954D01*
X77683009Y-122133948D01*
X77449605Y-121954851D01*
X77449603Y-121954849D01*
X77449597Y-121954845D01*
X77449592Y-121954842D01*
X77449589Y-121954840D01*
X77194810Y-121807742D01*
X77194794Y-121807734D01*
X76922994Y-121695152D01*
X76638796Y-121619001D01*
X76347116Y-121580601D01*
X76347111Y-121580600D01*
X76347106Y-121580600D01*
X76052894Y-121580600D01*
X76052888Y-121580600D01*
X76052883Y-121580601D01*
X75761203Y-121619001D01*
X75477005Y-121695152D01*
X75205205Y-121807734D01*
X75205189Y-121807742D01*
X74950410Y-121954840D01*
X74950394Y-121954851D01*
X74716990Y-122133948D01*
X74716983Y-122133954D01*
X74508954Y-122341983D01*
X74508948Y-122341990D01*
X74329851Y-122575394D01*
X74329840Y-122575410D01*
X74182742Y-122830189D01*
X74182734Y-122830205D01*
X74070152Y-123102005D01*
X73994001Y-123386203D01*
X73955601Y-123677883D01*
X73955600Y-123677900D01*
X72211831Y-123677900D01*
X72203924Y-123627978D01*
X72194280Y-123567088D01*
X72140708Y-123402209D01*
X72140708Y-123402208D01*
X72062001Y-123247739D01*
X72002177Y-123165399D01*
X71960101Y-123107486D01*
X71960098Y-123107483D01*
X71957237Y-123103545D01*
X71958598Y-123102555D01*
X71933021Y-123045465D01*
X71943461Y-122976380D01*
X71989594Y-122923906D01*
X72056773Y-122904703D01*
X72075273Y-122906226D01*
X72146703Y-122917539D01*
X72260098Y-122935500D01*
X72260103Y-122935500D01*
X72519902Y-122935500D01*
X72633298Y-122917539D01*
X72776493Y-122894860D01*
X73023572Y-122814579D01*
X73255051Y-122696634D01*
X73465229Y-122543931D01*
X73648931Y-122360229D01*
X73801634Y-122150051D01*
X73919579Y-121918572D01*
X73999860Y-121671493D01*
X74022539Y-121528298D01*
X74040500Y-121414902D01*
X74040500Y-121155097D01*
X74018947Y-121019021D01*
X73999860Y-120898507D01*
X73919579Y-120651428D01*
X73919577Y-120651425D01*
X73919577Y-120651423D01*
X73872004Y-120558057D01*
X73801634Y-120419949D01*
X73648931Y-120209771D01*
X73465229Y-120026069D01*
X73465225Y-120026066D01*
X73255054Y-119873368D01*
X73255053Y-119873367D01*
X73255051Y-119873366D01*
X73156087Y-119822941D01*
X73023576Y-119755422D01*
X72776493Y-119675140D01*
X72519902Y-119634500D01*
X72519897Y-119634500D01*
X72260103Y-119634500D01*
X72260098Y-119634500D01*
X72003506Y-119675140D01*
X71756423Y-119755422D01*
X71524945Y-119873368D01*
X71314774Y-120026066D01*
X71314768Y-120026071D01*
X71131071Y-120209768D01*
X71131066Y-120209774D01*
X70978368Y-120419945D01*
X70860422Y-120651423D01*
X70780140Y-120898506D01*
X70739500Y-121155097D01*
X70739500Y-121414902D01*
X70780140Y-121671493D01*
X70860422Y-121918576D01*
X70899934Y-121996121D01*
X70972222Y-122137993D01*
X70978368Y-122150054D01*
X71131066Y-122360225D01*
X71131071Y-122360231D01*
X71282759Y-122511919D01*
X71316244Y-122573242D01*
X71311260Y-122642934D01*
X71269388Y-122698867D01*
X71203924Y-122723284D01*
X71195078Y-122723600D01*
X71033313Y-122723600D01*
X70862086Y-122750720D01*
X70697211Y-122804290D01*
X70697208Y-122804291D01*
X70542739Y-122882998D01*
X70462719Y-122941136D01*
X70402486Y-122984899D01*
X70402484Y-122984901D01*
X70402483Y-122984901D01*
X70279901Y-123107483D01*
X70279901Y-123107484D01*
X70279899Y-123107486D01*
X70279066Y-123108633D01*
X70177998Y-123247739D01*
X70099291Y-123402208D01*
X70099290Y-123402211D01*
X70045720Y-123567086D01*
X70018600Y-123738312D01*
X64500500Y-123738312D01*
X64500500Y-116721153D01*
X74999500Y-116721153D01*
X74999500Y-116878846D01*
X75030261Y-117033489D01*
X75030264Y-117033501D01*
X75090602Y-117179172D01*
X75090609Y-117179185D01*
X75178210Y-117310288D01*
X75178213Y-117310292D01*
X75289707Y-117421786D01*
X75289711Y-117421789D01*
X75420814Y-117509390D01*
X75420827Y-117509397D01*
X75566498Y-117569735D01*
X75566503Y-117569737D01*
X75721153Y-117600499D01*
X75721156Y-117600500D01*
X75721158Y-117600500D01*
X75878844Y-117600500D01*
X75878845Y-117600499D01*
X76033497Y-117569737D01*
X76179179Y-117509394D01*
X76184134Y-117506083D01*
X76310875Y-117421398D01*
X76377553Y-117400520D01*
X76379766Y-117400500D01*
X77450978Y-117400500D01*
X77518017Y-117420185D01*
X77563772Y-117472989D01*
X77573716Y-117542147D01*
X77544691Y-117605703D01*
X77538659Y-117612181D01*
X77481071Y-117669768D01*
X77481066Y-117669774D01*
X77328368Y-117879945D01*
X77210422Y-118111423D01*
X77130140Y-118358506D01*
X77089500Y-118615097D01*
X77089500Y-118874902D01*
X77130140Y-119131493D01*
X77210422Y-119378576D01*
X77291534Y-119537764D01*
X77328366Y-119610051D01*
X77481069Y-119820229D01*
X77664771Y-120003931D01*
X77874949Y-120156634D01*
X77979550Y-120209931D01*
X78106423Y-120274577D01*
X78106425Y-120274577D01*
X78106428Y-120274579D01*
X78353507Y-120354860D01*
X78485706Y-120375797D01*
X78610098Y-120395500D01*
X78610103Y-120395500D01*
X78869902Y-120395500D01*
X78983298Y-120377539D01*
X79126493Y-120354860D01*
X79373572Y-120274579D01*
X79605051Y-120156634D01*
X79815229Y-120003931D01*
X79998931Y-119820229D01*
X80151634Y-119610051D01*
X80269579Y-119378572D01*
X80349860Y-119131493D01*
X80372539Y-118988298D01*
X80390500Y-118874902D01*
X80390500Y-118615097D01*
X80368947Y-118479021D01*
X80349860Y-118358507D01*
X80269579Y-118111428D01*
X80269577Y-118111425D01*
X80269577Y-118111423D01*
X80226787Y-118027445D01*
X80151634Y-117879949D01*
X79998931Y-117669771D01*
X79815229Y-117486069D01*
X79708291Y-117408374D01*
X79605054Y-117333368D01*
X79605053Y-117333367D01*
X79605051Y-117333366D01*
X79532764Y-117296534D01*
X79373576Y-117215422D01*
X79126493Y-117135139D01*
X79010848Y-117116823D01*
X78947713Y-117086894D01*
X78910782Y-117027582D01*
X78911780Y-116957719D01*
X78942563Y-116906671D01*
X80212417Y-115636818D01*
X80239344Y-115622114D01*
X80265163Y-115605522D01*
X80271363Y-115604630D01*
X80273740Y-115603333D01*
X80300098Y-115600499D01*
X80409902Y-115600499D01*
X80476941Y-115620184D01*
X80497583Y-115636818D01*
X82025139Y-117164374D01*
X82025149Y-117164385D01*
X82029479Y-117168715D01*
X82029480Y-117168716D01*
X82141284Y-117280520D01*
X82185288Y-117305925D01*
X82228095Y-117330639D01*
X82228097Y-117330641D01*
X82266151Y-117352611D01*
X82278215Y-117359577D01*
X82430943Y-117400501D01*
X82430946Y-117400501D01*
X82596653Y-117400501D01*
X82596669Y-117400500D01*
X96500978Y-117400500D01*
X96568017Y-117420185D01*
X96613772Y-117472989D01*
X96623716Y-117542147D01*
X96594691Y-117605703D01*
X96588659Y-117612181D01*
X96531071Y-117669768D01*
X96531066Y-117669774D01*
X96378368Y-117879945D01*
X96260422Y-118111423D01*
X96180140Y-118358506D01*
X96139500Y-118615097D01*
X96139500Y-118874902D01*
X96180140Y-119131493D01*
X96260422Y-119378576D01*
X96341534Y-119537764D01*
X96378366Y-119610051D01*
X96531069Y-119820229D01*
X96714771Y-120003931D01*
X96924949Y-120156634D01*
X97029550Y-120209931D01*
X97156423Y-120274577D01*
X97156425Y-120274577D01*
X97156428Y-120274579D01*
X97403507Y-120354860D01*
X97535706Y-120375797D01*
X97660098Y-120395500D01*
X97660103Y-120395500D01*
X97919902Y-120395500D01*
X98033298Y-120377539D01*
X98176493Y-120354860D01*
X98423572Y-120274579D01*
X98655051Y-120156634D01*
X98865229Y-120003931D01*
X99048931Y-119820229D01*
X99201634Y-119610051D01*
X99319579Y-119378572D01*
X99399860Y-119131493D01*
X99422539Y-118988298D01*
X99440500Y-118874902D01*
X99440500Y-118615097D01*
X99418947Y-118479021D01*
X99399860Y-118358507D01*
X99319579Y-118111428D01*
X99319577Y-118111425D01*
X99319577Y-118111423D01*
X99276787Y-118027445D01*
X99201634Y-117879949D01*
X99048931Y-117669771D01*
X98865229Y-117486069D01*
X98758291Y-117408374D01*
X98655054Y-117333368D01*
X98655053Y-117333367D01*
X98655051Y-117333366D01*
X98582764Y-117296534D01*
X98423576Y-117215422D01*
X98176493Y-117135139D01*
X97939990Y-117097681D01*
X97876855Y-117067752D01*
X97839924Y-117008440D01*
X97840922Y-116938578D01*
X97871705Y-116887529D01*
X98922416Y-115836817D01*
X98983739Y-115803333D01*
X99010097Y-115800499D01*
X100010002Y-115800499D01*
X100010008Y-115800499D01*
X100112797Y-115789999D01*
X100279334Y-115734814D01*
X100428656Y-115642712D01*
X100552712Y-115518656D01*
X100644814Y-115369334D01*
X100699999Y-115202797D01*
X100710500Y-115100009D01*
X100710499Y-113899992D01*
X100700364Y-113800781D01*
X100699999Y-113797203D01*
X100699998Y-113797200D01*
X100674674Y-113720778D01*
X100644814Y-113630666D01*
X100552712Y-113481344D01*
X100428656Y-113357288D01*
X100309313Y-113283677D01*
X100279336Y-113265187D01*
X100279331Y-113265185D01*
X100277862Y-113264698D01*
X100112797Y-113210001D01*
X100112795Y-113210000D01*
X100010010Y-113199500D01*
X98809998Y-113199500D01*
X98809981Y-113199501D01*
X98707203Y-113210000D01*
X98707200Y-113210001D01*
X98540668Y-113265185D01*
X98540663Y-113265187D01*
X98391342Y-113357289D01*
X98267289Y-113481342D01*
X98175187Y-113630663D01*
X98175185Y-113630668D01*
X98168774Y-113650016D01*
X98120001Y-113797203D01*
X98120001Y-113797204D01*
X98120000Y-113797204D01*
X98109500Y-113899983D01*
X98109500Y-114899902D01*
X98089815Y-114966941D01*
X98073181Y-114987583D01*
X96897584Y-116163181D01*
X96836261Y-116196666D01*
X96809903Y-116199500D01*
X82810097Y-116199500D01*
X82743058Y-116179815D01*
X82722416Y-116163181D01*
X81346818Y-114787583D01*
X81313333Y-114726260D01*
X81310499Y-114699902D01*
X81310499Y-114397648D01*
X90489500Y-114397648D01*
X90489500Y-114602351D01*
X90521522Y-114804534D01*
X90584781Y-114999223D01*
X90636135Y-115100009D01*
X90671462Y-115169342D01*
X90677715Y-115181613D01*
X90798028Y-115347213D01*
X90942786Y-115491971D01*
X91077713Y-115589999D01*
X91108390Y-115612287D01*
X91224607Y-115671503D01*
X91290776Y-115705218D01*
X91290778Y-115705218D01*
X91290781Y-115705220D01*
X91381856Y-115734812D01*
X91485465Y-115768477D01*
X91566003Y-115781233D01*
X91687648Y-115800500D01*
X91687649Y-115800500D01*
X91892351Y-115800500D01*
X91892352Y-115800500D01*
X92094534Y-115768477D01*
X92289219Y-115705220D01*
X92471610Y-115612287D01*
X92600482Y-115518657D01*
X92637213Y-115491971D01*
X92637215Y-115491968D01*
X92637219Y-115491966D01*
X92781966Y-115347219D01*
X92781968Y-115347215D01*
X92781971Y-115347213D01*
X92879156Y-115213447D01*
X92902287Y-115181610D01*
X92995220Y-114999219D01*
X93058477Y-114804534D01*
X93090500Y-114602352D01*
X93090500Y-114397648D01*
X93058477Y-114195466D01*
X93053781Y-114181014D01*
X93029127Y-114105137D01*
X92995220Y-114000781D01*
X92995218Y-114000778D01*
X92995218Y-114000776D01*
X92943865Y-113899991D01*
X92902287Y-113818390D01*
X92886892Y-113797200D01*
X92781971Y-113652786D01*
X92637213Y-113508028D01*
X92471613Y-113387715D01*
X92471612Y-113387714D01*
X92471610Y-113387713D01*
X92403390Y-113352953D01*
X92289223Y-113294781D01*
X92094534Y-113231522D01*
X91919995Y-113203878D01*
X91892352Y-113199500D01*
X91687648Y-113199500D01*
X91663329Y-113203351D01*
X91485465Y-113231522D01*
X91290776Y-113294781D01*
X91108386Y-113387715D01*
X90942786Y-113508028D01*
X90798028Y-113652786D01*
X90677715Y-113818386D01*
X90584781Y-114000776D01*
X90521522Y-114195465D01*
X90489500Y-114397648D01*
X81310499Y-114397648D01*
X81310499Y-113699998D01*
X81310498Y-113699981D01*
X81299999Y-113597203D01*
X81299998Y-113597200D01*
X81261606Y-113481342D01*
X81244814Y-113430666D01*
X81152712Y-113281344D01*
X81028656Y-113157288D01*
X80879334Y-113065186D01*
X80712797Y-113010001D01*
X80712795Y-113010000D01*
X80610010Y-112999500D01*
X79409998Y-112999500D01*
X79409981Y-112999501D01*
X79307203Y-113010000D01*
X79307200Y-113010001D01*
X79140668Y-113065185D01*
X79140663Y-113065187D01*
X78991342Y-113157289D01*
X78867289Y-113281342D01*
X78775187Y-113430663D01*
X78775185Y-113430668D01*
X78758393Y-113481344D01*
X78720001Y-113597203D01*
X78720001Y-113597204D01*
X78720000Y-113597204D01*
X78709500Y-113699983D01*
X78709500Y-114900001D01*
X78709501Y-114900018D01*
X78720000Y-115002796D01*
X78720001Y-115002799D01*
X78775185Y-115169331D01*
X78775190Y-115169342D01*
X78802395Y-115213447D01*
X78820836Y-115280839D01*
X78799914Y-115347503D01*
X78784538Y-115366225D01*
X77987584Y-116163181D01*
X77926261Y-116196666D01*
X77899903Y-116199500D01*
X76379766Y-116199500D01*
X76312727Y-116179815D01*
X76310875Y-116178602D01*
X76179185Y-116090609D01*
X76179172Y-116090602D01*
X76033501Y-116030264D01*
X76033489Y-116030261D01*
X75878845Y-115999500D01*
X75878842Y-115999500D01*
X75721158Y-115999500D01*
X75721155Y-115999500D01*
X75566510Y-116030261D01*
X75566498Y-116030264D01*
X75420827Y-116090602D01*
X75420814Y-116090609D01*
X75289711Y-116178210D01*
X75289707Y-116178213D01*
X75178213Y-116289707D01*
X75178210Y-116289711D01*
X75090609Y-116420814D01*
X75090602Y-116420827D01*
X75030264Y-116566498D01*
X75030261Y-116566510D01*
X74999500Y-116721153D01*
X64500500Y-116721153D01*
X64500500Y-114197648D01*
X71089500Y-114197648D01*
X71089500Y-114402351D01*
X71121522Y-114604534D01*
X71184781Y-114799223D01*
X71277715Y-114981613D01*
X71398028Y-115147213D01*
X71542786Y-115291971D01*
X71697749Y-115404556D01*
X71708390Y-115412287D01*
X71824607Y-115471503D01*
X71890776Y-115505218D01*
X71890778Y-115505218D01*
X71890781Y-115505220D01*
X71981856Y-115534812D01*
X72085465Y-115568477D01*
X72186557Y-115584488D01*
X72287648Y-115600500D01*
X72287649Y-115600500D01*
X72492351Y-115600500D01*
X72492352Y-115600500D01*
X72694534Y-115568477D01*
X72889219Y-115505220D01*
X73071610Y-115412287D01*
X73200482Y-115318657D01*
X73237213Y-115291971D01*
X73237215Y-115291968D01*
X73237219Y-115291966D01*
X73381966Y-115147219D01*
X73381968Y-115147215D01*
X73381971Y-115147213D01*
X73434732Y-115074590D01*
X73502287Y-114981610D01*
X73595220Y-114799219D01*
X73658477Y-114604534D01*
X73690500Y-114402352D01*
X73690500Y-114197648D01*
X73687864Y-114181006D01*
X73658477Y-113995465D01*
X73610801Y-113848735D01*
X73595220Y-113800781D01*
X73595218Y-113800778D01*
X73595218Y-113800776D01*
X73554456Y-113720778D01*
X73502287Y-113618390D01*
X73448884Y-113544886D01*
X73381971Y-113452786D01*
X73237213Y-113308028D01*
X73071613Y-113187715D01*
X73071612Y-113187714D01*
X73071610Y-113187713D01*
X73004699Y-113153620D01*
X72889223Y-113094781D01*
X72694534Y-113031522D01*
X72519995Y-113003878D01*
X72492352Y-112999500D01*
X72287648Y-112999500D01*
X72263329Y-113003351D01*
X72085465Y-113031522D01*
X71890776Y-113094781D01*
X71708386Y-113187715D01*
X71542786Y-113308028D01*
X71398028Y-113452786D01*
X71277715Y-113618386D01*
X71184781Y-113800776D01*
X71121522Y-113995465D01*
X71089500Y-114197648D01*
X64500500Y-114197648D01*
X64500500Y-108297870D01*
X64500501Y-108297857D01*
X64500501Y-108129756D01*
X64500501Y-108129754D01*
X64459577Y-107977026D01*
X64459575Y-107977023D01*
X64459575Y-107977021D01*
X64459574Y-107977020D01*
X64427611Y-107921659D01*
X64427609Y-107921657D01*
X64423200Y-107914021D01*
X64380520Y-107840095D01*
X64268716Y-107728291D01*
X64268715Y-107728290D01*
X64264385Y-107723960D01*
X64264374Y-107723950D01*
X62556871Y-106016447D01*
X62523386Y-105955124D01*
X62528370Y-105885432D01*
X62570242Y-105829499D01*
X62606235Y-105810835D01*
X62652785Y-105795710D01*
X62652791Y-105795708D01*
X62675153Y-105784314D01*
X62807260Y-105717002D01*
X62947514Y-105615101D01*
X63070101Y-105492514D01*
X63172002Y-105352260D01*
X63250708Y-105197791D01*
X63304280Y-105032912D01*
X63321831Y-104922099D01*
X63331400Y-104861687D01*
X63331400Y-104688312D01*
X70018600Y-104688312D01*
X70018600Y-104861687D01*
X70045720Y-105032913D01*
X70099290Y-105197788D01*
X70099291Y-105197791D01*
X70177397Y-105351081D01*
X70177998Y-105352260D01*
X70279899Y-105492514D01*
X70402486Y-105615101D01*
X70542740Y-105717002D01*
X70618502Y-105755604D01*
X70697208Y-105795708D01*
X70697211Y-105795709D01*
X70743765Y-105810835D01*
X70862088Y-105849280D01*
X70941391Y-105861840D01*
X71033313Y-105876400D01*
X71033318Y-105876400D01*
X71206687Y-105876400D01*
X71293137Y-105862707D01*
X71377912Y-105849280D01*
X71542791Y-105795708D01*
X71697260Y-105717002D01*
X71837514Y-105615101D01*
X71960101Y-105492514D01*
X72062002Y-105352260D01*
X72140708Y-105197791D01*
X72194280Y-105032912D01*
X72211831Y-104922099D01*
X72221400Y-104861687D01*
X72221400Y-104688312D01*
X72214260Y-104643233D01*
X72211831Y-104627900D01*
X73955600Y-104627900D01*
X73955600Y-104922099D01*
X73955601Y-104922116D01*
X73970187Y-105032912D01*
X73994002Y-105213800D01*
X74030786Y-105351081D01*
X74070152Y-105497994D01*
X74182734Y-105769794D01*
X74182742Y-105769810D01*
X74329840Y-106024589D01*
X74329851Y-106024605D01*
X74508948Y-106258009D01*
X74508954Y-106258016D01*
X74716983Y-106466045D01*
X74716989Y-106466050D01*
X74950403Y-106645155D01*
X74950410Y-106645159D01*
X75205189Y-106792257D01*
X75205205Y-106792265D01*
X75477005Y-106904847D01*
X75477007Y-106904847D01*
X75477013Y-106904850D01*
X75761200Y-106980998D01*
X76052894Y-107019400D01*
X76052901Y-107019400D01*
X76347099Y-107019400D01*
X76347106Y-107019400D01*
X76638800Y-106980998D01*
X76922987Y-106904850D01*
X77183669Y-106796873D01*
X77194794Y-106792265D01*
X77194797Y-106792263D01*
X77194803Y-106792261D01*
X77449597Y-106645155D01*
X77683011Y-106466050D01*
X77891050Y-106258011D01*
X78070155Y-106024597D01*
X78217261Y-105769803D01*
X78329850Y-105497987D01*
X78405998Y-105213800D01*
X78444400Y-104922106D01*
X78444400Y-104688312D01*
X80178600Y-104688312D01*
X80178600Y-104861687D01*
X80205720Y-105032913D01*
X80259290Y-105197788D01*
X80259291Y-105197791D01*
X80337397Y-105351081D01*
X80337998Y-105352260D01*
X80439899Y-105492514D01*
X80562486Y-105615101D01*
X80702740Y-105717002D01*
X80778502Y-105755604D01*
X80857208Y-105795708D01*
X80857211Y-105795709D01*
X80903765Y-105810835D01*
X81022088Y-105849280D01*
X81101391Y-105861840D01*
X81193313Y-105876400D01*
X81193318Y-105876400D01*
X81366687Y-105876400D01*
X81453137Y-105862707D01*
X81537912Y-105849280D01*
X81702791Y-105795708D01*
X81857260Y-105717002D01*
X81997514Y-105615101D01*
X82120101Y-105492514D01*
X82222002Y-105352260D01*
X82300708Y-105197791D01*
X82354280Y-105032912D01*
X82371831Y-104922099D01*
X82381400Y-104861687D01*
X82381400Y-104688312D01*
X89068600Y-104688312D01*
X89068600Y-104861687D01*
X89095720Y-105032913D01*
X89149290Y-105197788D01*
X89149291Y-105197791D01*
X89227397Y-105351081D01*
X89227998Y-105352260D01*
X89329899Y-105492514D01*
X89452486Y-105615101D01*
X89592740Y-105717002D01*
X89668502Y-105755604D01*
X89747208Y-105795708D01*
X89747211Y-105795709D01*
X89793765Y-105810835D01*
X89912088Y-105849280D01*
X89991391Y-105861840D01*
X90083313Y-105876400D01*
X90083318Y-105876400D01*
X90256687Y-105876400D01*
X90343137Y-105862707D01*
X90427912Y-105849280D01*
X90592791Y-105795708D01*
X90747260Y-105717002D01*
X90887514Y-105615101D01*
X91010101Y-105492514D01*
X91112002Y-105352260D01*
X91190708Y-105197791D01*
X91244280Y-105032912D01*
X91261831Y-104922099D01*
X91271400Y-104861687D01*
X91271400Y-104688312D01*
X91264260Y-104643233D01*
X91261831Y-104627900D01*
X93005600Y-104627900D01*
X93005600Y-104922099D01*
X93005601Y-104922116D01*
X93020187Y-105032912D01*
X93044002Y-105213800D01*
X93080786Y-105351081D01*
X93120152Y-105497994D01*
X93232734Y-105769794D01*
X93232742Y-105769810D01*
X93379840Y-106024589D01*
X93379851Y-106024605D01*
X93558948Y-106258009D01*
X93558954Y-106258016D01*
X93766983Y-106466045D01*
X93766989Y-106466050D01*
X94000403Y-106645155D01*
X94000410Y-106645159D01*
X94255189Y-106792257D01*
X94255205Y-106792265D01*
X94527005Y-106904847D01*
X94527007Y-106904847D01*
X94527013Y-106904850D01*
X94811200Y-106980998D01*
X95102894Y-107019400D01*
X95102901Y-107019400D01*
X95397099Y-107019400D01*
X95397106Y-107019400D01*
X95688800Y-106980998D01*
X95972987Y-106904850D01*
X96233669Y-106796873D01*
X96244794Y-106792265D01*
X96244797Y-106792263D01*
X96244803Y-106792261D01*
X96499597Y-106645155D01*
X96733011Y-106466050D01*
X96941050Y-106258011D01*
X97120155Y-106024597D01*
X97267261Y-105769803D01*
X97379850Y-105497987D01*
X97455998Y-105213800D01*
X97494400Y-104922106D01*
X97494400Y-104688312D01*
X99228600Y-104688312D01*
X99228600Y-104861687D01*
X99255720Y-105032913D01*
X99309290Y-105197788D01*
X99309291Y-105197791D01*
X99387397Y-105351081D01*
X99387998Y-105352260D01*
X99489899Y-105492514D01*
X99612486Y-105615101D01*
X99752740Y-105717002D01*
X99828502Y-105755604D01*
X99907208Y-105795708D01*
X99907211Y-105795709D01*
X99953765Y-105810835D01*
X100072088Y-105849280D01*
X100151391Y-105861840D01*
X100243313Y-105876400D01*
X100243318Y-105876400D01*
X100416687Y-105876400D01*
X100503137Y-105862707D01*
X100587912Y-105849280D01*
X100752791Y-105795708D01*
X100907260Y-105717002D01*
X101047514Y-105615101D01*
X101170101Y-105492514D01*
X101272002Y-105352260D01*
X101350708Y-105197791D01*
X101404280Y-105032912D01*
X101421831Y-104922099D01*
X101431400Y-104861687D01*
X101431400Y-104688312D01*
X101415622Y-104588702D01*
X101404280Y-104517088D01*
X101376866Y-104432715D01*
X101350709Y-104352211D01*
X101350708Y-104352208D01*
X101272001Y-104197739D01*
X101251343Y-104169306D01*
X101170101Y-104057486D01*
X101047514Y-103934899D01*
X100907260Y-103832998D01*
X100874681Y-103816398D01*
X100752791Y-103754291D01*
X100752788Y-103754290D01*
X100587913Y-103700720D01*
X100416687Y-103673600D01*
X100416682Y-103673600D01*
X100243318Y-103673600D01*
X100243313Y-103673600D01*
X100072086Y-103700720D01*
X99907211Y-103754290D01*
X99907208Y-103754291D01*
X99752739Y-103832998D01*
X99672719Y-103891136D01*
X99612486Y-103934899D01*
X99612484Y-103934901D01*
X99612483Y-103934901D01*
X99489901Y-104057483D01*
X99489901Y-104057484D01*
X99489899Y-104057486D01*
X99446136Y-104117719D01*
X99387998Y-104197739D01*
X99309291Y-104352208D01*
X99309290Y-104352211D01*
X99255720Y-104517086D01*
X99228600Y-104688312D01*
X97494400Y-104688312D01*
X97494400Y-104627894D01*
X97455998Y-104336200D01*
X97379850Y-104052013D01*
X97379847Y-104052005D01*
X97267265Y-103780205D01*
X97267257Y-103780189D01*
X97120159Y-103525410D01*
X97120155Y-103525403D01*
X96941050Y-103291989D01*
X96941045Y-103291983D01*
X96733016Y-103083954D01*
X96733009Y-103083948D01*
X96499605Y-102904851D01*
X96499603Y-102904849D01*
X96499597Y-102904845D01*
X96499592Y-102904842D01*
X96499589Y-102904840D01*
X96244810Y-102757742D01*
X96244794Y-102757734D01*
X95972994Y-102645152D01*
X95731158Y-102580352D01*
X95688800Y-102569002D01*
X95688799Y-102569001D01*
X95688796Y-102569001D01*
X95397116Y-102530601D01*
X95397111Y-102530600D01*
X95397106Y-102530600D01*
X95102894Y-102530600D01*
X95102888Y-102530600D01*
X95102883Y-102530601D01*
X94811203Y-102569001D01*
X94527005Y-102645152D01*
X94255205Y-102757734D01*
X94255189Y-102757742D01*
X94000410Y-102904840D01*
X94000394Y-102904851D01*
X93766990Y-103083948D01*
X93766983Y-103083954D01*
X93558954Y-103291983D01*
X93558948Y-103291990D01*
X93379851Y-103525394D01*
X93379840Y-103525410D01*
X93232742Y-103780189D01*
X93232734Y-103780205D01*
X93120152Y-104052005D01*
X93044001Y-104336203D01*
X93005601Y-104627883D01*
X93005600Y-104627900D01*
X91261831Y-104627900D01*
X91248068Y-104541007D01*
X91244280Y-104517088D01*
X91216866Y-104432715D01*
X91190709Y-104352211D01*
X91190708Y-104352208D01*
X91112001Y-104197739D01*
X91091342Y-104169304D01*
X91010101Y-104057486D01*
X91010098Y-104057483D01*
X91007237Y-104053545D01*
X91008598Y-104052555D01*
X90983021Y-103995465D01*
X90993461Y-103926380D01*
X91039594Y-103873906D01*
X91106773Y-103854703D01*
X91125273Y-103856226D01*
X91196703Y-103867539D01*
X91310098Y-103885500D01*
X91310103Y-103885500D01*
X91569902Y-103885500D01*
X91683298Y-103867539D01*
X91826493Y-103844860D01*
X92073572Y-103764579D01*
X92305051Y-103646634D01*
X92515229Y-103493931D01*
X92698931Y-103310229D01*
X92851634Y-103100051D01*
X92969579Y-102868572D01*
X93049860Y-102621493D01*
X93072539Y-102478298D01*
X93090500Y-102364902D01*
X93090500Y-102105097D01*
X93061854Y-101924237D01*
X93049860Y-101848507D01*
X92969579Y-101601428D01*
X92969577Y-101601425D01*
X92969577Y-101601423D01*
X92919466Y-101503076D01*
X92851634Y-101369949D01*
X92698931Y-101159771D01*
X92515229Y-100976069D01*
X92515225Y-100976066D01*
X92305054Y-100823368D01*
X92305053Y-100823367D01*
X92305051Y-100823366D01*
X92232764Y-100786534D01*
X92073576Y-100705422D01*
X91826493Y-100625140D01*
X91569902Y-100584500D01*
X91569897Y-100584500D01*
X91310103Y-100584500D01*
X91310098Y-100584500D01*
X91053506Y-100625140D01*
X90806423Y-100705422D01*
X90574945Y-100823368D01*
X90364774Y-100976066D01*
X90364768Y-100976071D01*
X90181071Y-101159768D01*
X90181066Y-101159774D01*
X90028368Y-101369945D01*
X89910422Y-101601423D01*
X89830140Y-101848506D01*
X89789500Y-102105097D01*
X89789500Y-102364902D01*
X89830140Y-102621493D01*
X89910422Y-102868576D01*
X90028368Y-103100054D01*
X90181066Y-103310225D01*
X90181071Y-103310231D01*
X90332759Y-103461919D01*
X90366244Y-103523242D01*
X90361260Y-103592934D01*
X90319388Y-103648867D01*
X90253924Y-103673284D01*
X90245078Y-103673600D01*
X90083313Y-103673600D01*
X89912086Y-103700720D01*
X89747211Y-103754290D01*
X89747208Y-103754291D01*
X89592739Y-103832998D01*
X89512719Y-103891136D01*
X89452486Y-103934899D01*
X89452484Y-103934901D01*
X89452483Y-103934901D01*
X89329901Y-104057483D01*
X89329901Y-104057484D01*
X89329899Y-104057486D01*
X89286136Y-104117719D01*
X89227998Y-104197739D01*
X89149291Y-104352208D01*
X89149290Y-104352211D01*
X89095720Y-104517086D01*
X89068600Y-104688312D01*
X82381400Y-104688312D01*
X82365622Y-104588702D01*
X82354280Y-104517088D01*
X82326866Y-104432715D01*
X82300709Y-104352211D01*
X82300708Y-104352208D01*
X82222001Y-104197739D01*
X82201343Y-104169306D01*
X82120101Y-104057486D01*
X81997514Y-103934899D01*
X81857260Y-103832998D01*
X81824681Y-103816398D01*
X81702791Y-103754291D01*
X81702788Y-103754290D01*
X81537913Y-103700720D01*
X81366687Y-103673600D01*
X81366682Y-103673600D01*
X81193318Y-103673600D01*
X81193313Y-103673600D01*
X81022086Y-103700720D01*
X80857211Y-103754290D01*
X80857208Y-103754291D01*
X80702739Y-103832998D01*
X80622719Y-103891136D01*
X80562486Y-103934899D01*
X80562484Y-103934901D01*
X80562483Y-103934901D01*
X80439901Y-104057483D01*
X80439901Y-104057484D01*
X80439899Y-104057486D01*
X80396136Y-104117719D01*
X80337998Y-104197739D01*
X80259291Y-104352208D01*
X80259290Y-104352211D01*
X80205720Y-104517086D01*
X80178600Y-104688312D01*
X78444400Y-104688312D01*
X78444400Y-104627894D01*
X78405998Y-104336200D01*
X78329850Y-104052013D01*
X78329847Y-104052005D01*
X78217265Y-103780205D01*
X78217257Y-103780189D01*
X78070159Y-103525410D01*
X78070155Y-103525403D01*
X77891050Y-103291989D01*
X77891045Y-103291983D01*
X77683016Y-103083954D01*
X77683009Y-103083948D01*
X77449605Y-102904851D01*
X77449603Y-102904849D01*
X77449597Y-102904845D01*
X77449592Y-102904842D01*
X77449589Y-102904840D01*
X77194810Y-102757742D01*
X77194794Y-102757734D01*
X76922994Y-102645152D01*
X76681158Y-102580352D01*
X76638800Y-102569002D01*
X76638799Y-102569001D01*
X76638796Y-102569001D01*
X76347116Y-102530601D01*
X76347111Y-102530600D01*
X76347106Y-102530600D01*
X76052894Y-102530600D01*
X76052888Y-102530600D01*
X76052883Y-102530601D01*
X75761203Y-102569001D01*
X75477005Y-102645152D01*
X75205205Y-102757734D01*
X75205189Y-102757742D01*
X74950410Y-102904840D01*
X74950394Y-102904851D01*
X74716990Y-103083948D01*
X74716983Y-103083954D01*
X74508954Y-103291983D01*
X74508948Y-103291990D01*
X74329851Y-103525394D01*
X74329840Y-103525410D01*
X74182742Y-103780189D01*
X74182734Y-103780205D01*
X74070152Y-104052005D01*
X73994001Y-104336203D01*
X73955601Y-104627883D01*
X73955600Y-104627900D01*
X72211831Y-104627900D01*
X72198068Y-104541007D01*
X72194280Y-104517088D01*
X72166866Y-104432715D01*
X72140709Y-104352211D01*
X72140708Y-104352208D01*
X72062001Y-104197739D01*
X72041342Y-104169304D01*
X71960101Y-104057486D01*
X71960098Y-104057483D01*
X71957237Y-104053545D01*
X71958598Y-104052555D01*
X71933021Y-103995465D01*
X71943461Y-103926380D01*
X71989594Y-103873906D01*
X72056773Y-103854703D01*
X72075273Y-103856226D01*
X72146703Y-103867539D01*
X72260098Y-103885500D01*
X72260103Y-103885500D01*
X72519902Y-103885500D01*
X72633298Y-103867539D01*
X72776493Y-103844860D01*
X73023572Y-103764579D01*
X73255051Y-103646634D01*
X73465229Y-103493931D01*
X73648931Y-103310229D01*
X73801634Y-103100051D01*
X73919579Y-102868572D01*
X73999860Y-102621493D01*
X74022539Y-102478298D01*
X74040500Y-102364902D01*
X74040500Y-102105097D01*
X74011854Y-101924237D01*
X73999860Y-101848507D01*
X73919579Y-101601428D01*
X73919577Y-101601425D01*
X73919577Y-101601423D01*
X73869466Y-101503076D01*
X73801634Y-101369949D01*
X73648931Y-101159771D01*
X73465229Y-100976069D01*
X73465225Y-100976066D01*
X73255054Y-100823368D01*
X73255053Y-100823367D01*
X73255051Y-100823366D01*
X73182764Y-100786534D01*
X73023576Y-100705422D01*
X72776493Y-100625140D01*
X72519902Y-100584500D01*
X72519897Y-100584500D01*
X72260103Y-100584500D01*
X72260098Y-100584500D01*
X72003506Y-100625140D01*
X71756423Y-100705422D01*
X71524945Y-100823368D01*
X71314774Y-100976066D01*
X71314768Y-100976071D01*
X71131071Y-101159768D01*
X71131066Y-101159774D01*
X70978368Y-101369945D01*
X70860422Y-101601423D01*
X70780140Y-101848506D01*
X70739500Y-102105097D01*
X70739500Y-102364902D01*
X70780140Y-102621493D01*
X70860422Y-102868576D01*
X70978368Y-103100054D01*
X71131066Y-103310225D01*
X71131071Y-103310231D01*
X71282759Y-103461919D01*
X71316244Y-103523242D01*
X71311260Y-103592934D01*
X71269388Y-103648867D01*
X71203924Y-103673284D01*
X71195078Y-103673600D01*
X71033313Y-103673600D01*
X70862086Y-103700720D01*
X70697211Y-103754290D01*
X70697208Y-103754291D01*
X70542739Y-103832998D01*
X70462719Y-103891136D01*
X70402486Y-103934899D01*
X70402484Y-103934901D01*
X70402483Y-103934901D01*
X70279901Y-104057483D01*
X70279901Y-104057484D01*
X70279899Y-104057486D01*
X70236136Y-104117719D01*
X70177998Y-104197739D01*
X70099291Y-104352208D01*
X70099290Y-104352211D01*
X70045720Y-104517086D01*
X70018600Y-104688312D01*
X63331400Y-104688312D01*
X63315622Y-104588702D01*
X63304280Y-104517088D01*
X63276866Y-104432715D01*
X63250709Y-104352211D01*
X63250708Y-104352208D01*
X63172001Y-104197739D01*
X63151343Y-104169306D01*
X63070101Y-104057486D01*
X62947514Y-103934899D01*
X62807260Y-103832998D01*
X62774681Y-103816398D01*
X62652791Y-103754291D01*
X62652788Y-103754290D01*
X62487913Y-103700720D01*
X62316687Y-103673600D01*
X62316682Y-103673600D01*
X62143318Y-103673600D01*
X62143313Y-103673600D01*
X61972086Y-103700720D01*
X61807211Y-103754290D01*
X61807208Y-103754291D01*
X61652739Y-103832998D01*
X61572719Y-103891136D01*
X61512486Y-103934899D01*
X61512484Y-103934901D01*
X61512483Y-103934901D01*
X61389901Y-104057483D01*
X61389901Y-104057484D01*
X61389899Y-104057486D01*
X61346136Y-104117719D01*
X61287998Y-104197739D01*
X61209292Y-104352206D01*
X61194164Y-104398767D01*
X61154725Y-104456442D01*
X61090366Y-104483639D01*
X61021520Y-104471724D01*
X60988552Y-104448128D01*
X58079819Y-101539395D01*
X58046334Y-101478072D01*
X58043500Y-101451714D01*
X58043500Y-100615597D01*
X58063185Y-100548558D01*
X58115989Y-100502803D01*
X58185147Y-100492859D01*
X58248703Y-100521884D01*
X58275481Y-100556106D01*
X58275821Y-100555899D01*
X58277633Y-100558856D01*
X58277989Y-100559311D01*
X58278367Y-100560054D01*
X58383983Y-100705421D01*
X58431069Y-100770229D01*
X58614771Y-100953931D01*
X58824949Y-101106634D01*
X58929230Y-101159768D01*
X59056423Y-101224577D01*
X59056425Y-101224577D01*
X59056428Y-101224579D01*
X59303507Y-101304860D01*
X59435706Y-101325797D01*
X59560098Y-101345500D01*
X59560103Y-101345500D01*
X59819902Y-101345500D01*
X59933298Y-101327539D01*
X60076493Y-101304860D01*
X60323572Y-101224579D01*
X60555051Y-101106634D01*
X60765229Y-100953931D01*
X60948931Y-100770229D01*
X61101634Y-100560051D01*
X61219579Y-100328572D01*
X61299860Y-100081493D01*
X61322539Y-99938298D01*
X61340500Y-99824902D01*
X61340500Y-99565097D01*
X61312538Y-99388556D01*
X61299860Y-99308507D01*
X61219579Y-99061428D01*
X61219577Y-99061425D01*
X61219577Y-99061423D01*
X61176787Y-98977445D01*
X61101634Y-98829949D01*
X60948931Y-98619771D01*
X60765229Y-98436069D01*
X60755944Y-98429323D01*
X60555054Y-98283368D01*
X60555053Y-98283367D01*
X60555051Y-98283366D01*
X60358203Y-98183066D01*
X60307409Y-98135093D01*
X60290500Y-98072583D01*
X60290500Y-95610097D01*
X60310185Y-95543058D01*
X60326819Y-95522416D01*
X64478692Y-91370543D01*
X68735482Y-87113752D01*
X68753969Y-87103658D01*
X68769644Y-87089578D01*
X68784021Y-87087248D01*
X68796803Y-87080269D01*
X68817817Y-87081771D01*
X68838614Y-87078402D01*
X68851966Y-87084214D01*
X68866495Y-87085253D01*
X68883360Y-87097878D01*
X68902678Y-87106287D01*
X68919275Y-87124765D01*
X68922428Y-87127125D01*
X68926263Y-87132544D01*
X68978602Y-87210874D01*
X68999480Y-87277551D01*
X68999500Y-87279765D01*
X68999500Y-88893330D01*
X68999499Y-88893348D01*
X68999499Y-89059054D01*
X68999498Y-89059054D01*
X69022398Y-89144517D01*
X69040423Y-89211785D01*
X69054071Y-89235423D01*
X69091792Y-89300758D01*
X69119479Y-89348715D01*
X69238349Y-89467585D01*
X69238355Y-89467590D01*
X70331132Y-90560367D01*
X70364617Y-90621690D01*
X70365924Y-90667445D01*
X70357500Y-90720633D01*
X70357500Y-90720639D01*
X70357500Y-90919361D01*
X70373043Y-91017498D01*
X70388587Y-91115637D01*
X70449993Y-91304629D01*
X70449994Y-91304632D01*
X70534586Y-91470651D01*
X70540213Y-91481694D01*
X70657019Y-91642464D01*
X70657021Y-91642466D01*
X70797539Y-91782984D01*
X70877060Y-91840758D01*
X70883824Y-91846039D01*
X70887998Y-91849537D01*
X70988053Y-91949592D01*
X71053737Y-91988437D01*
X71061522Y-91994962D01*
X71075488Y-92015926D01*
X71092679Y-92034338D01*
X71094528Y-92044506D01*
X71100260Y-92053110D01*
X71100674Y-92078297D01*
X71105182Y-92103079D01*
X71101239Y-92112634D01*
X71101410Y-92122970D01*
X71088143Y-92144381D01*
X71078536Y-92167669D01*
X71068122Y-92176692D01*
X71064609Y-92182363D01*
X71057871Y-92185575D01*
X71044996Y-92196732D01*
X70988053Y-92230408D01*
X70988046Y-92230413D01*
X70891854Y-92326604D01*
X70877061Y-92339239D01*
X70797536Y-92397018D01*
X70657021Y-92537533D01*
X70540213Y-92698305D01*
X70449994Y-92875367D01*
X70449993Y-92875370D01*
X70388587Y-93064362D01*
X70364855Y-93214203D01*
X70357500Y-93260639D01*
X70357500Y-93459361D01*
X70358288Y-93464336D01*
X70388587Y-93655637D01*
X70449993Y-93844629D01*
X70449994Y-93844632D01*
X70540213Y-94021694D01*
X70657018Y-94182463D01*
X70724978Y-94250423D01*
X70729311Y-94258359D01*
X70736550Y-94263776D01*
X70745793Y-94288545D01*
X70758462Y-94311747D01*
X70757816Y-94320764D01*
X70760978Y-94329235D01*
X70755363Y-94355069D01*
X70753477Y-94381438D01*
X70747667Y-94390480D01*
X70746139Y-94397511D01*
X70725005Y-94425749D01*
X70724993Y-94425769D01*
X70719494Y-94431270D01*
X70719491Y-94431271D01*
X70719487Y-94431276D01*
X70719485Y-94431274D01*
X70719478Y-94431286D01*
X69819481Y-95331282D01*
X69819480Y-95331284D01*
X69779518Y-95400501D01*
X69740423Y-95468215D01*
X69699499Y-95620943D01*
X69699499Y-95620945D01*
X69699499Y-95789046D01*
X69699500Y-95789059D01*
X69699500Y-97213330D01*
X69699499Y-97213348D01*
X69699499Y-97379054D01*
X69699498Y-97379054D01*
X69740422Y-97531782D01*
X69740424Y-97531787D01*
X69743337Y-97536832D01*
X69743338Y-97536834D01*
X69819477Y-97668712D01*
X69819481Y-97668717D01*
X69938349Y-97787585D01*
X69938355Y-97787590D01*
X70331132Y-98180367D01*
X70364617Y-98241690D01*
X70365924Y-98287445D01*
X70357500Y-98340633D01*
X70357500Y-98539360D01*
X70388587Y-98735637D01*
X70449993Y-98924629D01*
X70449994Y-98924632D01*
X70519694Y-99061423D01*
X70540213Y-99101694D01*
X70657019Y-99262464D01*
X70657021Y-99262466D01*
X70797539Y-99402984D01*
X70877060Y-99460758D01*
X70891851Y-99473390D01*
X70988053Y-99569592D01*
X71130041Y-99653564D01*
X71157498Y-99661541D01*
X71288447Y-99699586D01*
X71288450Y-99699586D01*
X71288452Y-99699587D01*
X71325466Y-99702500D01*
X71325474Y-99702500D01*
X73584526Y-99702500D01*
X73584534Y-99702500D01*
X73621548Y-99699587D01*
X73621550Y-99699586D01*
X73621552Y-99699586D01*
X73723947Y-99669837D01*
X73779959Y-99653564D01*
X73921947Y-99569592D01*
X73926442Y-99565097D01*
X77089500Y-99565097D01*
X77089500Y-99824902D01*
X77130140Y-100081493D01*
X77210422Y-100328576D01*
X77277642Y-100460500D01*
X77327757Y-100558856D01*
X77328368Y-100560054D01*
X77346129Y-100584500D01*
X77481069Y-100770229D01*
X77664771Y-100953931D01*
X77874949Y-101106634D01*
X77979230Y-101159768D01*
X78106423Y-101224577D01*
X78106425Y-101224577D01*
X78106428Y-101224579D01*
X78353507Y-101304860D01*
X78485706Y-101325797D01*
X78610098Y-101345500D01*
X78610103Y-101345500D01*
X78869902Y-101345500D01*
X78983298Y-101327539D01*
X79126493Y-101304860D01*
X79373572Y-101224579D01*
X79605051Y-101106634D01*
X79815229Y-100953931D01*
X79998931Y-100770229D01*
X80151634Y-100560051D01*
X80269579Y-100328572D01*
X80349860Y-100081493D01*
X80372539Y-99938298D01*
X80390500Y-99824902D01*
X80390500Y-99565097D01*
X96139500Y-99565097D01*
X96139500Y-99824902D01*
X96180140Y-100081493D01*
X96260422Y-100328576D01*
X96327642Y-100460500D01*
X96377757Y-100558856D01*
X96378368Y-100560054D01*
X96396129Y-100584500D01*
X96531069Y-100770229D01*
X96714771Y-100953931D01*
X96924949Y-101106634D01*
X97029230Y-101159768D01*
X97156423Y-101224577D01*
X97156425Y-101224577D01*
X97156428Y-101224579D01*
X97403507Y-101304860D01*
X97535706Y-101325797D01*
X97660098Y-101345500D01*
X97660103Y-101345500D01*
X97919902Y-101345500D01*
X98033298Y-101327539D01*
X98176493Y-101304860D01*
X98423572Y-101224579D01*
X98655051Y-101106634D01*
X98865229Y-100953931D01*
X99048931Y-100770229D01*
X99201634Y-100560051D01*
X99319579Y-100328572D01*
X99399860Y-100081493D01*
X99422539Y-99938298D01*
X99440500Y-99824902D01*
X99440500Y-99565097D01*
X99412538Y-99388556D01*
X99399860Y-99308507D01*
X99319579Y-99061428D01*
X99319577Y-99061425D01*
X99319577Y-99061423D01*
X99276787Y-98977445D01*
X99201634Y-98829949D01*
X99048931Y-98619771D01*
X98865229Y-98436069D01*
X98855944Y-98429323D01*
X98655054Y-98283368D01*
X98655053Y-98283367D01*
X98655051Y-98283366D01*
X98573258Y-98241690D01*
X98423576Y-98165422D01*
X98176493Y-98085140D01*
X97919902Y-98044500D01*
X97919897Y-98044500D01*
X97660103Y-98044500D01*
X97660098Y-98044500D01*
X97403506Y-98085140D01*
X97156423Y-98165422D01*
X96924945Y-98283368D01*
X96714774Y-98436066D01*
X96714768Y-98436071D01*
X96531071Y-98619768D01*
X96531066Y-98619774D01*
X96378368Y-98829945D01*
X96260422Y-99061423D01*
X96180140Y-99308506D01*
X96139500Y-99565097D01*
X80390500Y-99565097D01*
X80362538Y-99388556D01*
X80349860Y-99308507D01*
X80269579Y-99061428D01*
X80269577Y-99061425D01*
X80269577Y-99061423D01*
X80226787Y-98977445D01*
X80151634Y-98829949D01*
X79998931Y-98619771D01*
X79815229Y-98436069D01*
X79805944Y-98429323D01*
X79605054Y-98283368D01*
X79605053Y-98283367D01*
X79605051Y-98283366D01*
X79523258Y-98241690D01*
X79373576Y-98165422D01*
X79126493Y-98085140D01*
X78869902Y-98044500D01*
X78869897Y-98044500D01*
X78610103Y-98044500D01*
X78610098Y-98044500D01*
X78353506Y-98085140D01*
X78106423Y-98165422D01*
X77874945Y-98283368D01*
X77664774Y-98436066D01*
X77664768Y-98436071D01*
X77481071Y-98619768D01*
X77481066Y-98619774D01*
X77328368Y-98829945D01*
X77210422Y-99061423D01*
X77130140Y-99308506D01*
X77089500Y-99565097D01*
X73926442Y-99565097D01*
X73968271Y-99523268D01*
X74018990Y-99472550D01*
X74038587Y-99452952D01*
X74038592Y-99452947D01*
X74122564Y-99310959D01*
X74168587Y-99152548D01*
X74171500Y-99115534D01*
X74171500Y-97764466D01*
X74168587Y-97727452D01*
X74151522Y-97668716D01*
X74122565Y-97569045D01*
X74122564Y-97569042D01*
X74122564Y-97569041D01*
X74038592Y-97427053D01*
X74038590Y-97427051D01*
X74038587Y-97427047D01*
X73921952Y-97310412D01*
X73921944Y-97310406D01*
X73865004Y-97276732D01*
X73817321Y-97225663D01*
X73804817Y-97156921D01*
X73831462Y-97092332D01*
X73865004Y-97063268D01*
X73921947Y-97029592D01*
X74038592Y-96912947D01*
X74122564Y-96770959D01*
X74122871Y-96769903D01*
X74123336Y-96769174D01*
X74125664Y-96763796D01*
X74126531Y-96764171D01*
X74160479Y-96711018D01*
X74223952Y-96681813D01*
X74241947Y-96680500D01*
X83833331Y-96680500D01*
X83833347Y-96680501D01*
X83840943Y-96680501D01*
X83999054Y-96680501D01*
X83999057Y-96680501D01*
X84151785Y-96639577D01*
X84223133Y-96598384D01*
X84288716Y-96560520D01*
X84400520Y-96448716D01*
X84400520Y-96448714D01*
X84410724Y-96438511D01*
X84410728Y-96438506D01*
X88297099Y-92552135D01*
X95149500Y-92552135D01*
X95149500Y-94647870D01*
X95149501Y-94647876D01*
X95155908Y-94707483D01*
X95206202Y-94842328D01*
X95206206Y-94842335D01*
X95292452Y-94957544D01*
X95292455Y-94957547D01*
X95407664Y-95043793D01*
X95407671Y-95043797D01*
X95542517Y-95094091D01*
X95542516Y-95094091D01*
X95549444Y-95094835D01*
X95602127Y-95100500D01*
X98897872Y-95100499D01*
X98957483Y-95094091D01*
X99092331Y-95043796D01*
X99207546Y-94957546D01*
X99293796Y-94842331D01*
X99344091Y-94707483D01*
X99350500Y-94647873D01*
X99350499Y-92552128D01*
X99344091Y-92492517D01*
X99343425Y-92490732D01*
X99293797Y-92357671D01*
X99293793Y-92357664D01*
X99207547Y-92242455D01*
X99207544Y-92242452D01*
X99092335Y-92156206D01*
X99092328Y-92156202D01*
X98957482Y-92105908D01*
X98957483Y-92105908D01*
X98897883Y-92099501D01*
X98897881Y-92099500D01*
X98897873Y-92099500D01*
X98897864Y-92099500D01*
X95602129Y-92099500D01*
X95602123Y-92099501D01*
X95542516Y-92105908D01*
X95407671Y-92156202D01*
X95407664Y-92156206D01*
X95292455Y-92242452D01*
X95292452Y-92242455D01*
X95206206Y-92357664D01*
X95206202Y-92357671D01*
X95155908Y-92492517D01*
X95150159Y-92545995D01*
X95149501Y-92552123D01*
X95149500Y-92552135D01*
X88297099Y-92552135D01*
X88368713Y-92480521D01*
X88368716Y-92480520D01*
X88480520Y-92368716D01*
X88559577Y-92231784D01*
X88598418Y-92086829D01*
X88600500Y-92079058D01*
X88600500Y-91920943D01*
X88600500Y-91762922D01*
X88620185Y-91695883D01*
X88672989Y-91650128D01*
X88742147Y-91640184D01*
X88797382Y-91662602D01*
X88963567Y-91783343D01*
X89028129Y-91816239D01*
X89174003Y-91890566D01*
X89174005Y-91890566D01*
X89174008Y-91890568D01*
X89294412Y-91929689D01*
X89398631Y-91963553D01*
X89631903Y-92000500D01*
X89631908Y-92000500D01*
X89868097Y-92000500D01*
X90101368Y-91963553D01*
X90144338Y-91949591D01*
X90325992Y-91890568D01*
X90536433Y-91783343D01*
X90727510Y-91644517D01*
X90894517Y-91477510D01*
X91033343Y-91286433D01*
X91140568Y-91075992D01*
X91213553Y-90851368D01*
X91219816Y-90811825D01*
X91250500Y-90618097D01*
X91250500Y-90381902D01*
X102749500Y-90381902D01*
X102749500Y-90618097D01*
X102786446Y-90851368D01*
X102859433Y-91075996D01*
X102945313Y-91244543D01*
X102966657Y-91286433D01*
X103105483Y-91477510D01*
X103272490Y-91644517D01*
X103463567Y-91783343D01*
X103528129Y-91816239D01*
X103674003Y-91890566D01*
X103674005Y-91890566D01*
X103674008Y-91890568D01*
X103794412Y-91929689D01*
X103898631Y-91963553D01*
X104131903Y-92000500D01*
X104131908Y-92000500D01*
X104368097Y-92000500D01*
X104601368Y-91963553D01*
X104644338Y-91949591D01*
X104825992Y-91890568D01*
X105036433Y-91783343D01*
X105227510Y-91644517D01*
X105394517Y-91477510D01*
X105533343Y-91286433D01*
X105640568Y-91075992D01*
X105713553Y-90851368D01*
X105719816Y-90811825D01*
X105750500Y-90618097D01*
X105750500Y-90381902D01*
X105713553Y-90148631D01*
X105664458Y-89997533D01*
X105640568Y-89924008D01*
X105640566Y-89924005D01*
X105640566Y-89924003D01*
X105580973Y-89807047D01*
X105533343Y-89713567D01*
X105394517Y-89522490D01*
X105227510Y-89355483D01*
X105036433Y-89216657D01*
X105026871Y-89211785D01*
X104825996Y-89109433D01*
X104601368Y-89036446D01*
X104368097Y-88999500D01*
X104368092Y-88999500D01*
X104131908Y-88999500D01*
X104131903Y-88999500D01*
X103898631Y-89036446D01*
X103674003Y-89109433D01*
X103463566Y-89216657D01*
X103427335Y-89242981D01*
X103272490Y-89355483D01*
X103272488Y-89355485D01*
X103272487Y-89355485D01*
X103105485Y-89522487D01*
X103105485Y-89522488D01*
X103105483Y-89522490D01*
X103061823Y-89582583D01*
X102966657Y-89713566D01*
X102859433Y-89924003D01*
X102786446Y-90148631D01*
X102749500Y-90381902D01*
X91250500Y-90381902D01*
X91213553Y-90148631D01*
X91164458Y-89997533D01*
X91140568Y-89924008D01*
X91140566Y-89924005D01*
X91140566Y-89924003D01*
X91080973Y-89807047D01*
X91033343Y-89713567D01*
X90894517Y-89522490D01*
X90727510Y-89355483D01*
X90720401Y-89350318D01*
X90677735Y-89294988D01*
X90671756Y-89225375D01*
X90704362Y-89163580D01*
X90720401Y-89149682D01*
X90720500Y-89149609D01*
X90727510Y-89144517D01*
X90894517Y-88977510D01*
X91033343Y-88786433D01*
X91140568Y-88575992D01*
X91213553Y-88351368D01*
X91221236Y-88302857D01*
X91250500Y-88118097D01*
X91250500Y-87881902D01*
X91213553Y-87648631D01*
X91172657Y-87522769D01*
X91140568Y-87424008D01*
X91140566Y-87424005D01*
X91140566Y-87424003D01*
X91077274Y-87299786D01*
X91033343Y-87213567D01*
X90963793Y-87117840D01*
X90940314Y-87052036D01*
X90956139Y-86983982D01*
X90989801Y-86945689D01*
X90992328Y-86943796D01*
X90992331Y-86943796D01*
X91107546Y-86857546D01*
X91193796Y-86742331D01*
X91244091Y-86607483D01*
X91250500Y-86547873D01*
X91250499Y-85381902D01*
X102749500Y-85381902D01*
X102749500Y-85618097D01*
X102786446Y-85851368D01*
X102859433Y-86075996D01*
X102965198Y-86283570D01*
X102966657Y-86286433D01*
X103105483Y-86477510D01*
X103272490Y-86644517D01*
X103463567Y-86783343D01*
X103562991Y-86834002D01*
X103674003Y-86890566D01*
X103674005Y-86890566D01*
X103674008Y-86890568D01*
X103747177Y-86914342D01*
X103898631Y-86963553D01*
X104131903Y-87000500D01*
X104131908Y-87000500D01*
X104368097Y-87000500D01*
X104601368Y-86963553D01*
X104632111Y-86953564D01*
X104825992Y-86890568D01*
X105036433Y-86783343D01*
X105227510Y-86644517D01*
X105394517Y-86477510D01*
X105533343Y-86286433D01*
X105640568Y-86075992D01*
X105713553Y-85851368D01*
X105727858Y-85761050D01*
X105750500Y-85618097D01*
X105750500Y-85381902D01*
X105713553Y-85148631D01*
X105656268Y-84972328D01*
X105640568Y-84924008D01*
X105640566Y-84924005D01*
X105640566Y-84924003D01*
X105566602Y-84778842D01*
X105533343Y-84713567D01*
X105394517Y-84522490D01*
X105227510Y-84355483D01*
X105036433Y-84216657D01*
X105029144Y-84212943D01*
X104825996Y-84109433D01*
X104601368Y-84036446D01*
X104368097Y-83999500D01*
X104368092Y-83999500D01*
X104131908Y-83999500D01*
X104131903Y-83999500D01*
X103898631Y-84036446D01*
X103674003Y-84109433D01*
X103463566Y-84216657D01*
X103376936Y-84279598D01*
X103272490Y-84355483D01*
X103272488Y-84355485D01*
X103272487Y-84355485D01*
X103105485Y-84522487D01*
X103105485Y-84522488D01*
X103105483Y-84522490D01*
X103074570Y-84565038D01*
X102966657Y-84713566D01*
X102859433Y-84924003D01*
X102786446Y-85148631D01*
X102749500Y-85381902D01*
X91250499Y-85381902D01*
X91250499Y-84452128D01*
X91244091Y-84392517D01*
X91238541Y-84377638D01*
X91193797Y-84257671D01*
X91193793Y-84257664D01*
X91107547Y-84142455D01*
X91107544Y-84142452D01*
X90992335Y-84056206D01*
X90992328Y-84056202D01*
X90857482Y-84005908D01*
X90857483Y-84005908D01*
X90797883Y-83999501D01*
X90797881Y-83999500D01*
X90797873Y-83999500D01*
X90797864Y-83999500D01*
X88702129Y-83999500D01*
X88702123Y-83999501D01*
X88642516Y-84005908D01*
X88507671Y-84056202D01*
X88507664Y-84056206D01*
X88392455Y-84142452D01*
X88392452Y-84142455D01*
X88306206Y-84257664D01*
X88306202Y-84257671D01*
X88255908Y-84392517D01*
X88253425Y-84415616D01*
X88249501Y-84452123D01*
X88249500Y-84452135D01*
X88249500Y-86283570D01*
X88229815Y-86350609D01*
X88177011Y-86396364D01*
X88107853Y-86406308D01*
X88093409Y-86403345D01*
X88079061Y-86399500D01*
X88079057Y-86399500D01*
X87469993Y-86399500D01*
X87402954Y-86379815D01*
X87357199Y-86327011D01*
X87347520Y-86294898D01*
X87339181Y-86242251D01*
X87317246Y-86103757D01*
X87251557Y-85901588D01*
X87155051Y-85712184D01*
X87155049Y-85712181D01*
X87155048Y-85712179D01*
X87030109Y-85540213D01*
X86916569Y-85426673D01*
X86883084Y-85365350D01*
X86888068Y-85295658D01*
X86929940Y-85239725D01*
X86960915Y-85222810D01*
X87092331Y-85173796D01*
X87207546Y-85087546D01*
X87293796Y-84972331D01*
X87344091Y-84837483D01*
X87350500Y-84777873D01*
X87350499Y-82982128D01*
X87344091Y-82922517D01*
X87337320Y-82904364D01*
X87293797Y-82787671D01*
X87293793Y-82787664D01*
X87207547Y-82672455D01*
X87207544Y-82672452D01*
X87092335Y-82586206D01*
X87092328Y-82586202D01*
X86957482Y-82535908D01*
X86957483Y-82535908D01*
X86897883Y-82529501D01*
X86897881Y-82529500D01*
X86897873Y-82529500D01*
X86897864Y-82529500D01*
X85102129Y-82529500D01*
X85102123Y-82529501D01*
X85042516Y-82535908D01*
X84907671Y-82586202D01*
X84907664Y-82586206D01*
X84792455Y-82672452D01*
X84792452Y-82672455D01*
X84706206Y-82787664D01*
X84706202Y-82787671D01*
X84655908Y-82922517D01*
X84652369Y-82955440D01*
X84649501Y-82982123D01*
X84649500Y-82982135D01*
X84649500Y-84777870D01*
X84649501Y-84777876D01*
X84655908Y-84837483D01*
X84706202Y-84972328D01*
X84706206Y-84972335D01*
X84792452Y-85087544D01*
X84792455Y-85087547D01*
X84907664Y-85173793D01*
X84907671Y-85173797D01*
X85039082Y-85222810D01*
X85095016Y-85264681D01*
X85119433Y-85330145D01*
X85104582Y-85398418D01*
X85083431Y-85426673D01*
X84969889Y-85540215D01*
X84844951Y-85712179D01*
X84748444Y-85901585D01*
X84682753Y-86103760D01*
X84660802Y-86242355D01*
X84649500Y-86313713D01*
X84649500Y-86526287D01*
X84655230Y-86562464D01*
X84677485Y-86702981D01*
X84682754Y-86736243D01*
X84746467Y-86932332D01*
X84748444Y-86938414D01*
X84844951Y-87127820D01*
X84969890Y-87299786D01*
X85120213Y-87450109D01*
X85292182Y-87575050D01*
X85300946Y-87579516D01*
X85351742Y-87627491D01*
X85368536Y-87695312D01*
X85345998Y-87761447D01*
X85300946Y-87800484D01*
X85292182Y-87804949D01*
X85120213Y-87929890D01*
X84969890Y-88080213D01*
X84844948Y-88252184D01*
X84844947Y-88252185D01*
X84824765Y-88291795D01*
X84814316Y-88302857D01*
X84807994Y-88316703D01*
X84790812Y-88327744D01*
X84776791Y-88342591D01*
X84761111Y-88346832D01*
X84749216Y-88354477D01*
X84714281Y-88359500D01*
X84500097Y-88359500D01*
X84433058Y-88339815D01*
X84412416Y-88323181D01*
X77727590Y-81638355D01*
X77727588Y-81638352D01*
X77608717Y-81519481D01*
X77608716Y-81519480D01*
X77521904Y-81469360D01*
X77521904Y-81469359D01*
X77521900Y-81469358D01*
X77471785Y-81440423D01*
X77319057Y-81399499D01*
X77160943Y-81399499D01*
X77153347Y-81399499D01*
X77153331Y-81399500D01*
X62926670Y-81399500D01*
X62926654Y-81399499D01*
X62919058Y-81399499D01*
X62760943Y-81399499D01*
X62684579Y-81419961D01*
X62608214Y-81440423D01*
X62608209Y-81440426D01*
X62471290Y-81519475D01*
X62471282Y-81519481D01*
X57811199Y-86179564D01*
X57749876Y-86213049D01*
X57680184Y-86208065D01*
X57624251Y-86166193D01*
X57599834Y-86100729D01*
X57605587Y-86053565D01*
X57611413Y-86035636D01*
X57642500Y-85839361D01*
X57642500Y-85640639D01*
X57611413Y-85444364D01*
X57550005Y-85255368D01*
X57550005Y-85255367D01*
X57495620Y-85148632D01*
X57459787Y-85078306D01*
X57342981Y-84917536D01*
X57202464Y-84777019D01*
X57122938Y-84719240D01*
X57116175Y-84713960D01*
X57112000Y-84710461D01*
X57011947Y-84610408D01*
X56946259Y-84571560D01*
X56938477Y-84565038D01*
X56924510Y-84544073D01*
X56907321Y-84525663D01*
X56905471Y-84515492D01*
X56899740Y-84506890D01*
X56899324Y-84481702D01*
X56894817Y-84456921D01*
X56898758Y-84447366D01*
X56898588Y-84437030D01*
X56911856Y-84415616D01*
X56921462Y-84392332D01*
X56931874Y-84383309D01*
X56935389Y-84377638D01*
X56942127Y-84374425D01*
X56955004Y-84363268D01*
X57011947Y-84329592D01*
X57108148Y-84233389D01*
X57122939Y-84220758D01*
X57128584Y-84216657D01*
X57202464Y-84162981D01*
X57342981Y-84022464D01*
X57459787Y-83861694D01*
X57550005Y-83684632D01*
X57611413Y-83495636D01*
X57642500Y-83299361D01*
X57642500Y-83100639D01*
X57611413Y-82904364D01*
X57580709Y-82809866D01*
X57550006Y-82715370D01*
X57550005Y-82715367D01*
X57495514Y-82608424D01*
X57459787Y-82538306D01*
X57342981Y-82377536D01*
X57202464Y-82237019D01*
X57122938Y-82179240D01*
X57108147Y-82166608D01*
X57011947Y-82070408D01*
X57011946Y-82070407D01*
X57011943Y-82070405D01*
X56869957Y-81986435D01*
X56869954Y-81986434D01*
X56711552Y-81940413D01*
X56711546Y-81940412D01*
X56674541Y-81937500D01*
X56674534Y-81937500D01*
X54415466Y-81937500D01*
X54415458Y-81937500D01*
X54378453Y-81940412D01*
X54378447Y-81940413D01*
X54220045Y-81986434D01*
X54220042Y-81986435D01*
X54078056Y-82070405D01*
X54078047Y-82070412D01*
X53961412Y-82187047D01*
X53961405Y-82187056D01*
X53877435Y-82329042D01*
X53877434Y-82329045D01*
X53831413Y-82487447D01*
X53831412Y-82487453D01*
X53828500Y-82524458D01*
X53828500Y-83875541D01*
X53831412Y-83912546D01*
X53831413Y-83912552D01*
X53877434Y-84070954D01*
X53877435Y-84070957D01*
X53961405Y-84212943D01*
X53961412Y-84212952D01*
X54078047Y-84329587D01*
X54078050Y-84329589D01*
X54078053Y-84329592D01*
X54134996Y-84363268D01*
X54182679Y-84414338D01*
X54195182Y-84483079D01*
X54168536Y-84547669D01*
X54134996Y-84576732D01*
X54078053Y-84610408D01*
X54078047Y-84610412D01*
X53961412Y-84727047D01*
X53961405Y-84727056D01*
X53877435Y-84869042D01*
X53877434Y-84869045D01*
X53831413Y-85027447D01*
X53831412Y-85027453D01*
X53828500Y-85064458D01*
X53828500Y-85125500D01*
X53808815Y-85192539D01*
X53756011Y-85238294D01*
X53704500Y-85249500D01*
X53324424Y-85249500D01*
X53257385Y-85229815D01*
X53211630Y-85177011D01*
X53201686Y-85107853D01*
X53209863Y-85078048D01*
X53253650Y-84972335D01*
X53269737Y-84933497D01*
X53300500Y-84778842D01*
X53300500Y-84621158D01*
X53300500Y-84621155D01*
X53300499Y-84621153D01*
X53281658Y-84526436D01*
X53269737Y-84466503D01*
X53247809Y-84413564D01*
X53209397Y-84320827D01*
X53209390Y-84320814D01*
X53121789Y-84189711D01*
X53121786Y-84189707D01*
X53010292Y-84078213D01*
X53010288Y-84078210D01*
X52879185Y-83990609D01*
X52879172Y-83990602D01*
X52733501Y-83930264D01*
X52733489Y-83930261D01*
X52622286Y-83908141D01*
X52560375Y-83875756D01*
X52558796Y-83874205D01*
X49696771Y-81012181D01*
X49663286Y-80950858D01*
X49668270Y-80881166D01*
X49710142Y-80825233D01*
X49775606Y-80800816D01*
X49784452Y-80800500D01*
X95243106Y-80800500D01*
X95310145Y-80820185D01*
G37*
%TD.AperFunction*%
M02*
