%TF.GenerationSoftware,KiCad,Pcbnew,9.0.6*%
%TF.CreationDate,2025-12-02T16:00:42+08:00*%
%TF.ProjectId,Macropad,4d616372-6f70-4616-942e-6b696361645f,rev?*%
%TF.SameCoordinates,Original*%
%TF.FileFunction,Soldermask,Bot*%
%TF.FilePolarity,Negative*%
%FSLAX46Y46*%
G04 Gerber Fmt 4.6, Leading zero omitted, Abs format (unit mm)*
G04 Created by KiCad (PCBNEW 9.0.6) date 2025-12-02 16:00:42*
%MOMM*%
%LPD*%
G01*
G04 APERTURE LIST*
G04 Aperture macros list*
%AMRoundRect*
0 Rectangle with rounded corners*
0 $1 Rounding radius*
0 $2 $3 $4 $5 $6 $7 $8 $9 X,Y pos of 4 corners*
0 Add a 4 corners polygon primitive as box body*
4,1,4,$2,$3,$4,$5,$6,$7,$8,$9,$2,$3,0*
0 Add four circle primitives for the rounded corners*
1,1,$1+$1,$2,$3*
1,1,$1+$1,$4,$5*
1,1,$1+$1,$6,$7*
1,1,$1+$1,$8,$9*
0 Add four rect primitives between the rounded corners*
20,1,$1+$1,$2,$3,$4,$5,0*
20,1,$1+$1,$4,$5,$6,$7,0*
20,1,$1+$1,$6,$7,$8,$9,0*
20,1,$1+$1,$8,$9,$2,$3,0*%
%AMFreePoly0*
4,1,18,-0.410000,0.593000,-0.403758,0.624380,-0.385983,0.650983,-0.359380,0.668758,-0.328000,0.675000,0.328000,0.675000,0.359380,0.668758,0.385983,0.650983,0.403758,0.624380,0.410000,0.593000,0.410000,-0.593000,0.403758,-0.624380,0.385983,-0.650983,0.359380,-0.668758,0.328000,-0.675000,0.000000,-0.675000,-0.410000,-0.265000,-0.410000,0.593000,-0.410000,0.593000,$1*%
G04 Aperture macros list end*
%ADD10R,1.700000X1.700000*%
%ADD11O,1.700000X1.700000*%
%ADD12R,2.000000X2.000000*%
%ADD13C,2.000000*%
%ADD14R,3.200000X2.000000*%
%ADD15C,2.300000*%
%ADD16C,1.701800*%
%ADD17C,3.987800*%
%ADD18FreePoly0,180.000000*%
%ADD19RoundRect,0.082000X0.328000X0.593000X-0.328000X0.593000X-0.328000X-0.593000X0.328000X-0.593000X0*%
%ADD20RoundRect,0.250000X0.550000X0.550000X-0.550000X0.550000X-0.550000X-0.550000X0.550000X-0.550000X0*%
%ADD21C,1.600000*%
%ADD22RoundRect,0.250000X0.550000X-0.550000X0.550000X0.550000X-0.550000X0.550000X-0.550000X-0.550000X0*%
%ADD23RoundRect,0.152400X-1.063600X-0.609600X1.063600X-0.609600X1.063600X0.609600X-1.063600X0.609600X0*%
%ADD24C,1.524000*%
%ADD25RoundRect,0.152400X1.063600X0.609600X-1.063600X0.609600X-1.063600X-0.609600X1.063600X-0.609600X0*%
G04 APERTURE END LIST*
D10*
%TO.C,J1*%
X86000000Y-83880000D03*
D11*
X86000000Y-86420000D03*
X86000000Y-88960000D03*
X86000000Y-91500000D03*
%TD*%
D12*
%TO.C,SW11*%
X89750000Y-85500000D03*
D13*
X89750000Y-90500000D03*
X89750000Y-88000000D03*
D14*
X97250000Y-82400000D03*
X97250000Y-93600000D03*
D13*
X104250000Y-90500000D03*
X104250000Y-85500000D03*
%TD*%
D15*
%TO.C,SW9*%
X97790000Y-137795000D03*
X91440000Y-140335000D03*
D16*
X100330000Y-142875000D03*
D17*
X95250000Y-142875000D03*
D16*
X90170000Y-142875000D03*
%TD*%
D15*
%TO.C,SW8*%
X97790000Y-118745000D03*
X91440000Y-121285000D03*
D16*
X100330000Y-123825000D03*
D17*
X95250000Y-123825000D03*
D16*
X90170000Y-123825000D03*
%TD*%
D15*
%TO.C,SW7*%
X97790000Y-99695000D03*
X91440000Y-102235000D03*
D16*
X100330000Y-104775000D03*
D17*
X95250000Y-104775000D03*
D16*
X90170000Y-104775000D03*
%TD*%
D15*
%TO.C,SW6*%
X78740000Y-137795000D03*
X72390000Y-140335000D03*
D16*
X81280000Y-142875000D03*
D17*
X76200000Y-142875000D03*
D16*
X71120000Y-142875000D03*
%TD*%
D15*
%TO.C,SW5*%
X78740000Y-118745000D03*
X72390000Y-121285000D03*
D16*
X81280000Y-123825000D03*
D17*
X76200000Y-123825000D03*
D16*
X71120000Y-123825000D03*
%TD*%
D15*
%TO.C,SW4*%
X78740000Y-99695000D03*
X72390000Y-102235000D03*
D16*
X81280000Y-104775000D03*
D17*
X76200000Y-104775000D03*
D16*
X71120000Y-104775000D03*
%TD*%
D15*
%TO.C,SW3*%
X59690000Y-137795000D03*
X53340000Y-140335000D03*
D16*
X62230000Y-142875000D03*
D17*
X57150000Y-142875000D03*
D16*
X52070000Y-142875000D03*
%TD*%
D15*
%TO.C,SW2*%
X59690000Y-118745000D03*
X53340000Y-121285000D03*
D16*
X62230000Y-123825000D03*
D17*
X57150000Y-123825000D03*
D16*
X52070000Y-123825000D03*
%TD*%
D15*
%TO.C,SW1*%
X59690000Y-99695000D03*
X53340000Y-102235000D03*
D16*
X62230000Y-104775000D03*
D17*
X57150000Y-104775000D03*
D16*
X52070000Y-104775000D03*
%TD*%
D18*
%TO.C,LED8*%
X46693750Y-145637500D03*
D19*
X45193750Y-145637500D03*
X46693750Y-151087500D03*
X45193750Y-151087500D03*
%TD*%
%TO.C,LED2*%
X45250000Y-87725000D03*
X46750000Y-87725000D03*
X45250000Y-82275000D03*
D18*
X46750000Y-82275000D03*
%TD*%
D19*
%TO.C,LED3*%
X45250000Y-97181335D03*
X46750000Y-97181335D03*
X45250000Y-91731335D03*
D18*
X46750000Y-91731335D03*
%TD*%
D20*
%TO.C,D4*%
X60960000Y-133350000D03*
D21*
X53340000Y-133350000D03*
%TD*%
D19*
%TO.C,LED7*%
X45193750Y-133118778D03*
X46693750Y-133118778D03*
X45193750Y-127668778D03*
D18*
X46693750Y-127668778D03*
%TD*%
D19*
%TO.C,LED4*%
X45193750Y-106165696D03*
X46693750Y-106165696D03*
X45193750Y-100715696D03*
D18*
X46693750Y-100715696D03*
%TD*%
D19*
%TO.C,LED5*%
X45193750Y-115150056D03*
X46693750Y-115150056D03*
X45193750Y-109700056D03*
D18*
X46693750Y-109700056D03*
%TD*%
D20*
%TO.C,D7*%
X80010000Y-114300000D03*
D21*
X72390000Y-114300000D03*
%TD*%
D20*
%TO.C,D8*%
X80010000Y-133350000D03*
D21*
X72390000Y-133350000D03*
%TD*%
D22*
%TO.C,D12*%
X104775000Y-146685000D03*
D21*
X104775000Y-139065000D03*
%TD*%
D23*
%TO.C,U1*%
X72455000Y-83200000D03*
D24*
X71620000Y-83200000D03*
D23*
X72455000Y-85740000D03*
D24*
X71620000Y-85740000D03*
D23*
X72455000Y-88280000D03*
D24*
X71620000Y-88280000D03*
D23*
X72455000Y-90820000D03*
D24*
X71620000Y-90820000D03*
D23*
X72455000Y-93360000D03*
D24*
X71620000Y-93360000D03*
D23*
X72455000Y-95900000D03*
D24*
X71620000Y-95900000D03*
D23*
X72455000Y-98440000D03*
D24*
X71620000Y-98440000D03*
X56380000Y-98440000D03*
D25*
X55545000Y-98440000D03*
D24*
X56380000Y-95900000D03*
D25*
X55545000Y-95900000D03*
D24*
X56380000Y-93360000D03*
D25*
X55545000Y-93360000D03*
D24*
X56380000Y-90820000D03*
D25*
X55545000Y-90820000D03*
D24*
X56380000Y-88280000D03*
D25*
X55545000Y-88280000D03*
D24*
X56380000Y-85740000D03*
D25*
X55545000Y-85740000D03*
D24*
X56380000Y-83200000D03*
D25*
X55545000Y-83200000D03*
%TD*%
D22*
%TO.C,D9*%
X85725000Y-146685000D03*
D21*
X85725000Y-139065000D03*
%TD*%
D20*
%TO.C,D3*%
X61912500Y-114300000D03*
D21*
X54292500Y-114300000D03*
%TD*%
D19*
%TO.C,LED1*%
X45193750Y-142103139D03*
X46693750Y-142103139D03*
X45193750Y-136653139D03*
D18*
X46693750Y-136653139D03*
%TD*%
D20*
%TO.C,D11*%
X99060000Y-133350000D03*
D21*
X91440000Y-133350000D03*
%TD*%
D20*
%TO.C,D10*%
X99410000Y-114500000D03*
D21*
X91790000Y-114500000D03*
%TD*%
D19*
%TO.C,LED6*%
X45193750Y-124134417D03*
X46693750Y-124134417D03*
X45193750Y-118684417D03*
D18*
X46693750Y-118684417D03*
%TD*%
D22*
%TO.C,D5*%
X66675000Y-146685000D03*
D21*
X66675000Y-139065000D03*
%TD*%
M02*
