%TF.GenerationSoftware,KiCad,Pcbnew,9.0.6*%
%TF.CreationDate,2025-12-02T21:56:05+08:00*%
%TF.ProjectId,Macropad,4d616372-6f70-4616-942e-6b696361645f,rev?*%
%TF.SameCoordinates,Original*%
%TF.FileFunction,Legend,Top*%
%TF.FilePolarity,Positive*%
%FSLAX46Y46*%
G04 Gerber Fmt 4.6, Leading zero omitted, Abs format (unit mm)*
G04 Created by KiCad (PCBNEW 9.0.6) date 2025-12-02 21:56:05*
%MOMM*%
%LPD*%
G01*
G04 APERTURE LIST*
%ADD10C,0.100000*%
%ADD11C,0.150000*%
%ADD12C,0.120000*%
%ADD13C,0.040000*%
G04 APERTURE END LIST*
D10*
X87503884Y-151872419D02*
X87503884Y-150872419D01*
X87503884Y-151348609D02*
X88075312Y-151348609D01*
X88075312Y-151872419D02*
X88075312Y-150872419D01*
X88980074Y-151872419D02*
X88980074Y-151348609D01*
X88980074Y-151348609D02*
X88932455Y-151253371D01*
X88932455Y-151253371D02*
X88837217Y-151205752D01*
X88837217Y-151205752D02*
X88646741Y-151205752D01*
X88646741Y-151205752D02*
X88551503Y-151253371D01*
X88980074Y-151824800D02*
X88884836Y-151872419D01*
X88884836Y-151872419D02*
X88646741Y-151872419D01*
X88646741Y-151872419D02*
X88551503Y-151824800D01*
X88551503Y-151824800D02*
X88503884Y-151729561D01*
X88503884Y-151729561D02*
X88503884Y-151634323D01*
X88503884Y-151634323D02*
X88551503Y-151539085D01*
X88551503Y-151539085D02*
X88646741Y-151491466D01*
X88646741Y-151491466D02*
X88884836Y-151491466D01*
X88884836Y-151491466D02*
X88980074Y-151443847D01*
X89884836Y-151824800D02*
X89789598Y-151872419D01*
X89789598Y-151872419D02*
X89599122Y-151872419D01*
X89599122Y-151872419D02*
X89503884Y-151824800D01*
X89503884Y-151824800D02*
X89456265Y-151777180D01*
X89456265Y-151777180D02*
X89408646Y-151681942D01*
X89408646Y-151681942D02*
X89408646Y-151396228D01*
X89408646Y-151396228D02*
X89456265Y-151300990D01*
X89456265Y-151300990D02*
X89503884Y-151253371D01*
X89503884Y-151253371D02*
X89599122Y-151205752D01*
X89599122Y-151205752D02*
X89789598Y-151205752D01*
X89789598Y-151205752D02*
X89884836Y-151253371D01*
X90313408Y-151872419D02*
X90313408Y-150872419D01*
X90408646Y-151491466D02*
X90694360Y-151872419D01*
X90694360Y-151205752D02*
X90313408Y-151586704D01*
X91122932Y-151205752D02*
X91122932Y-152205752D01*
X91122932Y-151253371D02*
X91218170Y-151205752D01*
X91218170Y-151205752D02*
X91408646Y-151205752D01*
X91408646Y-151205752D02*
X91503884Y-151253371D01*
X91503884Y-151253371D02*
X91551503Y-151300990D01*
X91551503Y-151300990D02*
X91599122Y-151396228D01*
X91599122Y-151396228D02*
X91599122Y-151681942D01*
X91599122Y-151681942D02*
X91551503Y-151777180D01*
X91551503Y-151777180D02*
X91503884Y-151824800D01*
X91503884Y-151824800D02*
X91408646Y-151872419D01*
X91408646Y-151872419D02*
X91218170Y-151872419D01*
X91218170Y-151872419D02*
X91122932Y-151824800D01*
X92456265Y-151872419D02*
X92456265Y-151348609D01*
X92456265Y-151348609D02*
X92408646Y-151253371D01*
X92408646Y-151253371D02*
X92313408Y-151205752D01*
X92313408Y-151205752D02*
X92122932Y-151205752D01*
X92122932Y-151205752D02*
X92027694Y-151253371D01*
X92456265Y-151824800D02*
X92361027Y-151872419D01*
X92361027Y-151872419D02*
X92122932Y-151872419D01*
X92122932Y-151872419D02*
X92027694Y-151824800D01*
X92027694Y-151824800D02*
X91980075Y-151729561D01*
X91980075Y-151729561D02*
X91980075Y-151634323D01*
X91980075Y-151634323D02*
X92027694Y-151539085D01*
X92027694Y-151539085D02*
X92122932Y-151491466D01*
X92122932Y-151491466D02*
X92361027Y-151491466D01*
X92361027Y-151491466D02*
X92456265Y-151443847D01*
X93361027Y-151872419D02*
X93361027Y-150872419D01*
X93361027Y-151824800D02*
X93265789Y-151872419D01*
X93265789Y-151872419D02*
X93075313Y-151872419D01*
X93075313Y-151872419D02*
X92980075Y-151824800D01*
X92980075Y-151824800D02*
X92932456Y-151777180D01*
X92932456Y-151777180D02*
X92884837Y-151681942D01*
X92884837Y-151681942D02*
X92884837Y-151396228D01*
X92884837Y-151396228D02*
X92932456Y-151300990D01*
X92932456Y-151300990D02*
X92980075Y-151253371D01*
X92980075Y-151253371D02*
X93075313Y-151205752D01*
X93075313Y-151205752D02*
X93265789Y-151205752D01*
X93265789Y-151205752D02*
X93361027Y-151253371D01*
X95170551Y-151872419D02*
X94837218Y-151396228D01*
X94599123Y-151872419D02*
X94599123Y-150872419D01*
X94599123Y-150872419D02*
X94980075Y-150872419D01*
X94980075Y-150872419D02*
X95075313Y-150920038D01*
X95075313Y-150920038D02*
X95122932Y-150967657D01*
X95122932Y-150967657D02*
X95170551Y-151062895D01*
X95170551Y-151062895D02*
X95170551Y-151205752D01*
X95170551Y-151205752D02*
X95122932Y-151300990D01*
X95122932Y-151300990D02*
X95075313Y-151348609D01*
X95075313Y-151348609D02*
X94980075Y-151396228D01*
X94980075Y-151396228D02*
X94599123Y-151396228D01*
X95980075Y-151824800D02*
X95884837Y-151872419D01*
X95884837Y-151872419D02*
X95694361Y-151872419D01*
X95694361Y-151872419D02*
X95599123Y-151824800D01*
X95599123Y-151824800D02*
X95551504Y-151729561D01*
X95551504Y-151729561D02*
X95551504Y-151348609D01*
X95551504Y-151348609D02*
X95599123Y-151253371D01*
X95599123Y-151253371D02*
X95694361Y-151205752D01*
X95694361Y-151205752D02*
X95884837Y-151205752D01*
X95884837Y-151205752D02*
X95980075Y-151253371D01*
X95980075Y-151253371D02*
X96027694Y-151348609D01*
X96027694Y-151348609D02*
X96027694Y-151443847D01*
X96027694Y-151443847D02*
X95551504Y-151539085D01*
X96361028Y-151205752D02*
X96599123Y-151872419D01*
X96599123Y-151872419D02*
X96837218Y-151205752D01*
X97741980Y-151872419D02*
X97170552Y-151872419D01*
X97456266Y-151872419D02*
X97456266Y-150872419D01*
X97456266Y-150872419D02*
X97361028Y-151015276D01*
X97361028Y-151015276D02*
X97265790Y-151110514D01*
X97265790Y-151110514D02*
X97170552Y-151158133D01*
X99218171Y-152253371D02*
X99170552Y-152205752D01*
X99170552Y-152205752D02*
X99075314Y-152062895D01*
X99075314Y-152062895D02*
X99027695Y-151967657D01*
X99027695Y-151967657D02*
X98980076Y-151824800D01*
X98980076Y-151824800D02*
X98932457Y-151586704D01*
X98932457Y-151586704D02*
X98932457Y-151396228D01*
X98932457Y-151396228D02*
X98980076Y-151158133D01*
X98980076Y-151158133D02*
X99027695Y-151015276D01*
X99027695Y-151015276D02*
X99075314Y-150920038D01*
X99075314Y-150920038D02*
X99170552Y-150777180D01*
X99170552Y-150777180D02*
X99218171Y-150729561D01*
X100170552Y-151777180D02*
X100122933Y-151824800D01*
X100122933Y-151824800D02*
X99980076Y-151872419D01*
X99980076Y-151872419D02*
X99884838Y-151872419D01*
X99884838Y-151872419D02*
X99741981Y-151824800D01*
X99741981Y-151824800D02*
X99646743Y-151729561D01*
X99646743Y-151729561D02*
X99599124Y-151634323D01*
X99599124Y-151634323D02*
X99551505Y-151443847D01*
X99551505Y-151443847D02*
X99551505Y-151300990D01*
X99551505Y-151300990D02*
X99599124Y-151110514D01*
X99599124Y-151110514D02*
X99646743Y-151015276D01*
X99646743Y-151015276D02*
X99741981Y-150920038D01*
X99741981Y-150920038D02*
X99884838Y-150872419D01*
X99884838Y-150872419D02*
X99980076Y-150872419D01*
X99980076Y-150872419D02*
X100122933Y-150920038D01*
X100122933Y-150920038D02*
X100170552Y-150967657D01*
X100551505Y-151586704D02*
X101027695Y-151586704D01*
X100456267Y-151872419D02*
X100789600Y-150872419D01*
X100789600Y-150872419D02*
X101122933Y-151872419D01*
X101456267Y-151872419D02*
X101456267Y-150872419D01*
X101456267Y-150872419D02*
X101694362Y-150872419D01*
X101694362Y-150872419D02*
X101837219Y-150920038D01*
X101837219Y-150920038D02*
X101932457Y-151015276D01*
X101932457Y-151015276D02*
X101980076Y-151110514D01*
X101980076Y-151110514D02*
X102027695Y-151300990D01*
X102027695Y-151300990D02*
X102027695Y-151443847D01*
X102027695Y-151443847D02*
X101980076Y-151634323D01*
X101980076Y-151634323D02*
X101932457Y-151729561D01*
X101932457Y-151729561D02*
X101837219Y-151824800D01*
X101837219Y-151824800D02*
X101694362Y-151872419D01*
X101694362Y-151872419D02*
X101456267Y-151872419D01*
X102456267Y-151872419D02*
X102456267Y-150872419D01*
X102456267Y-150872419D02*
X102837219Y-150872419D01*
X102837219Y-150872419D02*
X102932457Y-150920038D01*
X102932457Y-150920038D02*
X102980076Y-150967657D01*
X102980076Y-150967657D02*
X103027695Y-151062895D01*
X103027695Y-151062895D02*
X103027695Y-151205752D01*
X103027695Y-151205752D02*
X102980076Y-151300990D01*
X102980076Y-151300990D02*
X102932457Y-151348609D01*
X102932457Y-151348609D02*
X102837219Y-151396228D01*
X102837219Y-151396228D02*
X102456267Y-151396228D01*
X103408648Y-151586704D02*
X103884838Y-151586704D01*
X103313410Y-151872419D02*
X103646743Y-150872419D01*
X103646743Y-150872419D02*
X103980076Y-151872419D01*
X104313410Y-151872419D02*
X104313410Y-150872419D01*
X104313410Y-150872419D02*
X104551505Y-150872419D01*
X104551505Y-150872419D02*
X104694362Y-150920038D01*
X104694362Y-150920038D02*
X104789600Y-151015276D01*
X104789600Y-151015276D02*
X104837219Y-151110514D01*
X104837219Y-151110514D02*
X104884838Y-151300990D01*
X104884838Y-151300990D02*
X104884838Y-151443847D01*
X104884838Y-151443847D02*
X104837219Y-151634323D01*
X104837219Y-151634323D02*
X104789600Y-151729561D01*
X104789600Y-151729561D02*
X104694362Y-151824800D01*
X104694362Y-151824800D02*
X104551505Y-151872419D01*
X104551505Y-151872419D02*
X104313410Y-151872419D01*
X105218172Y-152253371D02*
X105265791Y-152205752D01*
X105265791Y-152205752D02*
X105361029Y-152062895D01*
X105361029Y-152062895D02*
X105408648Y-151967657D01*
X105408648Y-151967657D02*
X105456267Y-151824800D01*
X105456267Y-151824800D02*
X105503886Y-151586704D01*
X105503886Y-151586704D02*
X105503886Y-151396228D01*
X105503886Y-151396228D02*
X105456267Y-151158133D01*
X105456267Y-151158133D02*
X105408648Y-151015276D01*
X105408648Y-151015276D02*
X105361029Y-150920038D01*
X105361029Y-150920038D02*
X105265791Y-150777180D01*
X105265791Y-150777180D02*
X105218172Y-150729561D01*
X70703884Y-151672419D02*
X70703884Y-150672419D01*
X70703884Y-151148609D02*
X71275312Y-151148609D01*
X71275312Y-151672419D02*
X71275312Y-150672419D01*
X72132455Y-151624800D02*
X72037217Y-151672419D01*
X72037217Y-151672419D02*
X71846741Y-151672419D01*
X71846741Y-151672419D02*
X71751503Y-151624800D01*
X71751503Y-151624800D02*
X71703884Y-151529561D01*
X71703884Y-151529561D02*
X71703884Y-151148609D01*
X71703884Y-151148609D02*
X71751503Y-151053371D01*
X71751503Y-151053371D02*
X71846741Y-151005752D01*
X71846741Y-151005752D02*
X72037217Y-151005752D01*
X72037217Y-151005752D02*
X72132455Y-151053371D01*
X72132455Y-151053371D02*
X72180074Y-151148609D01*
X72180074Y-151148609D02*
X72180074Y-151243847D01*
X72180074Y-151243847D02*
X71703884Y-151339085D01*
X72751503Y-151672419D02*
X72656265Y-151624800D01*
X72656265Y-151624800D02*
X72608646Y-151529561D01*
X72608646Y-151529561D02*
X72608646Y-150672419D01*
X73275313Y-151672419D02*
X73180075Y-151624800D01*
X73180075Y-151624800D02*
X73132456Y-151529561D01*
X73132456Y-151529561D02*
X73132456Y-150672419D01*
X73799123Y-151672419D02*
X73703885Y-151624800D01*
X73703885Y-151624800D02*
X73656266Y-151577180D01*
X73656266Y-151577180D02*
X73608647Y-151481942D01*
X73608647Y-151481942D02*
X73608647Y-151196228D01*
X73608647Y-151196228D02*
X73656266Y-151100990D01*
X73656266Y-151100990D02*
X73703885Y-151053371D01*
X73703885Y-151053371D02*
X73799123Y-151005752D01*
X73799123Y-151005752D02*
X73941980Y-151005752D01*
X73941980Y-151005752D02*
X74037218Y-151053371D01*
X74037218Y-151053371D02*
X74084837Y-151100990D01*
X74084837Y-151100990D02*
X74132456Y-151196228D01*
X74132456Y-151196228D02*
X74132456Y-151481942D01*
X74132456Y-151481942D02*
X74084837Y-151577180D01*
X74084837Y-151577180D02*
X74037218Y-151624800D01*
X74037218Y-151624800D02*
X73941980Y-151672419D01*
X73941980Y-151672419D02*
X73799123Y-151672419D01*
X75227695Y-150672419D02*
X75465790Y-151672419D01*
X75465790Y-151672419D02*
X75656266Y-150958133D01*
X75656266Y-150958133D02*
X75846742Y-151672419D01*
X75846742Y-151672419D02*
X76084838Y-150672419D01*
X76608647Y-151672419D02*
X76513409Y-151624800D01*
X76513409Y-151624800D02*
X76465790Y-151577180D01*
X76465790Y-151577180D02*
X76418171Y-151481942D01*
X76418171Y-151481942D02*
X76418171Y-151196228D01*
X76418171Y-151196228D02*
X76465790Y-151100990D01*
X76465790Y-151100990D02*
X76513409Y-151053371D01*
X76513409Y-151053371D02*
X76608647Y-151005752D01*
X76608647Y-151005752D02*
X76751504Y-151005752D01*
X76751504Y-151005752D02*
X76846742Y-151053371D01*
X76846742Y-151053371D02*
X76894361Y-151100990D01*
X76894361Y-151100990D02*
X76941980Y-151196228D01*
X76941980Y-151196228D02*
X76941980Y-151481942D01*
X76941980Y-151481942D02*
X76894361Y-151577180D01*
X76894361Y-151577180D02*
X76846742Y-151624800D01*
X76846742Y-151624800D02*
X76751504Y-151672419D01*
X76751504Y-151672419D02*
X76608647Y-151672419D01*
X77370552Y-151672419D02*
X77370552Y-151005752D01*
X77370552Y-151196228D02*
X77418171Y-151100990D01*
X77418171Y-151100990D02*
X77465790Y-151053371D01*
X77465790Y-151053371D02*
X77561028Y-151005752D01*
X77561028Y-151005752D02*
X77656266Y-151005752D01*
X78132457Y-151672419D02*
X78037219Y-151624800D01*
X78037219Y-151624800D02*
X77989600Y-151529561D01*
X77989600Y-151529561D02*
X77989600Y-150672419D01*
X78941981Y-151672419D02*
X78941981Y-150672419D01*
X78941981Y-151624800D02*
X78846743Y-151672419D01*
X78846743Y-151672419D02*
X78656267Y-151672419D01*
X78656267Y-151672419D02*
X78561029Y-151624800D01*
X78561029Y-151624800D02*
X78513410Y-151577180D01*
X78513410Y-151577180D02*
X78465791Y-151481942D01*
X78465791Y-151481942D02*
X78465791Y-151196228D01*
X78465791Y-151196228D02*
X78513410Y-151100990D01*
X78513410Y-151100990D02*
X78561029Y-151053371D01*
X78561029Y-151053371D02*
X78656267Y-151005752D01*
X78656267Y-151005752D02*
X78846743Y-151005752D01*
X78846743Y-151005752D02*
X78941981Y-151053371D01*
X79418172Y-151577180D02*
X79465791Y-151624800D01*
X79465791Y-151624800D02*
X79418172Y-151672419D01*
X79418172Y-151672419D02*
X79370553Y-151624800D01*
X79370553Y-151624800D02*
X79418172Y-151577180D01*
X79418172Y-151577180D02*
X79418172Y-151672419D01*
X79418172Y-151291466D02*
X79370553Y-150720038D01*
X79370553Y-150720038D02*
X79418172Y-150672419D01*
X79418172Y-150672419D02*
X79465791Y-150720038D01*
X79465791Y-150720038D02*
X79418172Y-151291466D01*
X79418172Y-151291466D02*
X79418172Y-150672419D01*
D11*
X90540476Y-81719700D02*
X90683333Y-81767319D01*
X90683333Y-81767319D02*
X90921428Y-81767319D01*
X90921428Y-81767319D02*
X91016666Y-81719700D01*
X91016666Y-81719700D02*
X91064285Y-81672080D01*
X91064285Y-81672080D02*
X91111904Y-81576842D01*
X91111904Y-81576842D02*
X91111904Y-81481604D01*
X91111904Y-81481604D02*
X91064285Y-81386366D01*
X91064285Y-81386366D02*
X91016666Y-81338747D01*
X91016666Y-81338747D02*
X90921428Y-81291128D01*
X90921428Y-81291128D02*
X90730952Y-81243509D01*
X90730952Y-81243509D02*
X90635714Y-81195890D01*
X90635714Y-81195890D02*
X90588095Y-81148271D01*
X90588095Y-81148271D02*
X90540476Y-81053033D01*
X90540476Y-81053033D02*
X90540476Y-80957795D01*
X90540476Y-80957795D02*
X90588095Y-80862557D01*
X90588095Y-80862557D02*
X90635714Y-80814938D01*
X90635714Y-80814938D02*
X90730952Y-80767319D01*
X90730952Y-80767319D02*
X90969047Y-80767319D01*
X90969047Y-80767319D02*
X91111904Y-80814938D01*
X91445238Y-80767319D02*
X91683333Y-81767319D01*
X91683333Y-81767319D02*
X91873809Y-81053033D01*
X91873809Y-81053033D02*
X92064285Y-81767319D01*
X92064285Y-81767319D02*
X92302381Y-80767319D01*
X93207142Y-81767319D02*
X92635714Y-81767319D01*
X92921428Y-81767319D02*
X92921428Y-80767319D01*
X92921428Y-80767319D02*
X92826190Y-80910176D01*
X92826190Y-80910176D02*
X92730952Y-81005414D01*
X92730952Y-81005414D02*
X92635714Y-81053033D01*
X94159523Y-81767319D02*
X93588095Y-81767319D01*
X93873809Y-81767319D02*
X93873809Y-80767319D01*
X93873809Y-80767319D02*
X93778571Y-80910176D01*
X93778571Y-80910176D02*
X93683333Y-81005414D01*
X93683333Y-81005414D02*
X93588095Y-81053033D01*
X50854819Y-87933333D02*
X51569104Y-87933333D01*
X51569104Y-87933333D02*
X51711961Y-87980952D01*
X51711961Y-87980952D02*
X51807200Y-88076190D01*
X51807200Y-88076190D02*
X51854819Y-88219047D01*
X51854819Y-88219047D02*
X51854819Y-88314285D01*
X51854819Y-86933333D02*
X51854819Y-87504761D01*
X51854819Y-87219047D02*
X50854819Y-87219047D01*
X50854819Y-87219047D02*
X50997676Y-87314285D01*
X50997676Y-87314285D02*
X51092914Y-87409523D01*
X51092914Y-87409523D02*
X51140533Y-87504761D01*
X84303450Y-89852856D02*
X84339164Y-89745714D01*
X84339164Y-89745714D02*
X84339164Y-89567142D01*
X84339164Y-89567142D02*
X84303450Y-89495714D01*
X84303450Y-89495714D02*
X84267735Y-89459999D01*
X84267735Y-89459999D02*
X84196307Y-89424285D01*
X84196307Y-89424285D02*
X84124878Y-89424285D01*
X84124878Y-89424285D02*
X84053450Y-89459999D01*
X84053450Y-89459999D02*
X84017735Y-89495714D01*
X84017735Y-89495714D02*
X83982021Y-89567142D01*
X83982021Y-89567142D02*
X83946307Y-89709999D01*
X83946307Y-89709999D02*
X83910592Y-89781428D01*
X83910592Y-89781428D02*
X83874878Y-89817142D01*
X83874878Y-89817142D02*
X83803450Y-89852856D01*
X83803450Y-89852856D02*
X83732021Y-89852856D01*
X83732021Y-89852856D02*
X83660592Y-89817142D01*
X83660592Y-89817142D02*
X83624878Y-89781428D01*
X83624878Y-89781428D02*
X83589164Y-89709999D01*
X83589164Y-89709999D02*
X83589164Y-89531428D01*
X83589164Y-89531428D02*
X83624878Y-89424285D01*
X84267735Y-88674285D02*
X84303450Y-88709999D01*
X84303450Y-88709999D02*
X84339164Y-88817142D01*
X84339164Y-88817142D02*
X84339164Y-88888570D01*
X84339164Y-88888570D02*
X84303450Y-88995713D01*
X84303450Y-88995713D02*
X84232021Y-89067142D01*
X84232021Y-89067142D02*
X84160592Y-89102856D01*
X84160592Y-89102856D02*
X84017735Y-89138570D01*
X84017735Y-89138570D02*
X83910592Y-89138570D01*
X83910592Y-89138570D02*
X83767735Y-89102856D01*
X83767735Y-89102856D02*
X83696307Y-89067142D01*
X83696307Y-89067142D02*
X83624878Y-88995713D01*
X83624878Y-88995713D02*
X83589164Y-88888570D01*
X83589164Y-88888570D02*
X83589164Y-88817142D01*
X83589164Y-88817142D02*
X83624878Y-88709999D01*
X83624878Y-88709999D02*
X83660592Y-88674285D01*
X84339164Y-87995713D02*
X84339164Y-88352856D01*
X84339164Y-88352856D02*
X83589164Y-88352856D01*
X84303450Y-92410713D02*
X84339164Y-92303571D01*
X84339164Y-92303571D02*
X84339164Y-92124999D01*
X84339164Y-92124999D02*
X84303450Y-92053571D01*
X84303450Y-92053571D02*
X84267735Y-92017856D01*
X84267735Y-92017856D02*
X84196307Y-91982142D01*
X84196307Y-91982142D02*
X84124878Y-91982142D01*
X84124878Y-91982142D02*
X84053450Y-92017856D01*
X84053450Y-92017856D02*
X84017735Y-92053571D01*
X84017735Y-92053571D02*
X83982021Y-92124999D01*
X83982021Y-92124999D02*
X83946307Y-92267856D01*
X83946307Y-92267856D02*
X83910592Y-92339285D01*
X83910592Y-92339285D02*
X83874878Y-92374999D01*
X83874878Y-92374999D02*
X83803450Y-92410713D01*
X83803450Y-92410713D02*
X83732021Y-92410713D01*
X83732021Y-92410713D02*
X83660592Y-92374999D01*
X83660592Y-92374999D02*
X83624878Y-92339285D01*
X83624878Y-92339285D02*
X83589164Y-92267856D01*
X83589164Y-92267856D02*
X83589164Y-92089285D01*
X83589164Y-92089285D02*
X83624878Y-91982142D01*
X84339164Y-91660713D02*
X83589164Y-91660713D01*
X83589164Y-91660713D02*
X83589164Y-91482142D01*
X83589164Y-91482142D02*
X83624878Y-91374999D01*
X83624878Y-91374999D02*
X83696307Y-91303570D01*
X83696307Y-91303570D02*
X83767735Y-91267856D01*
X83767735Y-91267856D02*
X83910592Y-91232142D01*
X83910592Y-91232142D02*
X84017735Y-91232142D01*
X84017735Y-91232142D02*
X84160592Y-91267856D01*
X84160592Y-91267856D02*
X84232021Y-91303570D01*
X84232021Y-91303570D02*
X84303450Y-91374999D01*
X84303450Y-91374999D02*
X84339164Y-91482142D01*
X84339164Y-91482142D02*
X84339164Y-91660713D01*
X84124878Y-90946427D02*
X84124878Y-90589285D01*
X84339164Y-91017856D02*
X83589164Y-90767856D01*
X83589164Y-90767856D02*
X84339164Y-90517856D01*
X83624878Y-84451428D02*
X83589164Y-84522857D01*
X83589164Y-84522857D02*
X83589164Y-84629999D01*
X83589164Y-84629999D02*
X83624878Y-84737142D01*
X83624878Y-84737142D02*
X83696307Y-84808571D01*
X83696307Y-84808571D02*
X83767735Y-84844285D01*
X83767735Y-84844285D02*
X83910592Y-84879999D01*
X83910592Y-84879999D02*
X84017735Y-84879999D01*
X84017735Y-84879999D02*
X84160592Y-84844285D01*
X84160592Y-84844285D02*
X84232021Y-84808571D01*
X84232021Y-84808571D02*
X84303450Y-84737142D01*
X84303450Y-84737142D02*
X84339164Y-84629999D01*
X84339164Y-84629999D02*
X84339164Y-84558571D01*
X84339164Y-84558571D02*
X84303450Y-84451428D01*
X84303450Y-84451428D02*
X84267735Y-84415714D01*
X84267735Y-84415714D02*
X84017735Y-84415714D01*
X84017735Y-84415714D02*
X84017735Y-84558571D01*
X84339164Y-84094285D02*
X83589164Y-84094285D01*
X83589164Y-84094285D02*
X84339164Y-83665714D01*
X84339164Y-83665714D02*
X83589164Y-83665714D01*
X84339164Y-83308571D02*
X83589164Y-83308571D01*
X83589164Y-83308571D02*
X83589164Y-83130000D01*
X83589164Y-83130000D02*
X83624878Y-83022857D01*
X83624878Y-83022857D02*
X83696307Y-82951428D01*
X83696307Y-82951428D02*
X83767735Y-82915714D01*
X83767735Y-82915714D02*
X83910592Y-82880000D01*
X83910592Y-82880000D02*
X84017735Y-82880000D01*
X84017735Y-82880000D02*
X84160592Y-82915714D01*
X84160592Y-82915714D02*
X84232021Y-82951428D01*
X84232021Y-82951428D02*
X84303450Y-83022857D01*
X84303450Y-83022857D02*
X84339164Y-83130000D01*
X84339164Y-83130000D02*
X84339164Y-83308571D01*
X64571428Y-87144819D02*
X64761904Y-87144819D01*
X64761904Y-87144819D02*
X64857142Y-87192438D01*
X64857142Y-87192438D02*
X64952380Y-87287676D01*
X64952380Y-87287676D02*
X64999999Y-87478152D01*
X64999999Y-87478152D02*
X64999999Y-87811485D01*
X64999999Y-87811485D02*
X64952380Y-88001961D01*
X64952380Y-88001961D02*
X64857142Y-88097200D01*
X64857142Y-88097200D02*
X64761904Y-88144819D01*
X64761904Y-88144819D02*
X64571428Y-88144819D01*
X64571428Y-88144819D02*
X64476190Y-88097200D01*
X64476190Y-88097200D02*
X64380952Y-88001961D01*
X64380952Y-88001961D02*
X64333333Y-87811485D01*
X64333333Y-87811485D02*
X64333333Y-87478152D01*
X64333333Y-87478152D02*
X64380952Y-87287676D01*
X64380952Y-87287676D02*
X64476190Y-87192438D01*
X64476190Y-87192438D02*
X64571428Y-87144819D01*
X65904761Y-88144819D02*
X65428571Y-88144819D01*
X65428571Y-88144819D02*
X65428571Y-87144819D01*
X66238095Y-87621009D02*
X66571428Y-87621009D01*
X66714285Y-88144819D02*
X66238095Y-88144819D01*
X66238095Y-88144819D02*
X66238095Y-87144819D01*
X66238095Y-87144819D02*
X66714285Y-87144819D01*
X67142857Y-88144819D02*
X67142857Y-87144819D01*
X67142857Y-87144819D02*
X67380952Y-87144819D01*
X67380952Y-87144819D02*
X67523809Y-87192438D01*
X67523809Y-87192438D02*
X67619047Y-87287676D01*
X67619047Y-87287676D02*
X67666666Y-87382914D01*
X67666666Y-87382914D02*
X67714285Y-87573390D01*
X67714285Y-87573390D02*
X67714285Y-87716247D01*
X67714285Y-87716247D02*
X67666666Y-87906723D01*
X67666666Y-87906723D02*
X67619047Y-88001961D01*
X67619047Y-88001961D02*
X67523809Y-88097200D01*
X67523809Y-88097200D02*
X67380952Y-88144819D01*
X67380952Y-88144819D02*
X67142857Y-88144819D01*
X68904762Y-88144819D02*
X68904762Y-87144819D01*
X68904762Y-87144819D02*
X69285714Y-87144819D01*
X69285714Y-87144819D02*
X69380952Y-87192438D01*
X69380952Y-87192438D02*
X69428571Y-87240057D01*
X69428571Y-87240057D02*
X69476190Y-87335295D01*
X69476190Y-87335295D02*
X69476190Y-87478152D01*
X69476190Y-87478152D02*
X69428571Y-87573390D01*
X69428571Y-87573390D02*
X69380952Y-87621009D01*
X69380952Y-87621009D02*
X69285714Y-87668628D01*
X69285714Y-87668628D02*
X68904762Y-87668628D01*
X70333333Y-88144819D02*
X70333333Y-87621009D01*
X70333333Y-87621009D02*
X70285714Y-87525771D01*
X70285714Y-87525771D02*
X70190476Y-87478152D01*
X70190476Y-87478152D02*
X70000000Y-87478152D01*
X70000000Y-87478152D02*
X69904762Y-87525771D01*
X70333333Y-88097200D02*
X70238095Y-88144819D01*
X70238095Y-88144819D02*
X70000000Y-88144819D01*
X70000000Y-88144819D02*
X69904762Y-88097200D01*
X69904762Y-88097200D02*
X69857143Y-88001961D01*
X69857143Y-88001961D02*
X69857143Y-87906723D01*
X69857143Y-87906723D02*
X69904762Y-87811485D01*
X69904762Y-87811485D02*
X70000000Y-87763866D01*
X70000000Y-87763866D02*
X70238095Y-87763866D01*
X70238095Y-87763866D02*
X70333333Y-87716247D01*
X70809524Y-87478152D02*
X70809524Y-88144819D01*
X70809524Y-87573390D02*
X70857143Y-87525771D01*
X70857143Y-87525771D02*
X70952381Y-87478152D01*
X70952381Y-87478152D02*
X71095238Y-87478152D01*
X71095238Y-87478152D02*
X71190476Y-87525771D01*
X71190476Y-87525771D02*
X71238095Y-87621009D01*
X71238095Y-87621009D02*
X71238095Y-88144819D01*
X72095238Y-88097200D02*
X72000000Y-88144819D01*
X72000000Y-88144819D02*
X71809524Y-88144819D01*
X71809524Y-88144819D02*
X71714286Y-88097200D01*
X71714286Y-88097200D02*
X71666667Y-88001961D01*
X71666667Y-88001961D02*
X71666667Y-87621009D01*
X71666667Y-87621009D02*
X71714286Y-87525771D01*
X71714286Y-87525771D02*
X71809524Y-87478152D01*
X71809524Y-87478152D02*
X72000000Y-87478152D01*
X72000000Y-87478152D02*
X72095238Y-87525771D01*
X72095238Y-87525771D02*
X72142857Y-87621009D01*
X72142857Y-87621009D02*
X72142857Y-87716247D01*
X72142857Y-87716247D02*
X71666667Y-87811485D01*
X72714286Y-88144819D02*
X72619048Y-88097200D01*
X72619048Y-88097200D02*
X72571429Y-88001961D01*
X72571429Y-88001961D02*
X72571429Y-87144819D01*
X83589164Y-87419999D02*
X84339164Y-87169999D01*
X84339164Y-87169999D02*
X83589164Y-86919999D01*
X84267735Y-86241428D02*
X84303450Y-86277142D01*
X84303450Y-86277142D02*
X84339164Y-86384285D01*
X84339164Y-86384285D02*
X84339164Y-86455713D01*
X84339164Y-86455713D02*
X84303450Y-86562856D01*
X84303450Y-86562856D02*
X84232021Y-86634285D01*
X84232021Y-86634285D02*
X84160592Y-86669999D01*
X84160592Y-86669999D02*
X84017735Y-86705713D01*
X84017735Y-86705713D02*
X83910592Y-86705713D01*
X83910592Y-86705713D02*
X83767735Y-86669999D01*
X83767735Y-86669999D02*
X83696307Y-86634285D01*
X83696307Y-86634285D02*
X83624878Y-86562856D01*
X83624878Y-86562856D02*
X83589164Y-86455713D01*
X83589164Y-86455713D02*
X83589164Y-86384285D01*
X83589164Y-86384285D02*
X83624878Y-86277142D01*
X83624878Y-86277142D02*
X83660592Y-86241428D01*
X84267735Y-85491428D02*
X84303450Y-85527142D01*
X84303450Y-85527142D02*
X84339164Y-85634285D01*
X84339164Y-85634285D02*
X84339164Y-85705713D01*
X84339164Y-85705713D02*
X84303450Y-85812856D01*
X84303450Y-85812856D02*
X84232021Y-85884285D01*
X84232021Y-85884285D02*
X84160592Y-85919999D01*
X84160592Y-85919999D02*
X84017735Y-85955713D01*
X84017735Y-85955713D02*
X83910592Y-85955713D01*
X83910592Y-85955713D02*
X83767735Y-85919999D01*
X83767735Y-85919999D02*
X83696307Y-85884285D01*
X83696307Y-85884285D02*
X83624878Y-85812856D01*
X83624878Y-85812856D02*
X83589164Y-85705713D01*
X83589164Y-85705713D02*
X83589164Y-85634285D01*
X83589164Y-85634285D02*
X83624878Y-85527142D01*
X83624878Y-85527142D02*
X83660592Y-85491428D01*
D12*
%TO.C,SW11*%
X89450000Y-83900000D02*
X90050000Y-83900000D01*
X89750000Y-84200000D02*
X89450000Y-83900000D01*
X90050000Y-83900000D02*
X89750000Y-84200000D01*
X91150000Y-82100000D02*
X91150000Y-93900000D01*
X95250000Y-82100000D02*
X91150000Y-82100000D01*
X95250000Y-93900000D02*
X91150000Y-93900000D01*
X96750000Y-88000000D02*
X97750000Y-88000000D01*
X97250000Y-87500000D02*
X97250000Y-88500000D01*
X99250000Y-82100000D02*
X103350000Y-82100000D01*
X103350000Y-82100000D02*
X103350000Y-84500000D01*
X103350000Y-86700000D02*
X103350000Y-89300000D01*
X103350000Y-91500000D02*
X103350000Y-93900000D01*
X103350000Y-93900000D02*
X99250000Y-93900000D01*
X100250000Y-88000000D02*
G75*
G02*
X94250000Y-88000000I-3000000J0D01*
G01*
X94250000Y-88000000D02*
G75*
G02*
X100250000Y-88000000I3000000J0D01*
G01*
D13*
%TO.C,J1*%
X49500000Y-81690000D02*
X49500000Y-93690000D01*
X49500000Y-93690000D02*
X87500000Y-93690000D01*
X53000000Y-81690000D02*
X53000000Y-93690000D01*
X82500000Y-81690000D02*
X82500000Y-93690000D01*
X87500000Y-81690000D02*
X49500000Y-81690000D01*
X87500000Y-93690000D02*
X87500000Y-81690000D01*
%TD*%
M02*
