%TF.GenerationSoftware,KiCad,Pcbnew,9.0.6*%
%TF.CreationDate,2025-12-02T16:00:42+08:00*%
%TF.ProjectId,Macropad,4d616372-6f70-4616-942e-6b696361645f,rev?*%
%TF.SameCoordinates,Original*%
%TF.FileFunction,Profile,NP*%
%FSLAX46Y46*%
G04 Gerber Fmt 4.6, Leading zero omitted, Abs format (unit mm)*
G04 Created by KiCad (PCBNEW 9.0.6) date 2025-12-02 16:00:42*
%MOMM*%
%LPD*%
G01*
G04 APERTURE LIST*
%TA.AperFunction,Profile*%
%ADD10C,0.100000*%
%TD*%
G04 APERTURE END LIST*
D10*
X42500000Y-80300000D02*
X106500000Y-80300000D01*
X106500000Y-153300000D01*
X42500000Y-153300000D01*
X42500000Y-80300000D01*
%TO.C,LED8*%
X47512048Y-149409210D02*
G75*
G02*
X47443749Y-149156952I431710J252261D01*
G01*
X47512046Y-149409211D02*
G75*
G02*
X46863470Y-150111984I-431700J-252258D01*
G01*
X47443749Y-147568048D02*
G75*
G02*
X47512048Y-147315789I500011J-2D01*
G01*
X46863470Y-146613016D02*
G75*
G02*
X46646591Y-146662476I-216820J450516D01*
G01*
X46863468Y-146613016D02*
G75*
G02*
X47512051Y-147315790I216882J-450514D01*
G01*
X46646592Y-150062499D02*
G75*
G02*
X46863470Y-150111984I2J-499990D01*
G01*
X45240906Y-146662501D02*
G75*
G02*
X45024029Y-146613016I84J500361D01*
G01*
X45024029Y-150111984D02*
G75*
G02*
X45240907Y-150062499I216876J-450505D01*
G01*
X45024029Y-150111984D02*
G75*
G02*
X44375450Y-149409211I-216878J450515D01*
G01*
X44443749Y-149156953D02*
G75*
G02*
X44375450Y-149409211I-500009J3D01*
G01*
X44375452Y-147315789D02*
G75*
G02*
X45024028Y-146613017I431698J252259D01*
G01*
X44375452Y-147315789D02*
G75*
G02*
X44443749Y-147568047I-431692J-252251D01*
G01*
X47443749Y-147568048D02*
X47443749Y-149156952D01*
X46646591Y-150062499D02*
X45240907Y-150062499D01*
X45240907Y-146662501D02*
X46646591Y-146662501D01*
X44443750Y-149156952D02*
X44443750Y-147568047D01*
%TO.C,LED2*%
X44500000Y-85794452D02*
X44500000Y-84205547D01*
X45297157Y-83300001D02*
X46702841Y-83300001D01*
X46702841Y-86699999D02*
X45297157Y-86699999D01*
X47499999Y-84205548D02*
X47499999Y-85794452D01*
X44431702Y-83953289D02*
G75*
G02*
X44499999Y-84205547I-431692J-252251D01*
G01*
X44431702Y-83953289D02*
G75*
G02*
X45080278Y-83250517I431698J252259D01*
G01*
X44499999Y-85794453D02*
G75*
G02*
X44431700Y-86046711I-500009J3D01*
G01*
X45080279Y-86749484D02*
G75*
G02*
X44431700Y-86046711I-216878J450515D01*
G01*
X45080279Y-86749484D02*
G75*
G02*
X45297157Y-86699999I216876J-450505D01*
G01*
X45297156Y-83300001D02*
G75*
G02*
X45080279Y-83250516I84J500361D01*
G01*
X46702842Y-86699999D02*
G75*
G02*
X46919720Y-86749484I2J-499990D01*
G01*
X46919718Y-83250516D02*
G75*
G02*
X47568301Y-83953290I216882J-450514D01*
G01*
X46919720Y-83250516D02*
G75*
G02*
X46702841Y-83299976I-216820J450516D01*
G01*
X47499999Y-84205548D02*
G75*
G02*
X47568298Y-83953289I500011J-2D01*
G01*
X47568296Y-86046711D02*
G75*
G02*
X46919720Y-86749484I-431700J-252258D01*
G01*
X47568298Y-86046710D02*
G75*
G02*
X47499999Y-85794452I431710J252261D01*
G01*
%TO.C,LED3*%
X44500000Y-95250787D02*
X44500000Y-93661882D01*
X45297157Y-92756336D02*
X46702841Y-92756336D01*
X46702841Y-96156334D02*
X45297157Y-96156334D01*
X47499999Y-93661883D02*
X47499999Y-95250787D01*
X44431702Y-93409624D02*
G75*
G02*
X44499999Y-93661882I-431692J-252251D01*
G01*
X44431702Y-93409624D02*
G75*
G02*
X45080278Y-92706852I431698J252259D01*
G01*
X44499999Y-95250788D02*
G75*
G02*
X44431700Y-95503046I-500009J3D01*
G01*
X45080279Y-96205819D02*
G75*
G02*
X44431700Y-95503046I-216878J450515D01*
G01*
X45080279Y-96205819D02*
G75*
G02*
X45297157Y-96156334I216876J-450505D01*
G01*
X45297156Y-92756336D02*
G75*
G02*
X45080279Y-92706851I84J500361D01*
G01*
X46702842Y-96156334D02*
G75*
G02*
X46919720Y-96205819I2J-499990D01*
G01*
X46919718Y-92706851D02*
G75*
G02*
X47568301Y-93409625I216882J-450514D01*
G01*
X46919720Y-92706851D02*
G75*
G02*
X46702841Y-92756311I-216820J450516D01*
G01*
X47499999Y-93661883D02*
G75*
G02*
X47568298Y-93409624I500011J-2D01*
G01*
X47568296Y-95503046D02*
G75*
G02*
X46919720Y-96205819I-431700J-252258D01*
G01*
X47568298Y-95503045D02*
G75*
G02*
X47499999Y-95250787I431710J252261D01*
G01*
%TO.C,LED7*%
X44443750Y-131188230D02*
X44443750Y-129599325D01*
X45240907Y-128693779D02*
X46646591Y-128693779D01*
X46646591Y-132093777D02*
X45240907Y-132093777D01*
X47443749Y-129599326D02*
X47443749Y-131188230D01*
X44375452Y-129347067D02*
G75*
G02*
X44443749Y-129599325I-431692J-252251D01*
G01*
X44375452Y-129347067D02*
G75*
G02*
X45024028Y-128644295I431698J252259D01*
G01*
X44443749Y-131188231D02*
G75*
G02*
X44375450Y-131440489I-500009J3D01*
G01*
X45024029Y-132143262D02*
G75*
G02*
X44375450Y-131440489I-216878J450515D01*
G01*
X45024029Y-132143262D02*
G75*
G02*
X45240907Y-132093777I216876J-450505D01*
G01*
X45240906Y-128693779D02*
G75*
G02*
X45024029Y-128644294I84J500361D01*
G01*
X46646592Y-132093777D02*
G75*
G02*
X46863470Y-132143262I2J-499990D01*
G01*
X46863468Y-128644294D02*
G75*
G02*
X47512051Y-129347068I216882J-450514D01*
G01*
X46863470Y-128644294D02*
G75*
G02*
X46646591Y-128693754I-216820J450516D01*
G01*
X47443749Y-129599326D02*
G75*
G02*
X47512048Y-129347067I500011J-2D01*
G01*
X47512046Y-131440489D02*
G75*
G02*
X46863470Y-132143262I-431700J-252258D01*
G01*
X47512048Y-131440488D02*
G75*
G02*
X47443749Y-131188230I431710J252261D01*
G01*
%TO.C,LED4*%
X44443750Y-104235148D02*
X44443750Y-102646243D01*
X45240907Y-101740697D02*
X46646591Y-101740697D01*
X46646591Y-105140695D02*
X45240907Y-105140695D01*
X47443749Y-102646244D02*
X47443749Y-104235148D01*
X44375452Y-102393985D02*
G75*
G02*
X44443749Y-102646243I-431692J-252251D01*
G01*
X44375452Y-102393985D02*
G75*
G02*
X45024028Y-101691213I431698J252259D01*
G01*
X44443749Y-104235149D02*
G75*
G02*
X44375450Y-104487407I-500009J3D01*
G01*
X45024029Y-105190180D02*
G75*
G02*
X44375450Y-104487407I-216878J450515D01*
G01*
X45024029Y-105190180D02*
G75*
G02*
X45240907Y-105140695I216876J-450505D01*
G01*
X45240906Y-101740697D02*
G75*
G02*
X45024029Y-101691212I84J500361D01*
G01*
X46646592Y-105140695D02*
G75*
G02*
X46863470Y-105190180I2J-499990D01*
G01*
X46863468Y-101691212D02*
G75*
G02*
X47512051Y-102393986I216882J-450514D01*
G01*
X46863470Y-101691212D02*
G75*
G02*
X46646591Y-101740672I-216820J450516D01*
G01*
X47443749Y-102646244D02*
G75*
G02*
X47512048Y-102393985I500011J-2D01*
G01*
X47512046Y-104487407D02*
G75*
G02*
X46863470Y-105190180I-431700J-252258D01*
G01*
X47512048Y-104487406D02*
G75*
G02*
X47443749Y-104235148I431710J252261D01*
G01*
%TO.C,LED5*%
X44443750Y-113219508D02*
X44443750Y-111630603D01*
X45240907Y-110725057D02*
X46646591Y-110725057D01*
X46646591Y-114125055D02*
X45240907Y-114125055D01*
X47443749Y-111630604D02*
X47443749Y-113219508D01*
X44375452Y-111378345D02*
G75*
G02*
X44443749Y-111630603I-431692J-252251D01*
G01*
X44375452Y-111378345D02*
G75*
G02*
X45024028Y-110675573I431698J252259D01*
G01*
X44443749Y-113219509D02*
G75*
G02*
X44375450Y-113471767I-500009J3D01*
G01*
X45024029Y-114174540D02*
G75*
G02*
X44375450Y-113471767I-216878J450515D01*
G01*
X45024029Y-114174540D02*
G75*
G02*
X45240907Y-114125055I216876J-450505D01*
G01*
X45240906Y-110725057D02*
G75*
G02*
X45024029Y-110675572I84J500361D01*
G01*
X46646592Y-114125055D02*
G75*
G02*
X46863470Y-114174540I2J-499990D01*
G01*
X46863468Y-110675572D02*
G75*
G02*
X47512051Y-111378346I216882J-450514D01*
G01*
X46863470Y-110675572D02*
G75*
G02*
X46646591Y-110725032I-216820J450516D01*
G01*
X47443749Y-111630604D02*
G75*
G02*
X47512048Y-111378345I500011J-2D01*
G01*
X47512046Y-113471767D02*
G75*
G02*
X46863470Y-114174540I-431700J-252258D01*
G01*
X47512048Y-113471766D02*
G75*
G02*
X47443749Y-113219508I431710J252261D01*
G01*
%TO.C,LED1*%
X44443750Y-140172591D02*
X44443750Y-138583686D01*
X45240907Y-137678140D02*
X46646591Y-137678140D01*
X46646591Y-141078138D02*
X45240907Y-141078138D01*
X47443749Y-138583687D02*
X47443749Y-140172591D01*
X44375452Y-138331428D02*
G75*
G02*
X44443749Y-138583686I-431692J-252251D01*
G01*
X44375452Y-138331428D02*
G75*
G02*
X45024028Y-137628656I431698J252259D01*
G01*
X44443749Y-140172592D02*
G75*
G02*
X44375450Y-140424850I-500009J3D01*
G01*
X45024029Y-141127623D02*
G75*
G02*
X44375450Y-140424850I-216878J450515D01*
G01*
X45024029Y-141127623D02*
G75*
G02*
X45240907Y-141078138I216876J-450505D01*
G01*
X45240906Y-137678140D02*
G75*
G02*
X45024029Y-137628655I84J500361D01*
G01*
X46646592Y-141078138D02*
G75*
G02*
X46863470Y-141127623I2J-499990D01*
G01*
X46863468Y-137628655D02*
G75*
G02*
X47512051Y-138331429I216882J-450514D01*
G01*
X46863470Y-137628655D02*
G75*
G02*
X46646591Y-137678115I-216820J450516D01*
G01*
X47443749Y-138583687D02*
G75*
G02*
X47512048Y-138331428I500011J-2D01*
G01*
X47512046Y-140424850D02*
G75*
G02*
X46863470Y-141127623I-431700J-252258D01*
G01*
X47512048Y-140424849D02*
G75*
G02*
X47443749Y-140172591I431710J252261D01*
G01*
%TO.C,LED6*%
X44443750Y-122203869D02*
X44443750Y-120614964D01*
X45240907Y-119709418D02*
X46646591Y-119709418D01*
X46646591Y-123109416D02*
X45240907Y-123109416D01*
X47443749Y-120614965D02*
X47443749Y-122203869D01*
X44375452Y-120362706D02*
G75*
G02*
X44443749Y-120614964I-431692J-252251D01*
G01*
X44375452Y-120362706D02*
G75*
G02*
X45024028Y-119659934I431698J252259D01*
G01*
X44443749Y-122203870D02*
G75*
G02*
X44375450Y-122456128I-500009J3D01*
G01*
X45024029Y-123158901D02*
G75*
G02*
X44375450Y-122456128I-216878J450515D01*
G01*
X45024029Y-123158901D02*
G75*
G02*
X45240907Y-123109416I216876J-450505D01*
G01*
X45240906Y-119709418D02*
G75*
G02*
X45024029Y-119659933I84J500361D01*
G01*
X46646592Y-123109416D02*
G75*
G02*
X46863470Y-123158901I2J-499990D01*
G01*
X46863468Y-119659933D02*
G75*
G02*
X47512051Y-120362707I216882J-450514D01*
G01*
X46863470Y-119659933D02*
G75*
G02*
X46646591Y-119709393I-216820J450516D01*
G01*
X47443749Y-120614965D02*
G75*
G02*
X47512048Y-120362706I500011J-2D01*
G01*
X47512046Y-122456128D02*
G75*
G02*
X46863470Y-123158901I-431700J-252258D01*
G01*
X47512048Y-122456127D02*
G75*
G02*
X47443749Y-122203869I431710J252261D01*
G01*
%TD*%
M02*
