M48
; DRILL file {KiCad 9.0.6} date 2025-12-02T22:11:34+0800
; FORMAT={-:-/ absolute / metric / decimal}
; #@! TF.CreationDate,2025-12-02T22:11:34+08:00
; #@! TF.GenerationSoftware,Kicad,Pcbnew,9.0.6
; #@! TF.FileFunction,Plated,1,2,PTH
FMAT,2
METRIC
; #@! TA.AperFunction,Plated,PTH,ViaDrill
T1C0.300
; #@! TA.AperFunction,Plated,PTH,ComponentDrill
T2C0.800
; #@! TA.AperFunction,Plated,PTH,ComponentDrill
T3C0.889
; #@! TA.AperFunction,Plated,PTH,ComponentDrill
T4C1.000
; #@! TA.AperFunction,Plated,PTH,ComponentDrill
T5C1.500
; #@! TA.AperFunction,Plated,PTH,ComponentDrill
T6C1.524
%
G90
G05
T1
X43.5Y-90.31
X45.56Y-89.65
X52.5Y-84.7
X69.6Y-86.7
X70.2Y-88.1
X75.8Y-116.8
X76.2Y-85.725
X79.7Y-94.6
T2
X53.34Y-133.35
X54.292Y-114.3
X60.96Y-133.35
X61.912Y-114.3
X66.675Y-139.065
X66.675Y-146.685
X72.39Y-114.3
X72.39Y-133.35
X80.01Y-114.3
X80.01Y-133.35
X85.725Y-139.065
X85.725Y-146.685
X91.44Y-133.35
X91.79Y-114.5
X99.06Y-133.35
X99.41Y-114.5
X104.775Y-139.065
X104.775Y-146.685
T3
X56.38Y-83.2
X56.38Y-85.74
X56.38Y-88.28
X56.38Y-90.82
X56.38Y-93.36
X56.38Y-95.9
X56.38Y-98.44
X71.62Y-83.2
X71.62Y-85.74
X71.62Y-88.28
X71.62Y-90.82
X71.62Y-93.36
X71.62Y-95.9
X71.62Y-98.44
T4
X86.0Y-83.88
X86.0Y-86.42
X86.0Y-88.96
X86.0Y-91.5
X89.75Y-85.5
X89.75Y-88.0
X89.75Y-90.5
X104.25Y-85.5
X104.25Y-90.5
T6
X53.34Y-102.235
X53.34Y-121.285
X53.34Y-140.335
X59.69Y-99.695
X59.69Y-118.745
X59.69Y-137.795
X72.39Y-102.235
X72.39Y-121.285
X72.39Y-140.335
X78.74Y-99.695
X78.74Y-118.745
X78.74Y-137.795
X91.44Y-102.235
X91.44Y-121.285
X91.44Y-140.335
X97.79Y-99.695
X97.79Y-118.745
X97.79Y-137.795
T5
G00X96.6Y-82.4
M15
G01X97.9Y-82.4
M16
G05
G00X96.6Y-93.6
M15
G01X97.9Y-93.6
M16
G05
M30
