M48
; DRILL file {KiCad 9.0.6} date 2025-12-02T22:11:34+0800
; FORMAT={-:-/ absolute / metric / decimal}
; #@! TF.CreationDate,2025-12-02T22:11:34+08:00
; #@! TF.GenerationSoftware,Kicad,Pcbnew,9.0.6
; #@! TF.FileFunction,NonPlated,1,2,NPTH
FMAT,2
METRIC
; #@! TA.AperFunction,NonPlated,NPTH,ComponentDrill
T1C1.702
; #@! TA.AperFunction,NonPlated,NPTH,ComponentDrill
T2C3.988
%
G90
G05
T1
X52.07Y-104.775
X52.07Y-123.825
X52.07Y-142.875
X62.23Y-104.775
X62.23Y-123.825
X62.23Y-142.875
X71.12Y-104.775
X71.12Y-123.825
X71.12Y-142.875
X81.28Y-104.775
X81.28Y-123.825
X81.28Y-142.875
X90.17Y-104.775
X90.17Y-123.825
X90.17Y-142.875
X100.33Y-104.775
X100.33Y-123.825
X100.33Y-142.875
T2
X57.15Y-104.775
X57.15Y-123.825
X57.15Y-142.875
X76.2Y-104.775
X76.2Y-123.825
X76.2Y-142.875
X95.25Y-104.775
X95.25Y-123.825
X95.25Y-142.875
M30
